<?xml version="1.0" encoding="UTF-8" standalone="no"?>
<svg
   width="16"
   height="16"
   fill="currentColor"
   class="bi bi-balloon-heart"
   viewBox="0 0 16 16"
   version="1.1"
   id="svg5933"
   sodipodi:docname="balloon-heart.svg"
   xmlns:inkscape="http://www.inkscape.org/namespaces/inkscape"
   xmlns:sodipodi="http://sodipodi.sourceforge.net/DTD/sodipodi-0.dtd"
   xmlns="http://www.w3.org/2000/svg"
   xmlns:svg="http://www.w3.org/2000/svg">
  <defs
     id="defs5937" />
  <sodipodi:namedview
     id="namedview5935"
     pagecolor="#ffffff"
     bordercolor="#000000"
     borderopacity="0.25"
     inkscape:showpageshadow="2"
     inkscape:pageopacity="0.0"
     inkscape:pagecheckerboard="0"
     inkscape:deskcolor="#d1d1d1"
     showgrid="false" />
  <path
     fill-rule="evenodd"
     d="M 8,2.42 7.283,1.683 C 6.153,0.522 4.04,0.906 3.273,2.403 2.923,3.088 2.822,4.11 3.509,5.465 4.16,6.753 5.52,8.32 8,10.042 10.479,8.319 11.839,6.752 12.491,5.465 13.178,4.11 13.078,3.088 12.727,2.404 11.96,0.906 9.847,0.522 8.717,1.683 Z m -0.49,8.5 C -3.27,3.48 4.51,-2.235 7.869,0.857 7.914,0.898 7.958,0.941 8.001,0.986 8.044,0.941 8.088,0.898 8.133,0.857 11.493,-2.235 19.27,3.481 8.49,10.92 l 0.235,0.468 A 0.25043961,0.25043961 0 1 1 8.277,11.612 L 8.269,11.595 c 0.008,0.11 0.02,0.202 0.037,0.29 0.054,0.27 0.161,0.488 0.419,1.003 0.288,0.578 0.235,1.15 0.076,1.629 -0.157,0.469 -0.422,0.867 -0.588,1.115 L 8.209,15.639 A 0.25016994,0.25016994 0 1 1 7.793,15.361 c 0.168,-0.252 0.4,-0.6 0.533,-1.003 0.133,-0.396 0.163,-0.824 -0.049,-1.246 L 8.264,13.084 c -0.24,-0.48 -0.38,-0.758 -0.448,-1.102 a 3.177,3.177 0 0 1 -0.052,-0.45 l -0.04,0.08 A 0.25,0.25 0 1 1 7.277,11.388 L 7.512,10.92 Z M 6.013,2.06 C 5.364,1.88 4.53,2.143 4.163,2.858 4.032,3.116 3.918,3.547 4.083,4.193 4.146,4.437 4.497,4.391 4.57,4.15 4.78,3.453 5.197,2.703 5.929,2.458 6.146,2.385 6.233,2.121 6.013,2.06 Z"
     id="path5931"
     style="fill:#d4aa00" />
</svg>
