<?xml version="1.0" encoding="UTF-8" standalone="no"?>
<!-- Created with Inkscape (http://www.inkscape.org/) -->

<svg
   version="1.1"
   id="svg382"
   width="200"
   height="200"
   viewBox="0 0 200 200"
   sodipodi:docname="gabber.png"
   inkscape:export-filename="../../36/gabber.svg"
   inkscape:export-xdpi="17.280001"
   inkscape:export-ydpi="17.280001"
   xmlns:inkscape="http://www.inkscape.org/namespaces/inkscape"
   xmlns:sodipodi="http://sodipodi.sourceforge.net/DTD/sodipodi-0.dtd"
   xmlns="http://www.w3.org/2000/svg"
   xmlns:svg="http://www.w3.org/2000/svg">
  <defs
     id="defs386" />
  <sodipodi:namedview
     id="namedview384"
     pagecolor="#ffffff"
     bordercolor="#000000"
     borderopacity="0.25"
     inkscape:showpageshadow="2"
     inkscape:pageopacity="0.0"
     inkscape:pagecheckerboard="0"
     inkscape:deskcolor="#d1d1d1"
     showgrid="false" />
  <g
     inkscape:groupmode="layer"
     inkscape:label="Image"
     id="g388">
    <path
       style="fill:#00aa00;stroke-width:0.130749"
       d="m 90.035508,154.33982 c -8.208142,-0.44022 -16.460383,-1.65604 -23.927084,-3.52521 -14.493718,-3.62826 -25.389746,-9.29325 -33.220035,-17.2715 -5.910618,-6.02232 -9.340088,-12.63128 -10.440381,-20.1198 -1.31642,-8.9595 1.567094,-18.714527 7.812808,-26.43099 0.587587,-0.725958 1.1195,-1.388057 1.182011,-1.471333 0.07355,-0.09798 -0.232538,-0.656602 -0.867363,-1.582995 -1.794584,-2.618793 -2.807118,-4.483791 -3.79413,-6.98842 -3.374909,-8.564129 -2.100353,-17.339111 3.533023,-24.323801 1.062833,-1.31778 3.257849,-3.416104 4.655388,-4.450321 4.283118,-3.169625 9.180875,-5.003551 14.265197,-5.341484 7.21633,-0.479637 13.774919,2.03837 19.032631,7.307098 1.257443,1.26008 3.253728,3.698533 3.922196,4.790946 0.144342,0.235883 0.291552,0.274444 1.031363,0.270149 1.511529,-0.0088 2.91389,0.869401 4.693054,2.938841 0.961731,1.118642 1.621382,2.014153 4.276377,5.805409 2.382913,3.402732 4.918474,5.573082 7.982254,6.832529 2.852892,1.172756 6.28104,1.424068 9.101514,0.66722 4.460429,-1.196917 7.612149,-3.924651 12.071959,-10.447976 2.94237,-4.303779 4.3798,-5.572815 6.48272,-5.723278 l 0.91445,-0.06543 0.94344,-1.25693 c 1.12948,-1.504775 3.44464,-3.926586 4.801,-5.022146 2.99746,-2.421126 6.50648,-4.089651 10.25472,-4.876071 2.1439,-0.449816 5.5928,-0.56591 7.86906,-0.264885 8.90726,1.17795 16.8812,6.839782 20.64542,14.659131 1.10877,2.303215 1.79245,4.5676 2.1586,7.149371 0.20083,1.415976 0.16436,4.934062 -0.0668,6.448535 -0.58928,3.860016 -2.10683,7.720473 -4.51126,11.476205 l -1.06915,1.670024 1.15995,1.533329 c 5.47421,7.236316 8.16991,14.194883 8.36897,21.603313 0.10799,4.01912 -0.4976,7.75481 -1.85602,11.44907 -1.12829,3.06849 -3.44032,7.16991 -5.65831,10.03763 -2.9904,3.86636 -7.02092,7.56644 -11.40679,10.47154 -2.48246,1.64432 -3.53062,2.24315 -6.65185,3.8003 -12.18004,6.07643 -25.70993,9.44134 -41.2677,10.2633 -2.841768,0.15014 -9.523814,0.14402 -12.421171,-0.0113 z M 141.55004,87.667693 c 6.02216,-0.498841 11.2058,-3.70084 14.3337,-8.854097 2.74239,-4.518143 3.34963,-10.251412 1.62874,-15.377874 -1.76679,-5.263194 -6.20996,-9.678015 -11.51635,-11.442895 -2.16919,-0.72146 -3.15634,-0.866417 -5.88371,-0.863993 -2.78384,0.0024 -3.74749,0.153004 -6.00099,0.937395 -6.22532,2.166893 -10.87907,7.634215 -12.05455,14.161917 -0.29674,1.647913 -0.30067,4.621308 -0.008,6.248389 0.69792,3.883387 2.52637,7.315091 5.35335,10.047377 1.51354,1.462845 2.76716,2.36609 4.47323,3.223032 2.21744,1.113788 4.36014,1.72073 6.77448,1.918928 0.66067,0.05424 1.23063,0.106065 1.26659,0.115174 0.036,0.0091 0.77115,-0.0419 1.63375,-0.113353 z m -3.58034,-9.285758 c -4.73476,-1.239968 -7.86066,-5.822277 -7.20874,-10.567407 0.42574,-3.098801 2.36929,-5.91437 5.03674,-7.296571 4.9605,-2.570407 10.69699,-0.701629 13.22304,4.307674 1.32741,2.632301 1.26533,5.994527 -0.16107,8.726403 -1.23206,2.359669 -3.54053,4.172924 -6.16814,4.844952 -1.32228,0.338183 -3.3983,0.331566 -4.72183,-0.01505 z m 0.47561,-9.998819 c 0.79561,-0.236273 1.67678,-1.136726 1.81064,-1.850282 0.25762,-1.373222 -0.2677,-2.534204 -1.40254,-3.099723 -1.06178,-0.529103 -2.08674,-0.407634 -2.94906,0.3495 -1.60757,1.411471 -1.06681,3.992222 0.96921,4.625535 0.66553,0.207013 0.79745,0.204913 1.57175,-0.02503 z M 52.706644,86.431989 C 60.635956,85.34666 66.836707,79.40554 68.33489,71.45811 c 0.316694,-1.679964 0.318856,-4.5867 0.0048,-6.341331 -1.343181,-7.502344 -6.939257,-13.239707 -14.496966,-14.862972 -1.767009,-0.379523 -5.182803,-0.405759 -6.950766,-0.05339 -5.76882,1.149778 -10.535422,4.796259 -13.183601,10.085535 -0.492323,0.983317 -1.198486,3.105164 -1.477177,4.438578 -0.34723,1.661279 -0.34723,5.399173 0,7.060452 0.804238,3.847809 2.601632,7.084921 5.4261,9.772411 4.034656,3.839006 9.554085,5.626776 15.049443,4.874595 z m -3.857098,-8.763211 c -2.012451,-0.44956 -3.296499,-1.174356 -4.84058,-2.73234 -1.297084,-1.308759 -1.910414,-2.315925 -2.43668,-4.001324 -0.260923,-0.835659 -0.305651,-1.251208 -0.30254,-2.811105 0.0034,-1.71 0.03039,-1.905889 0.409859,-2.976009 0.572433,-1.61425 1.120912,-2.475856 2.397926,-3.766897 0.93028,-0.940488 1.314368,-1.223465 2.353483,-1.733897 0.682982,-0.335491 1.624231,-0.710204 2.09166,-0.832695 1.162306,-0.30459 3.562206,-0.298853 4.706967,0.01126 3.149667,0.853213 5.71064,3.218089 6.729769,6.21445 1.313961,3.863204 0.122044,8.084146 -3.006584,10.647261 -1.009946,0.827383 -2.865668,1.7105 -4.142615,1.971419 -1.206253,0.246476 -2.882848,0.250661 -3.960665,0.0099 z m -0.02911,-10.141003 c 0.271644,-0.07543 0.707443,-0.324657 0.968458,-0.553832 1.270031,-1.115104 1.257335,-3.054929 -0.02692,-4.113521 -1.382436,-1.139523 -3.336325,-0.671204 -4.180441,1.001997 -0.321917,0.63811 -0.226078,1.919924 0.188841,2.525449 0.705601,1.029776 1.874092,1.466477 3.050064,1.139907 z m 45.456114,0.528206 c -1.840033,-0.140332 -3.41162,-0.625662 -5.379129,-1.661159 -2.496829,-1.314072 -4.821819,-3.428518 -8.162422,-7.42325 -2.8686,-3.430308 -4.131305,-4.534417 -5.532527,-4.837644 l -0.450645,-0.09752 0.450645,-0.241181 C 77.312327,52.66604 81.13222,51.76032 86.1409,51.201658 c 11.416557,-1.27339 23.94913,-0.198686 30.09294,2.580557 l 0.57152,0.258533 -0.44076,0.09535 c -1.35042,0.292135 -2.83041,1.568659 -5.4546,4.704724 -4.07902,4.87467 -6.12261,6.645104 -9.25978,8.022016 -1.759397,0.772203 -4.509603,1.384004 -5.861745,1.303982 -0.143829,-0.0085 -0.824189,-0.05839 -1.511927,-0.11084 z"
       id="path414" />
    <rect
       style="fill:none;stroke:#ffcc00;stroke-width:10;stroke-dasharray:none"
       id="rect470"
       width="191.74123"
       height="189.19156"
       x="4.5230589"
       y="5.8685374"
       rx="29.131887"
       ry="24.946558" />
    <path
       style="fill:#005500;stroke-width:0.131752"
       d="m 93.173317,131.87469 c -10.233216,-1.65786 -19.217056,-4.49006 -27.601896,-8.7016 -2.951809,-1.48266 -3.29794,-1.69027 -3.33385,-1.99988 -0.02629,-0.22712 0.03506,-0.37433 0.179128,-0.42963 0.121138,-0.0464 0.993823,0.18578 1.950454,0.519 5.391076,1.87804 12.449803,3.67168 17.804931,4.52431 5.246641,0.83535 9.505882,1.11904 15.466966,1.0302 6.16329,-0.0918 10.34675,-0.54328 16.28509,-1.75726 4.10848,-0.83992 9.86173,-2.43169 13.48253,-3.73027 1.70217,-0.61048 2.12999,-0.66537 2.12999,-0.2733 0,0.40691 -1.02229,1.08021 -3.4914,2.29951 -6.54394,3.23151 -17.74114,6.74932 -26.877266,8.44398 -2.686661,0.49835 -3.331476,0.50641 -5.994677,0.075 z m -15.059055,-31.22893 -0.895786,-0.0756 1.949797,-3.151911 c 1.072392,-1.733563 2.10682,-3.267303 2.298717,-3.408317 0.45433,-0.333871 1.306607,-0.323292 1.862046,0.0231 0.30788,0.192014 0.944281,1.123707 2.322931,3.40079 1.044383,1.724983 1.922365,3.180798 1.951106,3.235138 0.05939,0.11229 -8.11945,0.0923 -9.488811,-0.0233 z m 25.994408,0.0426 c 0,-0.20314 3.64254,-5.966343 4.01534,-6.353073 0.80515,-0.835185 1.98632,-0.639257 2.72042,0.451221 0.19019,0.282529 1.09193,1.743914 2.00385,3.247521 l 1.65809,2.733841 h -5.19883 c -2.85938,0 -5.19887,-0.0359 -5.19887,-0.0795 z m 35.11327,-22.05508 c -3.15574,-0.56923 -5.73653,-2.505698 -7.11089,-5.335584 -0.69905,-1.439358 -0.99412,-2.702325 -0.99108,-4.242049 0.004,-2.174751 0.68173,-4.150351 2.03806,-5.943535 2.5223,-3.3347 7.30462,-4.60971 11.26068,-3.002212 2.7353,1.11145 5.00351,3.736324 5.76035,6.666109 0.33276,1.288129 0.29982,3.478785 -0.0721,4.802978 -0.93686,3.334493 -3.62781,5.998215 -6.93391,6.863716 -0.96069,0.251501 -3.05358,0.352448 -3.95098,0.190577 z m 0.008,-10.262135 c 0.9188,-0.417308 1.6361,-1.52099 1.6361,-2.517395 0,-1.485314 -1.28031,-2.766778 -2.76429,-2.766778 -1.66434,0 -2.79414,1.126604 -2.79414,2.786233 0,2.026007 2.06539,3.341346 3.92233,2.49794 z m -89.991384,9.463434 c -4.399661,-0.676609 -7.689896,-4.066556 -8.264069,-8.514482 -0.500769,-3.879363 1.754501,-7.982959 5.344716,-9.725003 1.697241,-0.823537 2.683947,-1.026807 4.628055,-0.953422 1.219902,0.04605 1.815095,0.136306 2.605784,0.395153 2.895691,0.94794 5.213609,3.258897 6.242792,6.224044 0.335507,0.966572 0.365595,1.212491 0.362888,2.964401 -0.0026,1.714822 -0.03898,2.018298 -0.354856,2.964403 -0.512099,1.533823 -1.200475,2.619852 -2.46666,3.891502 -1.25479,1.260201 -2.544601,2.0264 -4.169004,2.476541 -1.143595,0.316915 -2.875686,0.438944 -3.929646,0.276863 z M 48.87472,67.494372 c 2.611514,-1.091165 1.992904,-5.06842 -0.824675,-5.302076 -1.962396,-0.162737 -3.417651,1.513645 -2.962196,3.412257 0.390975,1.629724 2.222174,2.543584 3.786871,1.889819 z m 44.610711,0.460379 c -1.864386,-0.243118 -4.490904,-1.390753 -6.557799,-2.865292 -1.508419,-1.076113 -4.091296,-3.680685 -6.307846,-6.360797 -2.660596,-3.217036 -3.796368,-4.22077 -5.277121,-4.663605 l -0.505467,-0.151164 0.909407,-0.419167 c 6.477282,-2.985578 23.960438,-3.787751 34.617335,-1.588333 1.79351,0.370156 4.21565,1.076168 5.43842,1.585206 l 1.0096,0.420299 -0.58747,0.194578 c -1.38626,0.459137 -2.47536,1.450946 -5.30413,4.83033 -3.51978,4.204879 -5.58766,6.070058 -8.21142,7.406544 -2.48831,1.267494 -4.394087,1.755294 -6.768754,1.73254 -0.905789,-0.0086 -2.010536,-0.0632 -2.454988,-0.121163 z"
       id="path416" />
  </g>
</svg>
