<?xml version="1.0" encoding="UTF-8" standalone="no"?>
<!-- Created with Inkscape (http://www.inkscape.org/) -->

<svg
   version="1.1"
   id="svg2859"
   width="231.03999"
   height="231.03999"
   viewBox="0 0 231.03999 231.03999"
   sodipodi:docname="honk.jpg"
   inkscape:export-filename="../../../var/www/html/images/icons/navbar/honk/honk48Off.svg"
   inkscape:export-xdpi="19.944599"
   inkscape:export-ydpi="19.944599"
   xmlns:inkscape="http://www.inkscape.org/namespaces/inkscape"
   xmlns:sodipodi="http://sodipodi.sourceforge.net/DTD/sodipodi-0.dtd"
   xmlns="http://www.w3.org/2000/svg"
   xmlns:svg="http://www.w3.org/2000/svg">
  <defs
     id="defs2863" />
  <sodipodi:namedview
     id="namedview2861"
     pagecolor="#ffffff"
     bordercolor="#000000"
     borderopacity="0.25"
     inkscape:showpageshadow="2"
     inkscape:pageopacity="0.0"
     inkscape:pagecheckerboard="0"
     inkscape:deskcolor="#d1d1d1"
     showgrid="false" />
  <g
     inkscape:groupmode="layer"
     inkscape:label="Image"
     id="g2865">
    <path
       style="fill:#ffcc00;stroke-width:0.32"
       d="m 50.35667,226.95846 c -1.773479,-0.22857 -3.221088,-0.46799 -4.64,-0.76742 -1.251523,-0.26411 -5.515485,-1.84855 -6.56,-2.43762 -1.724547,-0.9726 -5.92064,-3.67022 -6.390822,-4.10859 -3.230099,-3.01157 -4.29543,-4.13419 -5.568531,-5.86801 -0.815555,-1.11069 -1.591874,-2.16344 -1.725152,-2.33944 -0.627645,-0.82884 -2.955494,-5.71287 -2.955494,-6.20089 0,-0.30311 -0.138123,-0.68923 -0.30694,-0.85805 -0.168817,-0.16882 -0.804796,-2.46562 -1.413288,-5.104 -1.054345,-4.57158 -1.101799,-5.03772 -1.009561,-9.91706 0.07719,-4.08317 0.236801,-5.60601 0.7882,-7.52 0.884988,-3.07193 0.841022,-2.93006 1.1405,-3.68 0.140568,-0.352 0.45714,-1.144 0.703495,-1.76 0.246354,-0.616 1.269094,-2.48495 2.272755,-4.15322 1.965123,-3.2664 6.155091,-7.82525 8.704838,-9.47121 0.792,-0.51127 1.512,-1.0043 1.6,-1.09563 0.088,-0.0913 0.7,-0.44943 1.36,-0.79577 0.66,-0.34634 1.2,-0.74096 1.2,-0.87693 0,-0.13598 0.288,-0.24724 0.64,-0.24724 0.352,0 0.64,-0.144 0.64,-0.32 0,-0.176 0.289955,-0.32 0.644342,-0.32 0.354388,0 0.894388,-0.13702 1.2,-0.3045 0.990256,-0.54265 2.750707,-1.24743 4.833501,-1.93503 1.120813,-0.37002 2.632813,-0.94513 3.36,-1.27803 0.727187,-0.33289 2.690157,-1.05168 4.362156,-1.59731 1.672,-0.54562 3.688,-1.30306 4.48,-1.68319 3.754474,-1.80199 8.282505,-5.71225 12.021337,-10.38123 1.311008,-1.63715 3.480202,-4.34556 4.820429,-6.01868 1.340224,-1.67311 2.578317,-3.04203 2.751312,-3.04203 1.074256,0 6.52232,1.6598 7.97629,2.43005 1.29453,0.68577 1.76292,0.55865 0.99503,-0.27005 -0.85137,-0.91879 -1.02766,-2.146 -0.44122,-3.07137 0.20841,-0.32887 1.00038,0.12742 3.33251,1.92 1.68253,1.29325 3.87324,2.97185 4.86824,3.73022 1.72339,1.31351 1.78686,1.41206 1.33944,2.08 -0.33872,0.50567 -0.79226,0.70115 -1.62673,0.70115 -0.63638,0 -1.15697,0.0865 -1.15685,0.19219 1.2e-4,0.1057 0.75621,0.9005 1.68021,1.76622 1.90703,1.78675 3.21802,3.26889 3.71839,4.20383 0.28383,0.53035 0.1278,0.94544 -0.91493,2.43398 -1.68792,2.40959 -4.55522,7.31574 -5.5426,9.48378 -1.9094,4.19254 -2.46536,6.87376 -2.49731,12.04362 -0.0285,4.61395 0.12024,5.74475 1.57787,11.99472 1.09162,4.68063 1.24466,5.83175 1.27634,9.6 0.0407,4.8439 -0.56356,8.3115 -2.19193,12.57808 -1.06202,2.78267 -3.30703,6.71948 -5.10855,8.95826 -1.17327,1.45804 -5.899538,5.94532 -6.26197,5.94532 -0.221088,0 -0.449974,0.11007 -0.508643,0.2446 -0.223296,0.51205 -4.654685,3.05863 -6.746665,3.87709 -0.396,0.15493 -1.296,0.51507 -2,0.80031 -4.427178,1.79374 -14.024601,3.04421 -18.719999,2.43908 z m 9.767017,-4.28305 c 2.837958,-0.22167 4.312982,-0.52195 4.312982,-0.87803 0,-0.154 0.265875,-0.28 0.590835,-0.28 0.32496,0 1.00896,-0.19893 1.52,-0.44207 0.51104,-0.24315 1.541165,-0.70286 2.289165,-1.02159 0.748,-0.31873 1.36,-0.69579 1.36,-0.83792 0,-0.14213 0.162531,-0.25842 0.361181,-0.25842 0.363065,0 3.862828,-2.27119 4.758818,-3.08826 1.300423,-1.18587 3.763255,-3.64798 4.433949,-4.43264 1.76796,-2.06837 5.30952,-8.09256 5.63485,-9.58489 0.0401,-0.18382 0.23685,-0.73397 0.43729,-1.22257 0.6585,-1.6052 0.81725,-2.59887 0.82945,-5.19164 0.0195,-4.13686 -0.16276,-5.83359 -1.11691,-10.4 -1.60415,-7.67719 -1.67661,-8.37008 -1.43416,-13.71332 0.13151,-2.89812 0.43186,-5.68052 0.71318,-6.60668 1.31065,-4.31496 1.8509,-5.87993 2.4981,-7.23642 l 0.70442,-1.47642 -0.92575,-1.2416 c -1.09235,-1.46502 -6.34428,-5.05225 -10.135599,-6.92291 -4.176083,-2.06051 -4.570931,-1.95882 -8.470282,2.18145 -3.672809,3.89973 -5.953734,5.73012 -8.860402,7.11029 -2.038429,0.9679 -7.562954,2.50875 -10.003526,2.79009 -0.668464,0.0771 -1.676464,0.34269 -2.24,0.59029 -0.563533,0.24761 -1.495699,0.62983 -2.071475,0.84938 -1.253149,0.47785 -1.807751,1.14938 -0.712752,0.86303 0.889449,-0.23259 2.50135,0.39931 3.296214,1.29219 0.317126,0.35624 0.738358,1.62391 0.936067,2.81705 0.635318,3.83401 -0.52527,8.42481 -3.784297,14.96907 -0.598602,1.20201 -1.088365,2.2926 -1.088365,2.42351 0,0.13092 0.972486,0.90251 2.161085,1.71464 2.55015,1.74244 4.073337,3.24762 3.774985,3.73036 -0.333194,0.53912 -1.095414,0.40937 -1.86945,-0.31822 -1.102783,-1.03662 -4.622895,-3.49578 -5.003961,-3.49578 -0.188464,0 -0.342659,0.1505 -0.342659,0.33445 0,1.33839 -6.466237,8.84458 -8.642355,10.03229 -0.438704,0.23945 -1.50207,0.81969 -2.363037,1.28944 -1.834777,1.00106 -5.128169,1.83327 -6.366416,1.60874 -0.477505,-0.0866 -0.868074,-0.0466 -0.867931,0.0888 4.16e-4,0.38986 1.119317,3.2325 1.371696,3.48489 0.125424,0.12542 0.228044,0.49204 0.228044,0.81471 0,0.32266 0.11003,0.58666 0.244512,0.58666 0.13448,0 0.50759,0.612 0.829132,1.36 0.32154,0.748 0.931511,1.81839 1.355488,2.37865 0.423978,0.56026 0.770867,1.1015 0.770867,1.20277 0,0.86922 6.365632,6.94849 9.040938,8.63423 2.586947,1.63007 6.945846,3.7981 7.514607,3.73763 0.04155,-0.004 0.648132,0.19399 1.347956,0.4409 1.801731,0.63569 4.560412,1.12624 7.536498,1.34016 1.408,0.1012 2.616087,0.23446 2.684634,0.29613 0.06855,0.0617 0.215705,0.0558 0.327017,-0.013 0.111309,-0.0688 1.207226,-0.20356 2.435367,-0.29949 z m -1.678429,-7.85075 c -1.911683,-1.19998 -1.702525,-2.93088 0.687456,-5.68908 1.226691,-1.41569 5.055216,-4.2582 5.735286,-4.2582 0.220368,0 0.537469,-0.1241 0.704669,-0.27578 0.1672,-0.15169 0.947673,-0.43241 1.734384,-0.62384 1.198077,-0.29153 1.63983,-0.25519 2.72,0.22377 0.709289,0.31452 1.449353,0.77524 1.644588,1.02384 0.473716,0.60321 0.722391,2.20132 0.480397,3.08728 -0.262841,0.96229 -2.639795,3.92473 -3.149059,3.92473 -0.223469,0 -0.40631,0.12946 -0.40631,0.28769 0,0.38297 -2.363943,1.60094 -4.16,2.14336 -2.721206,0.82181 -4.842937,0.87714 -5.991411,0.15623 z m 6.072134,-1.84483 c 3.399424,-1.32996 6.111113,-3.91676 5.934272,-5.66095 -0.145894,-1.43897 -0.823488,-1.67658 -3.351299,-1.17522 -3.133936,0.62158 -6.263072,2.81655 -7.726006,5.41949 -0.666231,1.1854 -0.675712,1.2905 -0.162695,1.80351 0.651543,0.65154 3.109703,0.47232 5.305728,-0.38683 z M 28.756671,196.47418 c 3.911139,-1.12882 8.91182,-5.3904 11.910012,-10.14973 0.898016,-1.4255 0.906278,-1.98302 0.03742,-2.52563 -1.46424,-0.91443 -9.9908,-5.05752 -11.910787,-5.7875 -1.054704,-0.401 -2.021577,0.66166 -2.607733,2.86606 -0.0234,0.088 -0.200106,0.5381 -0.392682,1.00021 -1.374909,3.29931 -2.038943,8.6917 -1.720319,13.9701 0.07815,1.29471 1.643447,1.50407 4.684085,0.62649 z m 15.342444,-16.8768 c 2.50006,-5.45291 3.539273,-9.51398 3.246291,-12.68599 -0.09038,-0.97845 -0.33192,-1.98096 -0.536768,-2.22779 -1.385021,-1.66884 -5.933728,-0.59817 -10.211968,2.4037 -2.428445,1.70394 -6.463049,6.75008 -5.396979,6.75008 0.706752,0 5.714845,3.0228 5.715936,3.45004 0.0019,0.79236 -1.009693,0.78411 -2.496867,-0.0204 -4.179104,-2.26062 -4.491114,-2.39266 -4.836851,-2.04692 -0.674074,0.67407 -0.322416,1.14137 1.494761,1.98631 3.102701,1.44268 9.482157,4.68013 10.159552,5.15578 0.352246,0.24734 0.826896,0.41043 1.054778,0.36243 0.227881,-0.048 1.041532,-1.45528 1.808115,-3.12728 z m 47.825342,-30.95766 c 0.99367,-1.32374 1.04905,-1.5107 0.64,-2.1609 -0.57748,-0.91794 -4.50822,-4.39696 -6.36779,-5.63601 l -1.44,-0.95949 -0.71707,0.89703 c -0.39438,0.49337 -1.1585,1.72442 -1.69804,2.73567 l -0.98097,1.83864 0.89804,0.39403 c 1.04308,0.45766 5.02558,3.13651 6.969,4.68774 0.8795,0.70201 0.97568,0.71747 1.28,0.20573 0.18097,-0.30433 0.81855,-1.20543 1.41683,-2.00244 z m -10.37891,-6.78531 c 1.39787,-2.1414 1.81552,-3.16001 1.11922,-2.72967 -0.18255,0.11282 -0.65778,0.87732 -1.05608,1.69888 -0.39829,0.82157 -0.9855,1.88976 -1.3049,2.37376 -0.3194,0.484 -0.49717,0.88 -0.39504,0.88 0.10213,0 0.83869,-1.00033 1.6368,-2.22297 z m -2.807064,0.68734 c 0.784924,-1.06167 2.428204,-4.24102 2.272494,-4.39673 -0.0598,-0.0598 -0.46548,-0.17537 -0.90152,-0.25683 -0.43603,-0.0815 -0.936789,-0.17927 -1.112789,-0.21735 -0.176,-0.0381 -0.480864,-0.0522 -0.677475,-0.0314 -0.361401,0.0383 -2.008825,2.28564 -2.432214,3.31789 -0.126327,0.308 -0.378327,0.56 -0.56,0.56 -0.78175,0 -0.228963,0.84332 0.871321,1.32927 1.650599,0.72899 1.787984,0.7125 2.540183,-0.3049 z m 12.899954,-3.26105 c -0.18741,-0.35018 -0.80447,-0.86019 -1.37125,-1.13336 -1.02761,-0.49526 -1.02698,-0.49347 0.2228,0.63669 1.44032,1.30246 1.62168,1.38089 1.14845,0.49667 z m 36.638233,4.30542 c -4.60467,-0.64733 -8.72027,-2.40507 -12.10455,-5.16978 -1.04996,-0.85775 -1.58292,-0.92471 -2.12842,-0.26742 -0.21523,0.25934 -0.88087,0.56336 -1.47918,0.67561 -0.59832,0.11224 -1.08785,0.33205 -1.08785,0.48847 0,0.40033 -1.18873,0.35374 -2.02103,-0.0792 -0.84572,-0.43992 -3.38912,-2.57377 -6.07626,-5.09783 -1.87385,-1.76013 -1.98826,-1.81945 -2.08396,-1.08048 -0.0557,0.43004 -0.20162,0.78189 -0.32429,0.78189 -0.12267,0 -2.210113,-1.99089 -4.638763,-4.4242 -3.90365,-3.91113 -4.35616,-4.47364 -3.90198,-4.85059 0.4631,-0.38433 0.42195,-0.52396 -0.41718,-1.41579 -0.51202,-0.54418 -1.01623,-1.34214 -1.12047,-1.77325 -0.19886,-0.82236 0.80655,-3.53617 1.31006,-3.53617 0.15517,0 1.05452,-0.97199 1.99857,-2.15999 3.56158,-4.48194 4.62388,-5.2756 5.922433,-4.42477 l 0.72073,0.47225 0.22615,-2.46374 c 0.35281,-3.84355 0.40642,-4.14432 0.90778,-5.09252 0.25918,-0.49017 0.7325,-1.75522 1.05183,-2.81122 0.31933,-1.056 0.6739,-2.064001 0.78794,-2.240001 0.11404,-0.176 0.87126,-1.580103 1.68272,-3.120227 1.72681,-3.277453 4.4782,-7.52247 5.97572,-9.219741 0.264,-0.299209 0.768,-0.918262 1.12,-1.375667 0.352,-0.457405 1.17797,-1.446509 1.83549,-2.198006 0.65751,-0.751498 1.19751,-1.453331 1.2,-1.559632 0.003,-0.106298 0.32851,-0.560378 0.72451,-1.009059 0.396,-0.448685 1.008,-1.193319 1.36,-1.654743 0.352,-0.461424 0.784,-1.015347 0.96,-1.230937 0.176,-0.215594 0.74994,-1.039987 1.27541,-1.831987 0.52547,-0.792 1.33906,-1.944 1.80798,-2.56 0.46892,-0.616 1.33498,-2.024365 1.9246,-3.129702 0.5896,-1.105338 1.47718,-2.761338 1.97238,-3.68 1.3326,-2.472154 3.54809,-7.776617 4.23941,-10.150297 0.696,-2.389706 0.75838,-7.965248 0.13968,-12.483965 -0.51164,-3.736809 -2.25611,-8.45781 -3.65612,-9.894425 -2.1897,-2.246947 -1.79838,-5.461609 0.66484,-5.461609 1.10846,0 6.93546,2.661352 8.13702,3.716403 0.27786,0.243978 0.59546,0.443597 0.70579,0.443597 0.27625,0 2.4554,1.490502 3.42901,2.345388 0.44,0.386343 2.23463,1.852679 3.98807,3.258525 3.52261,2.824304 6.91801,5.931881 12.04617,11.025027 1.86683,1.854083 5.68283,5.625071 8.48,8.37998 5.81938,5.731459 8.1474,8.150425 11.96369,12.431078 1.49062,1.672 3.59213,3.976 4.67002,5.12 5.47456,5.8103 8.46586,9.46326 9.62652,11.755843 0.89031,1.758595 0.94011,2.890412 0.18553,4.216201 -0.44715,0.785629 -0.77278,0.984317 -1.61589,0.985933 -0.58074,9.6e-4 -1.47403,-0.214208 -1.98509,-0.478487 -0.51107,-0.264281 -2.12391,-0.863267 -3.58411,-1.331081 -3.81139,-1.221085 -7.7152,-1.258855 -14.13857,-0.136794 -2.23385,0.390218 -2.37503,0.491296 -1.71298,1.226423 0.89258,0.991107 2.1309,3.771263 2.62094,5.884265 1.38363,5.966077 0.43241,17.675137 -1.92445,23.689127 -2.09769,5.35264 -8.72943,12.57156 -14.51585,15.80106 -0.32766,0.18287 -0.7911,0.49181 -1.02987,0.68653 -0.98083,0.79989 -6.33481,3.60409 -8.30632,4.35052 -4.47537,1.69441 -10.82009,2.36035 -15.80781,1.65919 z m 11.5271,-4.58767 c 2.29938,-0.59323 5.76333,-1.99673 7.1929,-2.91437 0.44,-0.28244 1.34,-0.79223 2,-1.13288 0.66,-0.34064 1.2,-0.73061 1.2,-0.86658 0,-0.13598 0.15647,-0.24724 0.34771,-0.24724 0.63496,0 5.20049,-3.32955 7.40174,-5.39795 l 2.16884,-2.03795 -0.69071,-1.22895 c -1.6284,-2.89736 -5.75945,-6.27152 -9.13755,-7.46339 -1.21848,-0.4299 -1.35016,-0.40847 -2.98582,0.486 -0.94111,0.51465 -2.58256,1.2149 -3.64766,1.55612 -1.0651,0.34122 -2.51255,0.82735 -3.21655,1.08028 -0.74456,0.26752 -1.9493,0.40315 -2.88,0.32425 -2.95258,-0.25029 -7.07468,-2.74546 -7.8337,-4.74185 -0.59038,-1.5528 -1.03389,-0.91232 -1.48833,2.1493 -0.18831,1.26867 0.32708,3.94521 1.01501,5.27121 1.3155,2.53562 3.9557,4.63286 6.74781,5.36011 3.16398,0.82412 6.49764,0.55149 12.11921,-0.9911 1.11981,-0.30728 -1.1927,0.99231 -2.88,1.6185 -0.88,0.3266 -2.34677,0.93167 -3.25949,1.34461 -2.94359,1.33178 -7.91485,0.83132 -10.68204,-1.07535 -3.64155,-2.50915 -5.17958,-4.8215 -5.72733,-8.61075 -1.06776,-7.38671 0.67274,-12.06391 6.64432,-17.85505 l 2.01547,-1.95456 -0.84616,-1.59673 c -0.72118,-1.360888 -2.31277,-3.556876 -3.49816,-4.826575 -0.17963,-0.192406 -0.93666,-1.015075 -1.68228,-1.82815 -0.74561,-0.813075 -2.32961,-2.299667 -3.52,-3.303536 -1.19038,-1.003869 -2.23633,-1.9092 -2.32433,-2.011849 -0.89049,-1.038707 -4.244,-2.657104 -4.94692,-2.38737 -0.55166,0.211693 -2.59477,3.196582 -2.89697,4.232342 -0.44318,1.518935 0.13381,3.444109 1.49603,4.991671 0.71563,0.813001 1.68066,1.681139 2.1445,1.929196 3.95548,2.115303 5.43374,7.090131 4.04343,13.607531 -0.779,3.65176 -0.49355,8.4811 0.7715,13.05242 0.62441,2.25634 2.05154,4.5019 4.65333,7.32193 1.35265,1.46611 2.37049,2.66564 2.26186,2.66564 -0.43094,0 -3.57725,-2.21176 -4.37941,-3.0786 -1.51919,-1.64166 -3.46735,-4.41095 -3.46735,-4.92878 0,-0.27754 -0.13398,-0.64142 -0.29775,-0.80862 -1.12037,-1.14388 -1.98036,-10.33103 -1.31738,-14.07329 0.21736,-1.22689 0.45861,-2.8067 0.5361,-3.5107 0.0775,-0.704 0.19801,-1.44582 0.26782,-1.64847 0.19356,-0.5619 -0.78459,-4.04452 -1.29667,-4.61673 -0.24866,-0.27786 -0.45212,-0.64111 -0.45212,-0.80723 0,-0.166118 -0.468,-0.554512 -1.04,-0.863094 -0.572,-0.308586 -1.741,-1.205332 -2.59778,-1.992772 -0.85679,-0.787436 -1.61449,-1.431705 -1.68379,-1.431705 -0.0693,0 -0.0391,0.543277 0.0671,1.20728 0.25303,1.582365 -0.88635,6.378111 -2.02379,8.518261 -2.39715,4.51037 -4.34343,6.59446 -6.15843,6.59446 -0.62577,0 -0.66637,0.13127 -0.51957,1.68 0.22822,2.40767 1.28363,6.59212 2.0767,8.23358 0.37378,0.77364 0.67961,1.54599 0.67961,1.71632 0,0.17033 0.33759,0.75528 0.75021,1.29989 0.41262,0.54461 0.80862,1.15964 0.88,1.36673 0.28592,0.82949 6.48954,7.48848 8.28978,8.89828 2.61947,2.05135 6.83216,3.89074 9.86151,4.30583 2.99276,0.41009 9.07243,0.11009 11.74559,-0.57957 z m -28.9671,-5.03405 c 0,-0.10614 -0.64529,-0.91071 -1.43398,-1.78792 -2.67497,-2.9752 -4.20329,-5.66735 -6.23278,-10.9791 -0.13449,-0.352 -0.4642,-1.15073 -0.73269,-1.77497 -0.26849,-0.62423 -0.65858,-1.95583 -0.86686,-2.95912 l -0.37869,-1.82414 -1.08981,0.83123 c -0.599403,0.45718 -1.522293,1.50079 -2.050863,2.31912 -0.52858,0.81834 -1.18807,1.79753 -1.46554,2.17598 -0.48888,0.66682 -0.35801,0.8319 4.233373,5.33956 6.64159,6.52049 9.1548,8.8311 9.61784,8.8425 0.22,0.005 0.4,-0.077 0.4,-0.18314 z m 51.02518,-9.70303 c 0.25401,-0.411 -0.49739,-2.01669 -1.18025,-2.52213 -0.69088,-0.51138 -0.76208,-1.98186 -0.096,-1.98186 0.25793,0 0.9109,0.432 1.45103,0.96 0.54014,0.528 1.0996,0.96 1.24326,0.96 0.34712,0 1.80236,-4.63576 2.46109,-7.83999 0.63457,-3.08672 0.89164,-11.01149 0.45419,-14.001028 -0.34876,-2.383341 -1.20224,-4.473853 -2.68819,-6.584464 -1.06045,-1.506221 -1.03238,-1.501779 -4.16285,-0.658829 l -1.28737,0.34665 1.02199,0.848835 c 3.198,2.656153 4.90317,11.004086 3.59119,17.581156 -0.27065,1.35675 -0.59711,2.11704 -1.00211,2.33379 -0.75283,0.40291 -1.08151,-0.26887 -0.75682,-1.54683 1.00809,-3.9678 0.7736,-9.6985 -0.54174,-13.239953 -1.15006,-3.096461 -3.9096,-5.377629 -5.9021,-4.878973 -2.06055,0.51569 -4.77059,2.039645 -3.62708,2.039645 0.19868,0 0.99314,0.434765 1.76547,0.966144 1.04142,0.716512 1.67561,1.522653 2.45452,3.119997 0.9235,1.89386 1.04938,2.46288 1.04282,4.71386 -0.007,2.4522 -0.0753,2.688 -1.61855,5.6 -0.8861,1.672 -2.07253,3.54359 -2.63651,4.15909 -1.1628,1.26903 -1.34186,1.00597 2.06994,3.0409 2.61289,1.55844 4.5621,3.26826 6.07434,5.32835 1.13893,1.55153 1.52612,1.81155 1.86969,1.25564 z m -20.47872,-8.23478 c 3.29381,-0.74282 6.21746,-2.40307 8.01354,-4.55064 0.96082,-1.14884 2.35938,-3.89934 2.59265,-5.09886 0.28045,-1.44212 -0.46861,-4.77379 -1.28567,-5.71839 -1.3342,-1.542479 -5.33735,-1.012054 -9.94698,1.31799 -5.37377,2.71631 -7.84168,5.82186 -7.8388,9.86413 0.002,2.12589 0.77847,3.44214 2.54887,4.31806 1.46513,0.72489 2.18707,0.70875 5.91639,-0.13229 z m -33.44763,-7.0774 c 2.34402,-2.45152 4.837,-8.22846 4.66442,-10.808761 -0.0347,-0.518672 -0.0856,-1.26704 -0.11316,-1.66304 -0.15458,-2.222061 -3.66688,0.790393 -4.94353,4.240001 -1.37376,3.71201 -2.14655,6.59233 -2.14655,8.00055 0,2.27487 0.53798,2.32387 2.53882,0.23125 z m 30.99003,-11.346083 c 0.27366,-0.329737 0.0965,-0.760269 -0.76417,-1.857472 -1.94109,-2.474432 -4.97498,-5.728518 -8.51512,-9.133132 -1.94057,-1.866288 -7.39245,-5.575113 -8.19526,-5.575113 -0.2972,0 -0.72022,0.288 -0.94004,0.64 -0.21983,0.352 -0.27916,0.64 -0.13184,0.64 0.41133,0 3.16931,1.860323 5.65757,3.816169 3.38603,2.661513 6.11532,5.496355 10.40781,10.810323 0.1717,0.212572 0.31219,0.507772 0.31219,0.656 0,0.14823 0.16606,0.435568 0.36903,0.638531 0.39579,0.395792 1.17127,0.122064 1.79983,-0.635306 z m 9.03114,-5.241289 c 4.16593,-1.963472 9.63385,-3.7316 16.17883,-5.231645 5.26168,-1.20592 7.8494,-1.572156 11.58117,-1.639068 1.628,-0.02918 2.96,-0.16248 2.96,-0.296205 0,-0.424013 -4.92933,-6.105712 -8.44851,-9.738022 -1.86532,-1.92528 -3.39149,-3.745872 -3.39149,-4.045763 0,-2.002128 2.65687,0.435094 11.75379,10.782086 3.09352,3.518624 4.83806,4.780339 5.58159,4.036806 0.30679,-0.306787 -2.19411,-3.347094 -7.0627,-8.586 -1.16197,-1.250358 -2.6077,-2.834358 -3.21272,-3.52 -2.80788,-3.182035 -9.01592,-9.660313 -13.18754,-13.761612 -9.45126,-9.291923 -11.35269,-11.103263 -12.91242,-12.300591 -0.88,-0.675536 -2.17442,-1.740384 -2.8765,-2.36633 -0.70208,-0.625945 -1.37702,-1.138083 -1.49988,-1.138083 -0.28213,0 0.0739,2.344166 0.3888,2.56 1.00288,0.68736 2.79539,2.121251 5.98758,4.789702 0.77153,0.644947 0.95432,1.747709 0.35146,2.120301 -0.2027,0.125274 -0.5267,0.02285 -0.72,-0.227594 -0.49523,-0.641648 -5.25156,-4.442409 -5.5593,-4.442409 -0.13979,0 -0.49889,0.414282 -0.798,0.920627 -0.2991,0.506346 -0.98549,1.39343 -1.5253,1.971296 -1.45575,1.558394 -1.23273,2.601984 0.65114,3.046969 2.07837,0.490925 2.52786,0.750733 3.05184,1.763994 0.77226,1.493389 0.55497,2.550371 -0.98204,4.777113 -0.78965,1.144 -1.77918,2.584 -2.19895,3.2 -0.41978,0.616 -2.32645,2.939853 -4.23704,5.164122 -1.91059,2.224265 -3.71394,4.48326 -4.00744,5.01999 -0.32545,0.595161 -1.10569,1.236473 -2,1.643875 -0.8065,0.367405 -1.48474,0.84441 -1.5072,1.060009 -0.0225,0.215604 -0.0834,0.752004 -0.13542,1.192004 -0.052,0.44 0.19624,1.683542 0.55167,2.763427 0.49939,1.517232 0.56679,2.111891 0.29661,2.616732 -0.31047,0.580112 0.009,1.010176 2.84917,3.83872 1.75934,1.751981 3.1988,3.346451 3.1988,3.543267 0,0.196819 0.11441,0.357853 0.25425,0.357853 0.13983,0 0.82004,0.74192 1.51156,1.64871 2.09762,2.750573 1.80059,2.687072 4.57045,0.977076 1.35506,-0.83656 3.39974,-1.96217 4.54374,-2.501357 z m -4.64,-2.473123 c -1.39845,-0.646586 -2.09032,-1.567427 -2.13839,-2.846086 -0.15939,-4.239872 8.16203,-8.364573 11.46971,-5.685219 1.35207,1.095232 2.15783,2.641891 1.90374,3.654246 -0.82636,3.292489 -7.96241,6.390195 -11.23506,4.877059 z m 4.16,-1.52168 c 2.03588,-0.520346 3.27438,-1.193187 4.47848,-2.433002 1.31417,-1.353161 1.33779,-1.480355 0.44144,-2.376707 -0.60185,-0.601853 -0.91077,-0.656448 -2.68555,-0.474617 -2.62243,0.268675 -5.48032,1.268499 -6.24416,2.184499 -0.95637,1.146873 -0.81919,2.441635 0.30895,2.91598 1.25947,0.529568 2.17103,0.574852 3.70084,0.183847 z m 0.18046,-10.49112 c -1.07098,-0.299091 -1.43507,-1.701011 -0.62246,-2.396787 0.3311,-0.283501 0.602,-0.702457 0.602,-0.931021 0,-0.22856 0.828,-0.822483 1.84,-1.31983 1.012,-0.497347 2.09005,-1.031753 2.39566,-1.187568 0.77156,-0.393376 2.6188,-0.354115 3.56216,0.07571 1.40264,0.639082 1.33462,1.56959 -0.21934,3.000992 -0.76428,0.704 -1.7381,1.440041 -2.16404,1.635645 -3.22188,1.47958 -3.73451,1.586294 -5.39398,1.122859 z m 4.34646,-2.471472 c 2.19096,-1.039974 2.68593,-1.631299 1.59472,-1.905177 -0.5638,-0.141504 -1.10531,0.0022 -1.75764,0.466816 -0.51854,0.369229 -1.05528,0.671328 -1.19277,0.671328 -0.35423,0 -1.73123,1.334141 -1.73123,1.677344 0,0.369689 1.03049,0.0658 3.08692,-0.910311 z m 4.51308,-14.327903 c -0.61114,-0.468928 -0.74222,-1.328739 -0.24904,-1.633542 0.47991,-0.296599 1.97046,0.823033 1.85991,1.397068 -0.128,0.664647 -0.90431,0.778608 -1.61087,0.236474 z m -3.52778,-3.639331 c -0.36662,-0.405114 -0.42025,-0.715174 -0.1937,-1.12 0.39843,-0.711942 0.89549,-0.711872 1.43603,2.02e-4 1.03269,1.3604 -0.10034,2.38168 -1.24233,1.119798 z m -40.0071,35.563586 -0.35497,-1.156615 -0.73272,0.916615 -0.73271,0.916614 0.71764,0.208102 c 1.41079,0.409101 1.48225,0.351767 1.10276,-0.884716 z m 15.9227,-11.929747 c -0.46434,-2.149085 -0.48879,-2.730458 -0.14928,-3.550096 0.43042,-1.039133 1.85864,-2.243542 2.66046,-2.243542 0.2641,0 0.85286,-0.635904 1.30834,-1.413123 0.45547,-0.777216 1.22516,-1.831101 1.7104,-2.341965 4.49345,-4.730691 9.68226,-11.667136 9.68226,-12.943331 0,-0.744985 -0.99279,-1.435536 -2.36588,-1.645616 -1.54681,-0.236662 -2.68188,-1.265491 -2.9453,-2.669635 -0.16435,-0.876067 -0.034,-1.278777 0.7151,-2.209692 3.12183,-3.879379 3.1422,-4.064199 0.63435,-5.754675 -0.90105,-0.607373 -2.57427,-1.73728 -3.71827,-2.510899 -1.144,-0.773623 -2.16243,-1.356397 -2.26318,-1.295053 -0.10075,0.06134 -0.0673,1.018835 0.0743,2.12776 0.14161,1.108928 0.27595,3.67223 0.29855,5.69623 0.049,4.3888 -0.52595,6.930947 -2.85868,12.639999 -1.00957,2.470803 -5.22457,10.383197 -6.47772,12.16 -0.49653,0.704 -1.29477,1.911549 -1.77387,2.683443 -0.84803,1.366253 -0.85479,1.414781 -0.25524,1.831302 0.33873,0.235325 1.30091,0.899776 2.13818,1.47656 0.83728,0.576781 2.04742,1.446554 2.68921,1.932826 0.64178,0.486275 1.23093,0.82008 1.30922,0.741795 0.0783,-0.07829 -0.10754,-1.298816 -0.41293,-2.712288 z m 12.08785,-38.348277 c -0.65762,-0.569049 -2.27567,-1.715533 -3.59567,-2.547734 -1.32,-0.832205 -2.75852,-1.842618 -3.19673,-2.245363 -1.23476,-1.134851 -1.59399,-0.963799 -1.20384,0.573238 0.25674,1.011504 0.62742,1.491421 1.64597,2.131069 3.16807,1.989526 6.62984,4.361555 6.82414,4.675945 0.1162,0.188016 0.32614,-0.08438 0.46653,-0.605334 0.22641,-0.840112 0.1201,-1.064134 -0.9404,-1.981821 z M 93.236667,134.28803 c -7.85933,-6.02369 -7.68036,-5.87671 -7.67658,-6.30429 0.005,-0.59706 2.74326,-3.42636 3.31579,-3.42636 0.27973,0 0.59174,0.33129 0.69337,0.73619 0.10162,0.4049 2.69637,3.22947 5.7661,6.2768 3.06973,3.04734 5.581333,5.64574 5.581333,5.77422 0,0.40122 -1.148033,1.2942 -1.625203,1.26415 -0.25014,-0.0158 -2.9748,-1.96008 -6.05481,-4.32071 z M 174.05061,59.358328 c -0.14826,-0.386381 0.0635,-0.794838 0.68577,-1.32239 0.49516,-0.419831 1.60262,-1.356253 2.46101,-2.080938 0.8584,-0.724685 2.0104,-1.720758 2.56,-2.213497 0.54961,-0.492736 1.79128,-1.500736 2.75928,-2.24 0.968,-0.739261 2.77721,-2.208112 4.02046,-3.264112 1.24325,-1.056 2.61656,-2.208 3.0518,-2.56 1.97369,-1.59624 6.86562,-5.768057 7.02751,-5.99304 0.0989,-0.137401 0.62098,-0.575334 1.16024,-0.973187 0.93672,-0.691091 4.12367,-3.381148 5.20536,-4.393772 0.28201,-0.264 1.30067,-1.126021 2.26368,-1.915601 0.96302,-0.789581 1.82295,-1.524023 1.91095,-1.632095 0.95744,-1.17582 2.86253,-0.921148 4.15952,0.556044 1.37624,1.567446 1.30014,2.733053 -0.23952,3.66866 -0.66,0.401065 -1.272,0.808809 -1.36,0.906099 -0.17135,0.189446 -6.41534,4.442726 -7.30627,4.976892 -0.29355,0.176 -0.60573,0.407181 -0.69373,0.513735 -0.26598,0.322064 -4.50552,3.166265 -4.7196,3.166265 -0.10953,0 -0.49643,0.267539 -0.85977,0.594531 -0.36335,0.326992 -2.53263,1.867293 -4.82063,3.42289 -2.288,1.5556 -4.208,2.94406 -4.26666,3.085472 -0.0587,0.141408 -0.23827,0.257107 -0.3991,0.257107 -0.16085,0 -1.1372,0.612 -2.1697,1.36 -1.03249,0.748 -2.14889,1.541532 -2.48089,1.763404 -0.33201,0.221872 -2.08141,1.409872 -3.88756,2.64 -1.80616,1.230128 -3.41075,2.236595 -3.56576,2.236595 -0.15502,0 -0.37839,-0.251577 -0.49639,-0.559062 z M 163.52295,46.717391 c 0.13423,-0.22 1.33073,-1.695283 2.65889,-3.278406 1.32816,-1.583127 2.63083,-3.148787 2.89483,-3.479251 0.264,-0.330464 0.71032,-0.835181 0.99181,-1.121594 0.4362,-0.443808 4.57361,-5.360719 10.9397,-13.000748 0.87992,-1.056 1.69249,-1.992 1.80571,-2.08 0.11323,-0.088 1.13148,-1.312 2.26278,-2.72 1.1313,-1.408 2.13835,-2.632 2.23788,-2.72 0.0995,-0.088 1.32711,-1.528 2.72795,-3.2 1.40083,-1.672 2.81445,-3.327999 3.14137,-3.68 0.32693,-0.351999 1.24163,-1.4576131 2.03268,-2.456919 1.6682,-2.10739 2.1599,-2.3747695 3.16094,-1.7188649 1.77276,1.1615529 1.36829,2.1260255 -2.70871,6.4591429 -1.30235,1.384152 -3.18203,3.380641 -4.17709,4.436641 -3.80858,4.041841 -12.5152,13.330677 -16.65502,17.768758 -10.18507,10.918873 -10.45448,11.191241 -11.06992,11.191241 -0.3071,0 -0.39743,-0.148195 -0.2438,-0.4 z M 150.19667,36.447919 c 0,-0.306611 0.95612,-2.315411 2.12469,-4.464001 1.16859,-2.148589 2.6263,-4.842526 3.23937,-5.986526 0.61307,-1.144 1.58125,-2.944 2.15152,-4 0.57026,-1.056 1.65344,-3.072 2.40705,-4.48 2.79604,-5.223898 4.99117,-9.017886 5.84358,-10.09983 0.66581,-0.8450895 1.51161,-0.9776418 2.50267,-0.3922112 0.65014,0.3840477 0.93112,0.8022691 0.93112,1.3858925 0,1.3909516 -3.79846,7.2381807 -13.91881,21.4261487 -5.48959,7.695996 -5.28119,7.435132 -5.28119,6.610527 z"
       id="path2869" />
  </g>
</svg>
