<?xml version="1.0" encoding="UTF-8" standalone="no"?>
<!-- Created with Inkscape (http://www.inkscape.org/) -->

<svg
   version="1.1"
   id="svg2736"
   width="268.79999"
   height="268.79999"
   viewBox="0 0 268.79999 268.79999"
   sodipodi:docname="honk.jpg"
   xmlns:inkscape="http://www.inkscape.org/namespaces/inkscape"
   xmlns:sodipodi="http://sodipodi.sourceforge.net/DTD/sodipodi-0.dtd"
   xmlns="http://www.w3.org/2000/svg"
   xmlns:svg="http://www.w3.org/2000/svg">
  <defs
     id="defs2740" />
  <sodipodi:namedview
     id="namedview2738"
     pagecolor="#ffffff"
     bordercolor="#000000"
     borderopacity="0.25"
     inkscape:showpageshadow="2"
     inkscape:pageopacity="0.0"
     inkscape:pagecheckerboard="0"
     inkscape:deskcolor="#d1d1d1"
     showgrid="false" />
  <g
     inkscape:groupmode="layer"
     inkscape:label="Image"
     id="g2742">
    <path
       style="fill:#d4aa00;stroke-width:0.32"
       d="m 67.922656,266.45924 c -0.538453,-0.39373 -0.516686,-0.45867 0.33884,-1.01092 2.4487,-1.58068 6.89072,-5.15175 8.745,-7.03038 1.13892,-1.15387 2.22673,-2.09795 2.41735,-2.09795 0.58053,0 3.3519,-1.88084 3.3519,-2.27482 0,-0.24851 -0.39165,-0.30367 -1.2,-0.16899 -6.91143,1.15146 -12.44657,0.89093 -20.56,-0.96773 -10.228211,-2.34312 -12.792006,-3.55458 -23.679999,-11.18943 -3.703978,-2.59729 -6.32859,-4.91628 -8.584781,-7.58512 -1.21536,-1.43765 -2.696977,-3.1372 -3.292482,-3.77679 -1.895485,-2.03578 -4.932515,-5.82072 -6.188938,-7.71302 -0.668705,-1.00715 -1.351063,-1.74759 -1.516352,-1.64544 -0.165288,0.10215 -0.378952,-0.11418 -0.474809,-0.48073 -0.165283,-0.63204 -0.240494,-0.6098 -1.455985,0.43062 -0.704935,0.60339 -1.708072,1.19073 -2.229192,1.30519 -2.161194,0.47467 -4.5509885,-0.73846 -5.3753765,-2.7287 -0.380182,-0.91784 -0.335351,-1.03907 0.866346,-2.34276 0.697,-0.75616 1.8652425,-2.38136 2.5960925,-3.61156 1.238684,-2.08502 1.33835,-2.43121 1.469322,-5.10373 0.07728,-1.57684 0.289707,-5.09899 0.472069,-7.82699 0.182361,-2.728 0.480378,-8.272 0.66226,-12.32 0.868441,-19.32819 1.432037,-25.79034 2.567608,-29.44 2.499802,-8.03421 3.13036,-9.66334 5.511622,-14.24 4.466955,-8.58523 8.493597,-14.09691 13.573332,-18.57921 4.92223,-4.34332 9.076748,-7.01636 15.039513,-9.67651 5.992108,-2.67324 7.177904,-2.85758 18.67975,-2.90378 10.02477,-0.0403 10.38159,-0.0121 13.9085,1.09727 0.86804,0.27305 1.27519,0.0763 4.8,-2.31964 3.93912,-2.67756 7.88561,-5.7322 9.62918,-7.45314 1.59701,-1.57627 6.542324,-8.825988 6.542324,-9.590897 0,-0.572352 2.89334,-5.058704 4.62644,-7.173654 1.06346,-1.29776 2.76079,-3.45776 3.77186,-4.8 3.44378,-4.571763 9.35165,-8.68423 14.07556,-9.797987 2.62554,-0.619021 7.37838,-0.601875 9.04614,0.03263 1.33564,0.508156 1.68195,0.609472 3.09533,0.905555 1.93457,0.405264 3.75116,2.774073 4.4216,5.765708 0.41668,1.85928 -0.31019,6.814903 -1.49469,10.190426 -0.44452,1.266777 -1.5883,5.327231 -2.54174,9.023231 -0.95344,3.696008 -1.87427,7.224008 -2.04628,7.840008 -0.5177,1.8539 -1.51376,9.44078 -1.93255,14.72 -0.25699,3.23957 -0.32503,7.73488 -0.19618,12.95999 0.25419,10.30727 0.91099,14.03063 2.76595,15.68 0.63553,0.5651 1.13694,0.63497 4.28416,0.59703 2.83573,-0.0342 4.57837,-0.27608 8.52439,-1.18321 8.09064,-1.85992 9.90972,-2.40163 21.12,-6.28942 9.18348,-3.18488 10.56101,-3.57627 12.8,-3.63681 2.18928,-0.0592 3.47598,0.75837 4.48991,2.85288 0.97385,2.01171 0.80804,6.60646 -0.31684,8.77953 -1.92463,3.71806 -3.41491,4.80098 -13.04902,9.48216 -15.74363,7.64977 -18.04006,8.84851 -22.41238,11.69927 -6.73231,4.3895 -12.64181,8.48337 -15.39779,10.66699 -2.81125,2.22742 -6.83609,5.23186 -8.11542,6.05797 -1.05712,0.68262 -6.76725,7.18832 -7.39267,8.42265 -0.78861,1.55643 -2.39241,6.24916 -3.03176,8.87096 -0.34335,1.408 -1.01696,3.856 -1.49691,5.44 -0.47995,1.584 -1.13686,3.82378 -1.4598,4.97728 -1.01062,3.60981 -2.40434,7.0709 -4.11046,10.20772 -0.90492,1.66375 -1.83154,3.24775 -2.05915,3.52 -0.22761,0.27225 -1.11252,1.647 -1.96647,3.055 -1.85235,3.0542 -6.91895,8.37578 -11.521234,12.10107 -1.76,1.42462 -5.144,4.44699 -7.52,6.71636 -6.16559,5.88892 -13.46559,11.85445 -16.14283,13.19187 -1.77529,0.88684 -4.47211,1.07057 -5.43026,0.36995 z m 16.45309,-23.1093 c 2.77245,-0.65789 5.01881,-1.57094 8.64,-3.51179 3.03415,-1.62622 6.4,-4.29201 6.4,-5.06889 0,-0.16213 0.702174,-0.98597 1.560394,-1.83075 1.79241,-1.76436 4.3009,-5.23931 5.02526,-6.96136 2.04093,-4.85193 3.30866,-10.26749 4.32065,-18.45716 0.34798,-2.816 0.71491,-5.64923 0.8154,-6.29606 0.1771,-1.13984 0.14477,-1.18717 -1.04949,-1.53648 -4.38291,-1.28196 -12.861384,-1.64877 -18.992214,-0.82167 -1.848,0.24931 -5.88348,0.95737 -8.96773,1.57347 -3.08426,0.6161 -8.19626,1.50689 -11.36,1.97954 -5.170696,0.77247 -6.334626,0.84113 -11.51227,0.67912 -5.202835,-0.1628 -6.177875,-0.28807 -10.08,-1.29503 -2.376,-0.61313 -7.469526,-2.13471 -11.31895,-3.38128 -3.849421,-1.24658 -7.593421,-2.35866 -8.319998,-2.4713 -0.726578,-0.11265 -1.605092,-0.39955 -1.952253,-0.63756 -0.840827,-0.57647 -3.33108,-0.54955 -4.769718,0.0516 -1.07431,0.44887 -1.158885,0.58344 -1.156421,1.84 0.0026,1.30907 0.679903,6.55322 1.229052,9.5157 1.108034,5.97748 5.118457,12.3764 12.643553,20.17367 3.5432,3.67136 6.323692,6.01953 10.816367,9.13462 3.534682,2.45084 9.020784,4.87223 12.955286,5.71805 1.206195,0.2593 2.68865,0.61831 3.294346,0.79779 1.441142,0.42705 6.189726,1.26026 8.018736,1.40701 2.73905,0.21977 12.00673,-0.18515 13.76,-0.60119 z m -14.56,-46.98656 c 1.584,-0.27275 4.176,-0.71621 5.76,-0.98547 1.584,-0.26927 4.68,-0.85089 6.88,-1.2925 11.75757,-2.36011 20.611354,-2.54923 28.131624,-0.60091 1.6564,0.42913 3.12475,0.66667 3.26302,0.52787 0.13826,-0.13881 0.6818,-1.10624 1.20787,-2.14985 l 0.95648,-1.89747 -2.89352,-0.74954 c -3.26353,-0.8454 -6.4312,-2.12635 -8.63582,-3.49219 -3.65765,-2.26606 -9.977684,-7.7565 -12.090674,-10.5036 -1.59069,-2.06807 -3.6714,-7.29374 -4.1922,-10.52863 -0.39174,-2.43331 -0.2714,-9.58021 0.21762,-12.92339 0.17916,-1.22486 0.12433,-1.38022 -0.58184,-1.64871 -0.4288,-0.16303 -4.58729,-0.46521 -9.2411,-0.67152 -5.0104,-0.22212 -9.23717,-0.56493 -10.36337,-0.84053 -2.107044,-0.51562 -3.833918,-1.66231 -4.621185,-3.06859 -0.284297,-0.50783 -0.999881,-1.45616 -1.590182,-2.1074 -0.97711,-1.07797 -1.061261,-1.32773 -0.939146,-2.78751 0.150359,-1.79739 0.682423,-2.72368 4.413389,-7.68344 1.323955,-1.76 2.981354,-4.04746 3.683114,-5.08323 0.70176,-1.03577 2.06066,-2.58377 3.0198,-3.44 l 1.74387,-1.55677 h -2.47649 c -6.212937,0 -15.60398,1.8907 -19.866869,3.99981 -7.439255,3.68065 -11.695414,7.79263 -19.13585,18.48762 -1.879364,2.70142 -5.192238,10.22657 -5.948781,13.51256 -0.202604,0.88 -0.721808,3.112 -1.153787,4.96 -0.431979,1.848 -0.876227,3.936 -0.987217,4.64 -0.110991,0.704 -0.516116,2.648 -0.900278,4.32 -0.596378,2.59564 -0.689925,3.88127 -0.639977,8.79524 0.03218,3.16537 0.143393,6.20774 0.247149,6.76081 l 0.188649,1.00558 3.752851,0.1629 c 4.019004,0.17445 4.033275,0.17797 14.472851,3.57331 5.775302,1.87835 10.68727,3.1766 13.962255,3.69027 2.630973,0.41265 10.9183,0.16751 14.357744,-0.42472 z m -22.983302,-9.33372 c -4.798409,-0.9044 -9.212995,-3.60481 -12.646144,-7.73565 -0.907804,-1.09229 -1.650553,-2.07858 -1.650553,-2.19177 0,-0.11318 -0.501114,-1.01948 -1.113586,-2.01401 -0.612473,-0.99453 -1.491978,-2.88824 -1.954455,-4.20824 -0.747742,-2.13419 -0.825494,-2.75547 -0.702051,-5.60971 0.110365,-2.55182 0.303737,-3.56847 0.943419,-4.96 2.310457,-5.02605 5.567354,-8.35477 10.622439,-10.85669 4.124515,-2.04135 7.249433,-2.72778 11.244233,-2.46996 2.955958,0.19078 7.173331,0.96831 8.18296,1.50865 0.312342,0.16716 1.289805,0.45875 2.172134,0.64798 2.125258,0.45579 3.638317,2.10355 5.580845,6.07768 4.781021,9.7813 3.271031,19.6166 -4.140544,26.9693 -2.297734,2.27948 -4.491027,3.52692 -7.691785,4.37471 -3.392711,0.89863 -5.866704,1.02943 -8.846912,0.46771 z m 7.356499,-6.43836 c 2.462345,-0.61852 4.031926,-1.72034 6.366489,-4.46917 2.477981,-2.9177 3.99977,-7.62306 3.513709,-10.86435 l -0.217302,-1.44908 -1.201268,1.85565 c -2.149232,3.32001 -5.436524,4.90269 -10.688473,5.146 -3.482006,0.16131 -5.128374,-0.16227 -7.906352,-1.55397 -3.080559,-1.54328 -5.70391,-4.91124 -6.417635,-8.23921 l -0.362076,-1.68832 -0.960547,1.51463 c -1.142816,1.80203 -1.718084,4.53182 -1.400845,6.64733 0.256083,1.70768 2.160601,5.54068 3.884195,7.81726 3.616333,4.77658 9.443491,6.77698 15.390105,5.28323 z m -2.933197,-21.86195 c 2.535734,-0.58516 3.738662,-3.04787 2.507114,-5.13272 -0.767325,-1.29897 -1.690941,-1.59664 -4.95417,-1.59664 -2.867897,0 -2.907852,0.0109 -3.984944,1.088 -1.179958,1.17996 -1.335107,1.98593 -0.640761,3.32865 1.175097,2.27239 3.687481,3.09391 7.072761,2.31271 z m 65.920004,10.12683 c 2.56377,-1.54381 3.55764,-2.0833 12.24829,-6.6486 l 7.44829,-3.91267 -1.60683,-0.8787 c -3.59194,-1.96426 -6.58614,-4.87542 -7.98359,-7.76215 -1.54025,-3.18175 -1.72354,-9.43614 -0.51859,-17.69558 2.33696,-16.01883 2.67105,-18.06416 3.55451,-21.76104 0.55394,-2.31797 1.98121,-10.06196 3.17698,-17.237443 1.67162,-10.030899 0.35596,-12.989219 -4.72385,-10.621811 -3.31073,1.54294 -4.24318,2.490172 -5.96396,6.05855 -0.87082,1.805792 -1.97311,4.723261 -2.44954,6.48326 -0.47643,1.76 -1.55953,5.648004 -2.40689,8.640004 -1.59935,5.64726 -2.90754,10.83499 -4.11543,16.32 -0.38758,1.76 -1.25942,5.504 -1.93742,8.32 -0.678,2.816 -1.47144,6.55999 -1.7632,8.31999 -0.29176,1.76 -0.72713,4.064 -0.96749,5.12 -0.56485,2.48168 -1.35797,9.50692 -1.62848,14.42476 -0.22313,4.05652 0.1843,8.2285 0.99023,10.13959 0.56327,1.33567 2.57752,3.67418 3.81065,4.42409 1.08255,0.65833 0.54895,0.84945 4.83632,-1.73225 z M 97.269416,149.27999 c 2.941564,-5.87321 4.622744,-10.83326 6.507724,-19.19999 0.79305,-3.52 2.21844,-9.568 3.16754,-13.44 0.9491,-3.872 2.16876,-9.632 2.71035,-12.8 0.54159,-3.168 1.1117,-6.228004 1.26691,-6.800004 0.15522,-0.572 0.2286,-1.04 0.16308,-1.04 -0.0655,0 -0.79391,1.306474 -1.61863,2.903277 -1.92328,3.723837 -6.12461,9.531897 -8.02051,11.087837 -0.81015,0.66489 -2.210364,1.83197 -3.111574,2.59351 -0.90121,0.76155 -3.4828,2.63355 -5.73687,4.16 -8.14134,5.51332 -9.05051,6.13697 -10.91281,7.48574 -1.04012,0.7533 -3.43052,3.11339 -5.312,5.24464 -2.77074,3.13857 -3.8253,4.63736 -5.54888,7.88635 -1.1704,2.20623 -2.128,4.23973 -2.128,4.51889 0,0.27916 0.324,0.57155 0.72,0.64975 1.71157,0.33801 9.00154,0.83703 12.1787,0.83367 6.27819,-0.007 9.48267,0.82092 11.23289,2.90093 1.3336,1.58489 1.78841,3.02628 1.78841,5.66782 0,1.32784 0.0562,2.35425 0.12481,2.28092 0.0686,-0.0733 1.20664,-2.29334 2.52886,-4.93334 z m -6.00414,-14.43019 c -2.52144,-0.92306 -3.97039,-3.17235 -3.53582,-5.48885 0.17335,-0.92399 1.0539,-2.00848 4.3674,-5.37886 2.28265,-2.32184 4.61121,-4.93147 5.17458,-5.79917 1.88176,-2.8983 5.195254,-5.42836 6.253054,-4.7746 1.06739,0.65968 -6.511834,18.01786 -9.101984,20.84565 -1.12295,1.22598 -1.32945,1.26495 -3.15723,0.59583 z m 68.316054,-26.6098 -0.96452,-0.88 3.08662,-3.2 c 7.27618,-7.543444 12.31588,-12.755907 16.24321,-16.800003 2.30739,-2.376 7.64987,-7.906182 11.87218,-12.289293 4.22231,-4.383113 8.68492,-9.008012 9.91692,-10.277554 1.232,-1.269543 5.192,-5.381847 8.8,-9.138454 3.608,-3.756608 9.0238,-9.347597 12.03512,-12.424422 l 5.47511,-5.594227 2.11431,-0.134631 c 1.82522,-0.116221 2.30218,-0.02454 3.48833,0.670599 2.49325,1.461145 3.54776,4.875951 2.37355,7.686236 -0.2413,0.57751 -2.19256,2.679917 -4.4,4.740822 -12.26385,11.449773 -15.48327,14.381984 -18.52642,16.873641 -1.848,1.513101 -4.728,3.916464 -6.4,5.340813 -1.672,1.424345 -5.39525,4.52399 -8.27389,6.888096 -2.87863,2.364105 -7.94174,6.530374 -11.25134,9.258374 -3.3096,2.728 -8.73035,7.172921 -12.04611,9.877603 -3.31576,2.70468 -6.17266,5.08505 -6.34866,5.28972 -0.52404,0.60939 -5.82158,4.99268 -6.03403,4.99268 -0.10773,0 -0.6299,-0.396 -1.16038,-0.88 z m 40.38709,-4.29533 c -0.28964,-0.28963 1.31139,-0.92427 6.89505,-2.73317 3.99975,-1.295766 8.58049,-2.707932 10.17942,-3.138144 1.59894,-0.430214 6.27893,-1.871366 10.4,-3.202563 4.12107,-1.331196 8.78885,-2.76295 10.37285,-3.181673 1.584,-0.418727 6.264,-1.86289 10.4,-3.209254 4.136,-1.346365 8.59506,-2.719328 9.90903,-3.051028 2.25566,-0.569424 2.4228,-0.572547 2.99405,-0.05597 2.36935,2.142618 2.3752,6.982058 0.011,9.072346 -0.35491,0.313785 -1.94666,0.737539 -3.95405,1.05264 -4.91539,0.771568 -32.44943,4.990996 -48.32,7.404756 -4.136,0.62905 -7.74277,1.20573 -8.01505,1.2815 -0.27228,0.0758 -0.6648,-0.032 -0.87228,-0.23944 z M 159.57574,80.642224 c -0.40187,-0.257849 0.0189,-1.285654 2.58522,-6.3151 3.83412,-7.513974 9.64056,-18.803078 11.73063,-22.807126 4.36419,-8.360668 6.0446,-11.606099 9.36142,-18.079999 1.98377,-3.872 4.50498,-8.768 5.60268,-10.88 1.0977,-2.112 2.69877,-5.195337 3.55793,-6.85186 1.90051,-3.664284 3.0938,-5.016273 4.69211,-5.316119 1.72596,-0.323792 2.78138,0.05474 4.14272,1.485798 1.56327,1.643343 1.5819,2.705602 0.0873,4.978762 -0.616,0.936881 -1.60379,2.459419 -2.19509,3.383419 -0.5913,0.924 -1.86474,2.904 -2.82986,4.4 -0.96513,1.496 -4.17685,6.536 -7.13716,11.2 -8.22951,12.965644 -9.34482,14.707577 -12.70304,19.839999 -5.06396,7.739308 -14.55044,22.565593 -15.45485,24.15414 -0.70167,1.232448 -0.7427,1.255478 -1.44,0.808086 z"
       id="path2746" />
  </g>
</svg>
