<?xml version="1.0" encoding="UTF-8" standalone="no"?>
<!-- Created with Inkscape (http://www.inkscape.org/) -->

<svg
   width="200"
   height="200"
   viewBox="0 0 52.916665 52.916666"
   version="1.1"
   id="svg5"
   xml:space="preserve"
   inkscape:export-filename="merch-Off.svg"
   inkscape:export-xdpi="23.040001"
   inkscape:export-ydpi="23.040001"
   xmlns:inkscape="http://www.inkscape.org/namespaces/inkscape"
   xmlns:sodipodi="http://sodipodi.sourceforge.net/DTD/sodipodi-0.dtd"
   xmlns="http://www.w3.org/2000/svg"
   xmlns:svg="http://www.w3.org/2000/svg"><sodipodi:namedview
     id="namedview7"
     pagecolor="#ffffff"
     bordercolor="#000000"
     borderopacity="0.25"
     inkscape:showpageshadow="2"
     inkscape:pageopacity="0.0"
     inkscape:pagecheckerboard="0"
     inkscape:deskcolor="#d1d1d1"
     inkscape:document-units="mm"
     showgrid="false" /><defs
     id="defs2"><linearGradient
       id="linearGradient883"
       inkscape:swatch="gradient"><stop
         style="stop-color:#000000;stop-opacity:1;"
         offset="0"
         id="stop879" /><stop
         style="stop-color:#000000;stop-opacity:0;"
         offset="1"
         id="stop881" /></linearGradient></defs><g
     inkscape:label="Layer 1"
     inkscape:groupmode="layer"
     id="layer1"><path
       style="font-variation-settings:normal;opacity:1;fill:none;fill-opacity:1;fill-rule:evenodd;stroke:#ffcc00;stroke-width:2.652;stroke-linecap:butt;stroke-linejoin:miter;stroke-miterlimit:4;stroke-dasharray:none;stroke-dashoffset:0;stroke-opacity:1;stop-color:#000000;stop-opacity:1"
       id="path943"
       sodipodi:type="arc"
       sodipodi:cx="26.549307"
       sodipodi:cy="26.49268"
       sodipodi:rx="24.503363"
       sodipodi:ry="24.726454"
       sodipodi:start="0.086039185"
       sodipodi:end="0.083606993"
       sodipodi:open="true"
       sodipodi:arc-type="arc"
       d="M 50.962029,28.6175 A 24.503363,24.726454 0 0 1 24.458502,51.128955 24.503363,24.726454 0 0 1 2.1340417,24.39782 24.503363,24.726454 0 0 1 28.61042,1.8538562 24.503363,24.726454 0 0 1 50.967079,28.557576" /><path
       style="fill:#ffcc00;stroke-width:4.54243;stroke-dasharray:none"
       d="m 24.70761,39.499029 c -1.830755,-0.08403 -3.458774,-0.29281 -4.796291,-0.615074 -0.452057,-0.108919 -1.232282,-0.361136 -1.520773,-0.491606 -0.309547,-0.139994 -0.358368,-0.19585 -0.390024,-0.446234 -0.02872,-0.227202 -0.06732,-6.16408 -0.06254,-9.61935 0.0017,-1.256352 -0.0069,-2.284294 -0.01923,-2.284316 -0.212351,-3.84e-4 -1.048125,-0.138194 -1.607345,-0.265033 -0.988441,-0.224192 -2.437819,-0.719268 -2.824595,-0.964819 -0.263657,-0.167387 -0.271872,-0.353909 -0.08761,-1.988679 0.437446,-3.880891 1.281486,-6.751809 2.253501,-7.665063 0.748949,-0.703674 2.608761,-1.515725 5.06883,-2.213206 0.910435,-0.258128 1.213132,-0.322574 1.407235,-0.299613 0.08795,0.01041 0.695941,0.10472 1.351088,0.209588 1.806544,0.289171 1.798396,0.288291 2.684012,0.289896 0.883592,0.0016 0.855961,0.0044 2.695824,-0.282996 1.398904,-0.218593 1.50234,-0.224014 1.982579,-0.103923 1.600243,0.400165 3.100576,0.91607 4.248945,1.461042 1.024237,0.486064 1.573483,0.872707 1.889624,1.330204 0.806947,1.167761 1.483272,3.630981 1.855052,6.756236 0.123807,1.040751 0.216893,2.056131 0.198883,2.169444 -0.02085,0.13126 -0.115701,0.288855 -0.220895,0.367062 -0.271422,0.20179 -1.318703,0.579417 -2.356644,0.849755 -0.622128,0.162038 -1.117038,0.259913 -1.659912,0.328271 -0.22786,0.02869 -0.418027,0.05573 -0.422592,0.06007 -0.0046,0.0043 -0.02698,2.477287 -0.04983,5.495425 -0.02284,3.018138 -0.05345,5.739856 -0.06804,6.048263 l -0.02651,0.560741 -0.08141,0.06346 c -0.119444,0.09308 -0.498395,0.261619 -0.842901,0.374878 -1.350945,0.444128 -3.083368,0.726902 -5.241647,0.855564 -0.635448,0.03788 -2.699494,0.05019 -3.356776,0.02003 z m 2.497606,-1.132097 c 2.148452,-0.0311 3.956021,-0.27193 5.557253,-0.740411 l 0.359107,-0.105067 0.0068,-0.436882 c 0.0038,-0.240285 0.02711,-3.641012 0.05195,-7.55717 0.02482,-3.91616 0.05766,-7.441301 0.07298,-7.833647 0.02953,-0.756073 0.06002,-0.940613 0.242624,-1.467537 0.314737,-0.908279 0.824288,-1.708784 1.205588,-1.893986 0.286267,-0.139044 0.655787,-0.0043 0.781618,0.285051 0.09503,0.218494 0.03049,0.401419 -0.283626,0.803952 -0.228387,0.292678 -0.409863,0.633281 -0.551319,1.034755 -0.23835,0.676465 -0.263056,0.929234 -0.296178,3.030138 l -0.02304,1.461074 0.08342,1.48e-4 c 0.169231,2.94e-4 0.816322,-0.112966 1.327246,-0.232307 0.556139,-0.129904 1.294846,-0.349076 1.772441,-0.525879 l 0.28733,-0.106368 0.0101,-0.147709 c 0.03623,-0.529853 -0.379029,-3.418714 -0.677738,-4.714924 -0.288587,-1.252285 -0.580089,-2.132007 -0.905979,-2.734135 -0.330133,-0.60997 -1.126416,-1.119899 -2.657443,-1.701797 -0.761463,-0.28941 -2.427098,-0.813562 -2.744026,-0.863509 -0.10328,-0.01628 -0.105199,-0.0148 -0.22203,0.170832 -0.23611,0.375154 -0.658671,0.779599 -1.097414,1.050366 -0.626798,0.386823 -1.553618,0.683497 -2.485165,0.795498 -0.369343,0.04441 -1.35649,0.04233 -1.708364,-0.0036 -0.872522,-0.113892 -1.665985,-0.357256 -2.278278,-0.698773 -0.503767,-0.280986 -0.990633,-0.707195 -1.258425,-1.101645 -0.09108,-0.134161 -0.169403,-0.219546 -0.210492,-0.229482 -0.129336,-0.03127 -1.880904,0.509242 -2.852945,0.880384 -1.296623,0.495076 -2.16227,1.005668 -2.491303,1.469471 -0.320776,0.452161 -0.700567,1.499115 -0.990241,2.729755 -0.310269,1.318141 -0.64626,3.461698 -0.74486,4.752067 -0.02436,0.318888 -0.05904,0.285696 0.509889,0.488046 0.924534,0.328823 2.028927,0.597233 2.797935,0.680003 l 0.179413,0.01931 2.84e-4,-0.654364 c 6.19e-4,-1.207252 -0.04452,-2.611105 -0.09368,-2.918238 -0.0617,-0.385807 -0.215231,-0.945926 -0.342334,-1.249088 -0.1354,-0.322953 -0.262115,-0.538291 -0.458323,-0.778869 -0.210533,-0.258141 -0.311493,-0.469459 -0.291473,-0.610086 0.03635,-0.255339 0.288203,-0.464003 0.55945,-0.463512 0.282315,5.12e-4 0.51928,0.177269 0.821003,0.6124 0.422074,0.608693 0.776665,1.50259 0.846714,2.134504 0.05359,0.483429 0.07643,2.974981 0.08426,9.192154 0.0043,3.403107 0.01525,6.440121 0.02435,6.748923 l 0.01654,0.561457 0.172172,0.05134 c 1.505312,0.448832 2.627416,0.635501 4.721594,0.78547 0.292073,0.02091 2.005296,0.06015 2.196377,0.05028 0.06317,-0.0033 0.502484,-0.01153 0.976248,-0.01839 z M 26.898433,14.822757 c 0.178508,-0.02218 0.457769,-0.07105 0.62058,-0.108575 0.499472,-0.115119 1.27462,-0.444249 1.559515,-0.662173 l 0.127234,-0.09732 -0.09427,0.01689 c -0.426483,0.07643 -2.006076,0.274153 -2.52216,0.315715 -0.571408,0.04602 -1.329448,-0.01973 -2.751093,-0.238615 -0.359495,-0.05535 -0.659929,-0.09463 -0.667633,-0.0873 -0.05064,0.04822 0.743767,0.464255 1.152892,0.603771 0.292534,0.09976 0.772703,0.210838 1.095831,0.253508 0.385634,0.05092 1.086797,0.05287 1.479103,0.0041 z"
       id="path2843" /><path
       sodipodi:type="spiral"
       style="fill:none;fill-rule:evenodd;stroke:#ffeeaa;stroke-width:0.865;stroke-dasharray:none"
       id="path4912"
       sodipodi:cx="24.570271"
       sodipodi:cy="20.203432"
       sodipodi:expansion="1"
       sodipodi:revolution="2.9880757"
       sodipodi:radius="4.7975073"
       sodipodi:argument="-17.771271"
       sodipodi:t0="0"
       d="m 24.570271,20.203432 c 0.11419,0.212797 -0.230509,0.258913 -0.353683,0.189792 -0.333793,-0.187313 -0.25312,-0.662885 -0.0259,-0.897156 0.40644,-0.419056 1.090635,-0.276182 1.440631,0.137988 0.513632,0.60781 0.301796,1.524863 -0.301878,1.984104 -0.804601,0.612097 -1.96148,0.328611 -2.527579,-0.465767 -0.712378,-0.999643 -0.356068,-2.399257 0.629657,-3.071053 1.193846,-0.813636 2.837691,-0.383903 3.614528,0.793547 0.915475,1.387584 0.411975,3.276535 -0.957437,4.158002 -1.58104,1.017687 -3.715654,0.440205 -4.701476,-1.121327 -1.120153,-1.774312 -0.468546,-4.154966 1.285217,-5.244951 1.967456,-1.222798 4.594417,-0.496966 5.788424,1.449107 1.252858,2.04199 0.615069,4.755746 -1.311988,6.133371"
       transform="matrix(0.80109605,0,0,0.7947386,6.0517536,6.7275783)" /></g></svg>
