<?xml version="1.0" encoding="UTF-8" standalone="no"?>
<!-- Created with Inkscape (http://www.inkscape.org/) -->

<svg
   version="1.1"
   id="svg817"
   width="64"
   height="64"
   viewBox="0 0 64 64"
   sodipodi:docname="redpill.jpg"
   xmlns:inkscape="http://www.inkscape.org/namespaces/inkscape"
   xmlns:sodipodi="http://sodipodi.sourceforge.net/DTD/sodipodi-0.dtd"
   xmlns="http://www.w3.org/2000/svg"
   xmlns:svg="http://www.w3.org/2000/svg">
  <defs
     id="defs821" />
  <sodipodi:namedview
     id="namedview819"
     pagecolor="#ffffff"
     bordercolor="#000000"
     borderopacity="0.25"
     inkscape:showpageshadow="2"
     inkscape:pageopacity="0.0"
     inkscape:pagecheckerboard="0"
     inkscape:deskcolor="#d1d1d1"
     showgrid="false" />
  <g
     inkscape:groupmode="layer"
     inkscape:label="Image"
     id="g823">
    <g
       id="g2146"
       transform="matrix(-1.0669251,0.55871205,-0.56729416,-1.0507846,89.469566,47.246724)">
      <g
         id="g2138"
         transform="matrix(0.98549643,0,0,0.9860316,0.3644078,0.82587703)">
        <path
           style="fill:#502d16;stroke-width:0.330356"
           d="m 30.767968,58.756738 c -1.902493,-0.667172 -3.527707,-1.96459 -4.58559,-3.66071 l -0.943375,-1.512524 -0.09476,-20.457528 c -0.0614,-13.255284 0.0281,-20.887548 0.254209,-21.678967 0.510242,-1.7859015 2.134696,-3.7160808 3.994716,-4.7465271 1.508661,-0.8357937 1.898127,-0.9034083 5.203717,-0.9034083 3.292014,0 3.699218,0.069923 5.177837,0.889115 1.812616,1.0042312 3.192989,2.5478917 3.864683,4.3218404 0.667404,1.762624 0.667404,41.054038 0,42.816662 -0.670439,1.770637 -2.051747,3.317783 -3.847855,4.309832 -1.357698,0.749901 -2.034604,0.891088 -4.667407,0.973528 -2.03277,0.06365 -3.513357,-0.05575 -4.356173,-0.351313 z m 7.161056,-2.652853 c 1.703253,-0.932159 3.328363,-2.905671 3.82547,-4.645601 0.226052,-0.791212 0.316015,-7.782244 0.254208,-19.754682 L 41.913039,13.173502 40.9545,11.636587 C 39.211642,8.8420969 35.888223,7.2085574 33.288182,7.8684069 c -1.906819,0.483921 -3.953071,2.0111083 -5.04892,3.7681801 l -0.95854,1.536915 V 32.41636 51.659218 l 0.943376,1.512524 c 1.601642,2.567936 4.67539,4.272777 7.053358,3.912118 0.655052,-0.09935 1.848256,-0.540339 2.651568,-0.979975 z"
           id="path827" />
        <rect
           style="fill:#d40000;stroke-width:1.03236"
           id="rect935"
           width="15.028351"
           height="50.121807"
           x="27.200125"
           y="7.2676711"
           ry="6.3035893" />
        <rect
           style="fill:#f4d7d7;stroke-width:1.03236"
           id="rect1043"
           width="1.6372874"
           height="33.203892"
           x="28.853662"
           y="18.383173"
           ry="0.68454295"
           rx="0.81864369" />
        <rect
           style="fill:#d35f5f;stroke-width:1.03236"
           id="rect1773"
           width="4.0618105"
           height="46.90337"
           x="36.968796"
           y="9.1558027"
           rx="1.5939001"
           ry="1.8450813" />
        <path
           style="fill:#f9f9f9;stroke-width:1.03244"
           id="path1975"
           sodipodi:type="arc"
           sodipodi:cx="31.796307"
           sodipodi:cy="8.947051"
           sodipodi:rx="1.2303421"
           sodipodi:ry="2.4794331"
           sodipodi:start="0.15211305"
           sodipodi:end="0.083606993"
           sodipodi:arc-type="arc"
           d="M 33.012442,9.3227524 A 1.2303421,2.4794331 0 0 1 31.630731,11.403929 1.2303421,2.4794331 0 0 1 30.5745,8.6555011 a 1.2303421,2.4794331 0 0 1 1.345534,-2.175314 1.2303421,2.4794331 0 0 1 1.102317,2.6739205"
           sodipodi:open="true"
           transform="matrix(0.99013404,0.14012348,-0.15733554,0.9875452,0,0)" />
      </g>
    </g>
  </g>
</svg>
