<?xml version="1.0" encoding="UTF-8" standalone="no"?>
<!-- Created with Inkscape (http://www.inkscape.org/) -->

<svg
   version="1.1"
   id="svg382"
   width="200"
   height="200"
   viewBox="0 0 200 200"
   sodipodi:docname="gabber.png"
   inkscape:export-filename="../../60/parler.svg"
   inkscape:export-xdpi="28.799999"
   inkscape:export-ydpi="28.799999"
   xml:space="preserve"
   xmlns:inkscape="http://www.inkscape.org/namespaces/inkscape"
   xmlns:sodipodi="http://sodipodi.sourceforge.net/DTD/sodipodi-0.dtd"
   xmlns="http://www.w3.org/2000/svg"
   xmlns:svg="http://www.w3.org/2000/svg"><defs
     id="defs386" /><sodipodi:namedview
     id="namedview384"
     pagecolor="#ffffff"
     bordercolor="#000000"
     borderopacity="0.25"
     inkscape:showpageshadow="2"
     inkscape:pageopacity="0.0"
     inkscape:pagecheckerboard="0"
     inkscape:deskcolor="#d1d1d1"
     showgrid="false"
     showguides="true"><sodipodi:guide
       position="168.73488,155.25682"
       orientation="0,-1"
       id="guide1662"
       inkscape:locked="false" /><sodipodi:guide
       position="157.35949,39.986252"
       orientation="0,-1"
       id="guide1664"
       inkscape:locked="false" /></sodipodi:namedview><g
     inkscape:groupmode="layer"
     inkscape:label="Image"
     id="g388"><rect
       style="fill:none;stroke:#ffcc00;stroke-width:10;stroke-dasharray:none"
       id="rect470"
       width="191.74123"
       height="189.19156"
       x="4.5230589"
       y="5.8685374"
       rx="29.131887"
       ry="24.946558" /><path
       style="fill:#aa0044;stroke-width:0.0855375"
       d="m 61.993324,159.37993 c -8.148618,-0.42001 -15.205132,-6.2615 -17.234396,-14.26692 -0.551509,-2.17567 -0.508567,-0.31788 -0.538897,-23.31442 -0.01986,-15.05001 -5.47e-4,-21.14035 0.06896,-21.836348 0.68255,-6.828266 5.180869,-12.746814 11.610028,-15.275602 1.536744,-0.604449 3.182304,-0.993386 4.939552,-1.16748 0.662117,-0.06559 8.41766,-0.08554 26.174448,-0.06727 l 25.233521,0.02596 0.68431,0.194374 c 1.98236,0.563085 3.38216,1.378495 4.64045,2.70315 0.74846,0.787926 1.22092,1.479607 1.69663,2.483841 0.58108,1.226682 0.80983,2.182706 0.86644,3.621146 0.0549,1.396762 -0.0392,2.157129 -0.41054,3.314874 -0.49566,1.545396 -1.12994,2.560344 -2.38202,3.811681 -1.30667,1.305904 -2.43902,1.955494 -4.36557,2.504354 l -0.64416,0.18351 -20.486202,0.0473 -20.486205,0.0473 -0.781847,0.18391 c -1.796995,0.42272 -3.184872,1.16397 -4.477933,2.39163 -1.45855,1.38475 -2.296819,2.85864 -2.793455,4.91153 -0.144192,0.59607 -0.155252,1.99497 -0.198302,25.09496 l -0.04559,24.46369 z m 20.186828,-24.17627 c 0,-5.73279 0.02577,-6.09932 0.530462,-7.54576 1.076692,-3.08578 3.782361,-5.41553 6.997761,-6.02547 0.610002,-0.11572 2.013063,-0.13359 10.679305,-0.13604 10.52236,-0.003 12.3791,-0.0467 14.38222,-0.33848 8.57549,-1.24931 16.06449,-6.25821 20.49324,-13.70661 3.32158,-5.58633 4.60608,-12.117084 3.66372,-18.627383 -0.41199,-2.846249 -1.24733,-5.498374 -2.59988,-8.25436 -0.88865,-1.810729 -1.66079,-3.074374 -2.81843,-4.612494 -4.65944,-6.190893 -11.51918,-10.17799 -19.22018,-11.171391 -2.61728,-0.337623 -5.15274,-0.363988 -38.309681,-0.398387 l -31.819915,-0.03304 0.05703,-1.130398 c 0.29492,-5.84563 3.419266,-11.283248 8.411173,-14.638827 1.839925,-1.236808 4.3798,-2.304979 6.529156,-2.745901 2.098643,-0.430515 1.130539,-0.411613 22.938479,-0.447963 17.407725,-0.02899 21.321628,-0.01316 25.447378,0.102968 2.68159,0.07546 5.49149,0.175778 6.24423,0.222867 9.28145,0.580554 18.21548,3.926426 25.71667,9.63111 1.65778,1.260743 3.11104,2.544456 4.82182,4.259282 2.40524,2.410927 3.97941,4.32243 5.81602,7.062322 4.64103,6.923555 7.28016,14.556438 7.91081,22.879563 0.12227,1.6137 0.12338,5.356942 0.002,6.930227 -0.7058,9.151835 -3.92482,17.687315 -9.42682,24.995835 -3.4456,4.57695 -7.86659,8.63214 -12.72913,11.67593 -5.56118,3.48112 -11.83197,5.79557 -18.25534,6.73778 -3.25223,0.47705 -2.5062,0.45838 -19.616342,0.49074 l -15.845802,0.03 v -5.20612 z"
       id="path1660" /></g></svg>
