<?xml version="1.0" encoding="UTF-8" standalone="no"?>
<!-- Created with Inkscape (http://www.inkscape.org/) -->

<svg
   width="200"
   height="200"
   viewBox="0 0 52.916665 52.916666"
   version="1.1"
   id="svg5"
   xml:space="preserve"
   inkscape:export-filename="next-off.svg"
   inkscape:export-xdpi="96"
   inkscape:export-ydpi="96"
   xmlns:inkscape="http://www.inkscape.org/namespaces/inkscape"
   xmlns:sodipodi="http://sodipodi.sourceforge.net/DTD/sodipodi-0.dtd"
   xmlns="http://www.w3.org/2000/svg"
   xmlns:svg="http://www.w3.org/2000/svg"><sodipodi:namedview
     id="namedview7"
     pagecolor="#ffffff"
     bordercolor="#000000"
     borderopacity="0.25"
     inkscape:showpageshadow="2"
     inkscape:pageopacity="0.0"
     inkscape:pagecheckerboard="0"
     inkscape:deskcolor="#d1d1d1"
     inkscape:document-units="mm"
     showgrid="false" /><defs
     id="defs2" /><g
     inkscape:label="Layer 1"
     inkscape:groupmode="layer"
     id="layer1"><path
       style="fill:#cc00ff;stroke-width:0.194962"
       d="M 17.144516,48.168363 C 12.85508,46.43374 9.236102,44.943526 9.1023424,44.856777 8.9230544,44.740491 8.8591407,43.78613 8.8591407,41.224896 v -3.47415 l 5.9434783,-5.628805 c 3.268915,-3.095845 5.943481,-5.672675 5.943481,-5.726289 0,-0.05361 -2.674566,-2.630443 -5.943481,-5.726288 L 8.8591407,15.040558 v -3.461786 c 0,-2.5388552 0.06498,-3.5120723 0.2437012,-3.6504063 C 9.5243601,7.6021175 25.214956,1.4010551 25.434108,1.4741059 c 0.114745,0.038248 5.205589,4.883665 11.313003,10.7675971 l 11.10439,10.698056 v 3.455893 3.455893 L 36.746904,40.552412 c -6.10753,5.885479 -11.261833,10.716379 -11.454006,10.735339 -0.192183,0.01889 -3.858947,-1.384766 -8.148382,-3.119388 z m 7.309492,-1.058019 -0.002,-2.290803 -6.839889,-2.729464 c -3.761938,-1.501207 -6.919385,-2.758711 -7.016547,-2.79445 -0.09935,-0.03657 -0.175581,0.944437 -0.174223,2.242058 l 0.0025,2.307048 6.869958,2.75993 c 3.778478,1.517962 6.935758,2.768153 7.01618,2.778205 0.08043,0.01011 0.145277,-1.012583 0.144149,-2.272524 z m 13.139958,-9.504389 8.690979,-8.383356 0.0035,-2.014088 0.0035,-2.014085 -1.539413,1.4292 c -0.846678,0.786061 -5.406617,5.157846 -10.133201,9.715078 l -8.593785,8.285878 -0.0048,2.014133 -0.0048,2.014132 1.443602,-1.331767 c 0.793984,-0.732473 5.354547,-5.104278 10.134585,-9.715125 z m -2.12254,-4.215184 c 5.683137,-5.479269 10.332976,-10.031636 10.332976,-10.116372 0,-0.08474 -4.649839,-4.638803 -10.332976,-10.120151 C 27.363781,5.3344776 25.054476,3.2088374 24.748528,3.2841678 23.816112,3.5137486 11.296165,8.6321302 11.296165,8.7837372 c 0,0.092391 3.311914,3.3165838 7.359805,7.1648748 4.047895,3.848289 7.359809,7.145732 7.359809,7.327651 0,0.181913 -3.311914,3.479364 -7.359809,7.327653 -4.047891,3.848288 -7.359805,7.072847 -7.359805,7.165685 0,0.157873 13.222952,5.560818 13.647324,5.576343 0.107232,0.0039 4.8448,-4.475907 10.527937,-9.955173 z M 23.009878,24.308788 C 23.594123,23.804384 24.048865,23.335801 24.02041,23.267487 23.975159,23.158845 12.332607,12.072906 10.934174,10.806882 l -0.529354,-0.479233 0.05575,2.06957 0.05574,2.069569 5.653893,5.373845 c 3.109642,2.955614 5.681683,5.376411 5.715647,5.379545 0.03396,0.0032 0.539775,-0.406991 1.124023,-0.91139 z"
       id="path4553" /></g></svg>
