<?xml version="1.0" encoding="UTF-8" standalone="no"?>
<!-- Created with Inkscape (http://www.inkscape.org/) -->

<svg
   width="200"
   height="200"
   viewBox="0 0 52.916665 52.916666"
   version="1.1"
   id="svg5"
   xml:space="preserve"
   inkscape:export-filename="prev-on.svg"
   inkscape:export-xdpi="96"
   inkscape:export-ydpi="96"
   xmlns:inkscape="http://www.inkscape.org/namespaces/inkscape"
   xmlns:sodipodi="http://sodipodi.sourceforge.net/DTD/sodipodi-0.dtd"
   xmlns="http://www.w3.org/2000/svg"
   xmlns:svg="http://www.w3.org/2000/svg"><sodipodi:namedview
     id="namedview7"
     pagecolor="#ffffff"
     bordercolor="#000000"
     borderopacity="0.25"
     inkscape:showpageshadow="2"
     inkscape:pageopacity="0.0"
     inkscape:pagecheckerboard="0"
     inkscape:deskcolor="#d1d1d1"
     inkscape:document-units="mm"
     showgrid="false" /><defs
     id="defs2" /><g
     inkscape:label="Layer 1"
     inkscape:groupmode="layer"
     id="layer1"><path
       style="fill:#800066;stroke-width:0.197315"
       d="m 38.499508,48.016634 c 4.141651,-2.098293 7.633858,-3.895905 7.760461,-3.994691 0.169695,-0.132417 0.158969,-1.111987 -0.04085,-3.727804 L 45.94809,36.745948 39.582747,31.449869 c -3.50094,-2.912846 -6.368768,-5.340885 -6.372951,-5.395641 -0.0042,-0.05476 2.461584,-2.890211 5.479483,-6.301008 l 5.487084,-6.201449 -0.27007,-3.535563 C 43.708226,7.4232466 43.567509,6.4342374 43.378515,6.3065683 42.93277,6.0054728 26.803978,0.86732609 26.591161,0.95862541 26.479733,1.0064211 21.78169,6.3428516 16.15105,12.817349 L 5.9135197,24.58916 l 0.26961,3.529546 0.26961,3.529542 11.9071653,10.083141 c 6.548942,5.545728 12.065154,10.087005 12.258248,10.091732 0.193099,0.0047 3.739706,-1.708193 7.881355,-3.806487 z m -7.3708,-0.52384 -0.176722,-2.339776 6.607082,-3.308593 c 3.633895,-1.819727 6.684066,-3.344516 6.778158,-3.388418 0.09621,-0.04493 0.248751,0.951193 0.34863,2.27657 l 0.177491,2.356405 -6.634688,3.341999 c -3.649079,1.8381 -6.699655,3.355407 -6.779059,3.371799 -0.07941,0.01648 -0.223851,-1.023098 -0.32102,-2.309977 z m -13.843271,-8.70614 -9.3197583,-7.900073 -0.160619,-2.056745 -0.160617,-2.056742 1.64644,1.342411 c 0.9055423,0.738325 5.7932993,4.855974 10.8616843,9.150327 l 9.215242,7.807921 0.161918,2.056691 0.161917,2.05669 -1.543306,-1.250197 C 27.299517,47.249328 22.411137,43.131708 17.28527,38.786666 Z m 1.787528,-4.466679 C 12.978873,29.156788 7.9873897,24.861556 7.9807787,24.775016 c -0.0066,-0.08654 4.2744383,-5.091818 9.5134423,-11.122837 7.474038,-8.6039383 9.610804,-10.9507676 9.92174,-10.8971322 0.947618,0.1634547 13.830506,4.4373386 13.842334,4.5921775 0.0072,0.094365 -3.043552,3.6395147 -6.779462,7.8781257 -3.735914,4.23861 -6.780959,7.858577 -6.766766,8.044374 0.01419,0.185789 3.573735,3.301263 7.910094,6.923257 4.336356,3.621995 7.890212,6.663023 7.897455,6.75784 0.01232,0.161237 -12.750718,6.686451 -13.172646,6.734629 -0.106616,0.01215 -5.179913,-4.202292 -11.274005,-9.365475 z M 30.789788,24.095308 C 30.167889,23.624654 29.677912,23.18072 29.700955,23.108784 29.737598,22.994381 40.481467,10.785429 41.777069,9.3859129 l 0.490429,-0.5297643 0.105869,2.1179214 0.105879,2.11792 -5.218232,5.918999 c -2.870028,3.255447 -5.24574,5.923734 -5.279361,5.929521 -0.03361,0.0059 -0.569958,-0.374553 -1.19186,-0.845202 z"
       id="path4553" /></g></svg>
