<?xml version="1.0" encoding="UTF-8" standalone="no"?>
<!-- Created with Inkscape (http://www.inkscape.org/) -->

<svg
   width="200"
   height="200"
   viewBox="0 0 52.916665 52.916666"
   version="1.1"
   id="svg5"
   xml:space="preserve"
   inkscape:export-filename="return-on.svg"
   inkscape:export-xdpi="96"
   inkscape:export-ydpi="96"
   xmlns:inkscape="http://www.inkscape.org/namespaces/inkscape"
   xmlns:sodipodi="http://sodipodi.sourceforge.net/DTD/sodipodi-0.dtd"
   xmlns="http://www.w3.org/2000/svg"
   xmlns:svg="http://www.w3.org/2000/svg"><sodipodi:namedview
     id="namedview7"
     pagecolor="#ffffff"
     bordercolor="#000000"
     borderopacity="0.25"
     inkscape:showpageshadow="2"
     inkscape:pageopacity="0.0"
     inkscape:pagecheckerboard="0"
     inkscape:deskcolor="#d1d1d1"
     inkscape:document-units="mm"
     showgrid="false" /><defs
     id="defs2" /><g
     inkscape:label="Layer 1"
     inkscape:groupmode="layer"
     id="layer1"><path
       style="fill:#aa8800;stroke-width:0.289805"
       d="M 7.396244,49.919558 C 5.6308,49.361014 4.225709,48.154473 3.391742,46.480918 L 2.653064,44.998584 V 26.063972 C 2.653064,5.1894409 2.587584,5.9803952 4.479031,4.0071798 4.988978,3.4751865 5.927857,2.75792 6.565427,2.4132541 7.719515,1.7893623 7.807373,1.7865889 26.417046,1.7865889 c 21.102033,0 20.398895,-0.069548 22.469596,2.2224726 1.958749,2.1681009 1.873995,1.1741964 1.873995,21.9762175 0,20.787658 0.06499,20.005394 -1.825966,21.9781 -0.509949,0.531992 -1.448826,1.249258 -2.086397,1.593926 -1.15046,0.621929 -1.299347,0.627096 -19.706716,0.683939 -14.598229,0.04508 -18.802546,-0.02342 -19.745314,-0.321686 z m 37.907737,-5.286794 c 0.502712,-0.45495 0.529977,-1.415693 0.529977,-18.675968 V 7.7604511 L 45.189864,7.3093108 C 44.62374,6.9127803 42.372598,6.8581707 26.592734,6.8581707 c -16.298799,0 -18.001869,0.044194 -18.483013,0.4796232 -0.502712,0.4549472 -0.529978,1.4155612 -0.529978,18.6717011 0,16.151847 0.05107,18.243153 0.455408,18.647485 0.404306,0.404307 2.49106,0.455408 18.59713,0.455408 16.474375,0 18.19043,-0.04408 18.6717,-0.479624 z m -23.275718,-5.17632 c -0.982822,-0.533922 -1.488406,-1.911888 -1.092128,-2.97659 0.160925,-0.432365 2.469218,-2.970521 5.12954,-5.640346 l 4.83695,-4.854229 -4.83695,-4.854228 c -2.660322,-2.669825 -4.974628,-5.223796 -5.142901,-5.675491 -0.678998,-1.822621 1.245584,-3.768986 3.050096,-3.084618 0.904069,0.342871 10.63185,9.796391 12.041121,11.701638 0.546879,0.739343 0.836023,1.480976 0.836023,2.144328 0,0.930549 -0.483403,1.501902 -5.868545,6.936273 -6.884488,6.947426 -7.269066,7.218176 -8.953206,6.303263 z"
       id="path2507" /></g></svg>
