<?xml version="1.0" encoding="UTF-8" standalone="no"?>
<!-- Created with Inkscape (http://www.inkscape.org/) -->

<svg
   width="200"
   height="200"
   viewBox="0 0 52.916665 52.916666"
   version="1.1"
   id="svg5"
   xml:space="preserve"
   inkscape:export-filename="next-on.svg"
   inkscape:export-xdpi="96"
   inkscape:export-ydpi="96"
   xmlns:inkscape="http://www.inkscape.org/namespaces/inkscape"
   xmlns:sodipodi="http://sodipodi.sourceforge.net/DTD/sodipodi-0.dtd"
   xmlns="http://www.w3.org/2000/svg"
   xmlns:svg="http://www.w3.org/2000/svg"><sodipodi:namedview
     id="namedview7"
     pagecolor="#ffffff"
     bordercolor="#000000"
     borderopacity="0.25"
     inkscape:showpageshadow="2"
     inkscape:pageopacity="0.0"
     inkscape:pagecheckerboard="0"
     inkscape:deskcolor="#d1d1d1"
     inkscape:document-units="mm"
     showgrid="false" /><defs
     id="defs2" /><g
     inkscape:label="Layer 1"
     inkscape:groupmode="layer"
     id="layer1"><path
       style="fill:#d4aa00;stroke-width:0.289805"
       d="m 46.008542,2.1132605 c 1.765658,0.5578661 3.171212,1.7638675 4.005822,3.4371021 l 0.739247,1.4820503 0.0073,18.9346101 c 0.008,20.87453 0.07319,20.083551 -1.817497,22.057492 -0.509743,0.532189 -1.448346,1.249816 -2.085784,1.594727 -1.153848,0.624335 -1.241705,0.627142 -19.851377,0.634288 C 5.904192,50.261633 6.6073567,50.330911 4.5357757,48.039685 2.5761943,45.872337 2.66133,46.866209 2.6533422,26.064189 2.64536,5.2765327 2.5806704,6.0588216 4.4708688,4.0853897 4.9806134,3.5532019 5.919215,2.8355754 6.5566536,2.4906626 7.7068747,1.8682919 7.8557597,1.8630677 26.263105,1.7991565 c 14.598211,-0.050685 18.802554,0.0162 19.745437,0.314104 z M 8.1028374,7.4146103 C 7.6003001,7.8697533 7.5734041,8.8305067 7.5800318,26.09078 l 0.00699,18.196344 0.6442672,0.450893 c 0.5662762,0.396313 2.817439,0.450058 18.597302,0.443999 16.298798,-0.0063 18.001851,-0.05111 18.482827,-0.486721 0.502538,-0.45514 0.529435,-1.415764 0.522809,-18.671903 C 45.828022,9.8715464 45.776149,7.7802602 45.371655,7.3760835 44.967194,6.9719318 42.880421,6.9216321 26.774352,6.9278166 10.299978,6.9341426 8.5839401,6.9788815 8.1028374,7.4146103 Z M 31.380541,12.581992 c 0.983027,0.533545 1.48914,1.911317 1.093271,2.976171 -0.160759,0.432426 -2.468077,2.971469 -5.127374,5.642315 l -4.835085,4.856086 4.838813,4.85237 c 2.661347,2.668804 4.976634,5.221886 5.14508,5.673516 0.679698,1.82236 -1.244136,3.769464 -3.048911,3.085789 -0.904201,-0.342524 -10.635611,-9.792308 -12.045613,-11.697013 -0.547163,-0.739133 -0.836592,-1.480655 -0.836847,-2.144007 -3.57e-4,-0.930549 0.482827,-1.502088 5.865881,-6.938526 6.88182,-6.950069 7.266294,-7.220967 8.950785,-6.306701 z"
       id="path2507" /></g></svg>
