<?xml version="1.0" encoding="UTF-8" standalone="no"?>
<!-- Created with Inkscape (http://www.inkscape.org/) -->

<svg
   width="200"
   height="200"
   viewBox="0 0 52.916665 52.916666"
   version="1.1"
   id="svg5"
   xml:space="preserve"
   inkscape:export-filename="bitmap.png"
   inkscape:export-xdpi="96"
   inkscape:export-ydpi="96"
   xmlns:inkscape="http://www.inkscape.org/namespaces/inkscape"
   xmlns:sodipodi="http://sodipodi.sourceforge.net/DTD/sodipodi-0.dtd"
   xmlns="http://www.w3.org/2000/svg"
   xmlns:svg="http://www.w3.org/2000/svg"><sodipodi:namedview
     id="namedview7"
     pagecolor="#ffffff"
     bordercolor="#000000"
     borderopacity="0.25"
     inkscape:showpageshadow="2"
     inkscape:pageopacity="0.0"
     inkscape:pagecheckerboard="0"
     inkscape:deskcolor="#d1d1d1"
     inkscape:document-units="mm"
     showgrid="false" /><defs
     id="defs2" /><g
     inkscape:label="Layer 1"
     inkscape:groupmode="layer"
     id="layer1"><path
       style="fill:#aa8800;stroke-width:2.359"
       d="M 10.853763,46.420726 5.3045949,38.826473 11.266025,31.337967 c 4.166945,-5.234336 6.233856,-6.416938 6.866444,-3.928703 0.7264,2.857126 3.19735,2.61235 12.518332,-1.240029 6.387326,-2.639893 12.14279,-5.923079 12.789923,-7.295961 0.647134,-1.37287 -2.047024,-0.730161 -5.987017,1.428318 -6.236845,3.416742 -7.547652,3.420968 -10.131918,0.03267 -1.632559,-2.140511 -3.343534,-3.399845 -3.802165,-2.798514 -0.458622,0.601322 -0.833884,-2.981666 -0.833884,-7.9622227 0,-8.5048112 0.378889,-8.99268824 6.229939,-8.0217938 10.319486,1.7123671 16.492662,9.6080775 17.200219,21.9996825 0.784573,13.740546 -2.388609,18.054299 -16.510711,22.445375 -5.990942,1.86281 -11.412295,4.428974 -12.047445,5.702591 -0.635142,1.273618 -3.65194,-1.101745 -6.703979,-5.278592 z"
       id="path2265" /></g></svg>
