<?xml version="1.0" encoding="UTF-8" standalone="no"?>
<!-- Created with Inkscape (http://www.inkscape.org/) -->

<svg
   version="1.1"
   id="svg3118"
   width="252.8"
   height="247.67999"
   viewBox="0 0 252.8 247.67999"
   sodipodi:docname="mag-on1.png"
   xmlns:inkscape="http://www.inkscape.org/namespaces/inkscape"
   xmlns:sodipodi="http://sodipodi.sourceforge.net/DTD/sodipodi-0.dtd"
   xmlns="http://www.w3.org/2000/svg"
   xmlns:svg="http://www.w3.org/2000/svg">
  <defs
     id="defs3122" />
  <sodipodi:namedview
     id="namedview3120"
     pagecolor="#ffffff"
     bordercolor="#000000"
     borderopacity="0.25"
     inkscape:showpageshadow="2"
     inkscape:pageopacity="0.0"
     inkscape:pagecheckerboard="0"
     inkscape:deskcolor="#d1d1d1"
     showgrid="false" />
  <g
     inkscape:groupmode="layer"
     inkscape:label="Image"
     id="g3124">
    <path
       style="fill:#000000;stroke-width:0.326003"
       d="m 13.331438,242.01976 c -0.871769,-0.37586 -8.401401,-8.99344 -8.7532599,-10.018 -0.173257,-0.50451 -0.134966,-1.15052 0.1021177,-1.72288 0.2086193,-0.50366 3.4820083,-3.68695 7.2741972,-7.074 3.792189,-3.38704 9.760988,-8.72802 13.263993,-11.86882 3.503005,-3.14081 9.816582,-8.78529 14.030164,-12.54328 4.213585,-3.75799 9.869383,-8.8167 12.568441,-11.24158 2.699051,-2.42487 9.517325,-8.51649 15.151724,-13.53693 5.634394,-5.02045 11.13401,-9.93494 12.221365,-10.92109 1.087353,-0.98616 5.968497,-5.36607 10.846988,-9.73314 4.878487,-4.36707 8.869971,-8.06235 8.869971,-8.21174 0,-0.1494 -0.61267,-0.97737 -1.36149,-1.83995 -8.415257,-9.69377 -15.329154,-23.7103 -17.979904,-36.45062 -1.355753,-6.51617 -1.669123,-9.729469 -1.669123,-17.11515 0,-9.944214 1.069337,-16.733096 4.072508,-25.855009 4.02379,-12.221966 10.7926,-23.128295 20.18087,-32.516698 13.18892,-13.189095 29.19232,-21.244644 47.98664,-24.1547798 6.72356,-1.041083 18.28449,-1.041083 25.00805,0 18.79432,2.9101358 34.79773,10.9656848 47.98664,24.1547798 13.20034,13.200525 21.23044,29.467658 23.82579,48.265625 0.55668,4.03206 0.55668,16.180107 0,20.212167 -1.22293,8.857555 -3.84552,17.704435 -7.47127,25.203005 -4.48182,9.26907 -9.16467,15.87267 -16.35452,23.06262 -13.18891,13.18909 -29.19231,21.24464 -47.98664,24.15478 -3.86678,0.59874 -6.03944,0.72465 -12.50402,0.72465 -6.46458,0 -8.63724,-0.12591 -12.50403,-0.72465 -14.42221,-2.23316 -27.67914,-7.72616 -38.73594,-16.05023 -1.90184,-1.43179 -3.57059,-2.5613 -3.70832,-2.51 -0.37343,0.13906 -2.77511,2.43337 -18.753435,17.91489 -8.01897,7.76965 -19.665225,19.04112 -25.880574,25.04772 -9.463591,9.14575 -32.535934,31.46856 -43.892042,42.46616 -3.065027,2.96826 -4.262828,3.55992 -5.834891,2.88215 z m 13.87483,-18.66784 c 6.712963,-6.48332 16.753122,-16.19714 22.311467,-21.58627 5.558346,-5.38914 14.580471,-14.12747 20.049164,-19.4185 24.746615,-23.9427 33.634621,-32.62008 33.411871,-32.62008 -0.1101,0 -2.78087,2.31054 -5.935043,5.13454 -15.140656,13.55575 -26.511555,23.72778 -34.202521,30.59644 -19.572562,17.4799 -25.219061,22.52486 -28.013592,25.02923 -1.624711,1.45602 -6.974894,6.24149 -11.889299,10.63437 -4.914402,4.39289 -9.517399,8.51819 -10.228881,9.16734 l -1.293602,1.18026 1.567908,1.83527 c 0.86235,1.00938 1.668988,1.83525 1.792526,1.83525 0.123528,0 5.71704,-5.30453 12.430002,-11.78785 z M 174.37676,162.14621 c 14.44078,-2.45093 27.24742,-8.63078 37.75085,-18.21668 15.05126,-13.73647 23.70066,-33.27369 23.70066,-53.534944 0,-20.261255 -8.6494,-39.798473 -23.70066,-53.534942 -10.70099,-9.76621 -23.72961,-15.957036 -38.72886,-18.402834 -5.02533,-0.819437 -16.49084,-0.819437 -21.51617,0 -14.99924,2.445798 -28.02787,8.636624 -38.72886,18.402834 -18.436851,16.826314 -27.013848,42.099446 -22.5384,66.412056 4.421432,24.01916 20.53432,44.18594 43.01365,53.8356 7.16871,3.0773 13.53415,4.68176 22.98064,5.79249 2.98692,0.35119 14.01338,-0.11649 17.76715,-0.75358 z m -17.60414,-6.28231 c -7.83029,-0.78838 -16.85981,-3.38125 -24.1242,-6.92741 -12.00854,-5.86205 -21.94444,-14.90803 -28.4219,-25.8763 -10.864577,-18.39694 -11.91257,-41.747849 -2.74583,-61.181318 1.49902,-3.177923 1.69146,-3.441048 2.28455,-3.123639 0.35619,0.190647 0.73326,0.485141 0.8379,0.654459 0.10465,0.169322 -0.61499,1.970198 -1.5992,4.001942 -4.730101,9.764532 -7.011806,21.232212 -6.115934,30.738137 1.151683,12.220289 5.311894,23.122149 12.500324,32.757109 2.5485,3.41586 8.41213,9.51484 11.68699,12.15603 13.71621,11.06221 32.40691,17.02066 48.95856,15.60758 5.16824,-0.44123 11.27087,-1.57527 15.16459,-2.81801 2.37095,-0.75671 2.57248,-0.7744 2.95629,-0.25941 0.22656,0.30396 0.36188,0.70273 0.30076,0.88616 -0.27052,0.81156 -9.3699,2.83869 -15.35788,3.42137 -4.15262,0.40409 -12.12503,0.38617 -16.32501,-0.0367 z m -5.37905,-44.60514 v -10.75809 h -9.45407 -9.45408 V 89.74258 78.984494 h 9.45408 9.45407 V 68.389405 57.79432 h 10.92109 10.92109 v 10.595085 10.595089 h 9.61708 9.61708 v 10.758086 10.75809 h -9.61708 -9.61708 v 10.75809 10.75809 h -10.92109 -10.92109 z m 18.90816,-2.93402 V 97.566645 h 9.61708 9.61707 V 89.74258 81.918518 h -9.61707 -9.61708 V 71.323429 60.728344 h -7.98707 -7.98706 v 10.595085 10.595089 h -9.45408 -9.45408 v 7.824062 7.824065 h 9.45408 9.45408 v 10.758095 10.75809 h 7.98706 7.98707 z m -13.69212,-2.28202 V 95.284627 h -9.45407 -9.45408 V 89.74258 84.200535 h 9.45408 9.45407 V 73.605449 63.010364 h 5.70505 5.70505 v 10.595085 10.595086 h 9.61708 9.61708 v 5.542045 5.542047 h -9.61708 -9.61708 v 10.758093 10.75809 h -5.70505 -5.70505 z m 70.31225,-11.817603 c -0.69928,-0.93841 -0.81109,-1.506641 -0.9782,-4.971541 -0.45436,-9.421166 -2.53184,-17.988403 -6.26671,-25.843122 -5.91802,-12.446026 -15.79721,-21.975997 -29.34351,-28.306216 -3.539,-1.653783 -10.58273,-4.055808 -14.24768,-4.858682 -1.95654,-0.428618 -2.68136,-0.747681 -3.20193,-1.409459 -0.37007,-0.470485 -0.52993,-0.903076 -0.35521,-0.961316 0.5911,-0.197023 7.94525,1.602275 11.26414,2.755937 24.96124,8.676671 40.19904,27.224829 43.36956,52.79142 0.54591,4.402182 1.00595,11.862489 0.73149,11.862489 -0.10034,0 -0.53771,-0.476779 -0.97195,-1.05951 z"
       id="path3608" />
  </g>
</svg>
