<?xml version="1.0" encoding="UTF-8" standalone="no"?>
<!-- Created with Inkscape (http://www.inkscape.org/) -->

<svg
   version="1.1"
   id="svg3935"
   width="91.839996"
   height="91.519997"
   viewBox="0 0 91.839996 91.519997"
   sodipodi:docname="glasses.svg"
   inkscape:export-filename="specs-hi.svg"
   inkscape:export-xdpi="96"
   inkscape:export-ydpi="96"
   inkscape:version="1.2.2 (b0a8486541, 2022-12-01)"
   xmlns:inkscape="http://www.inkscape.org/namespaces/inkscape"
   xmlns:sodipodi="http://sodipodi.sourceforge.net/DTD/sodipodi-0.dtd"
   xmlns="http://www.w3.org/2000/svg"
   xmlns:svg="http://www.w3.org/2000/svg">
  <defs
     id="defs3939" />
  <sodipodi:namedview
     id="namedview3937"
     pagecolor="#ffffff"
     bordercolor="#000000"
     borderopacity="0.25"
     inkscape:showpageshadow="2"
     inkscape:pageopacity="0.0"
     inkscape:pagecheckerboard="0"
     inkscape:deskcolor="#d1d1d1"
     showgrid="false"
     inkscape:zoom="9.2657346"
     inkscape:cx="39.716225"
     inkscape:cy="45.759998"
     inkscape:window-width="1920"
     inkscape:window-height="1016"
     inkscape:window-x="0"
     inkscape:window-y="0"
     inkscape:window-maximized="1"
     inkscape:current-layer="g3941" />
  <g
     inkscape:groupmode="layer"
     inkscape:label="Image"
     id="g3941">
    <path
       style="fill:#d4aa00;stroke-width:0.438626"
       d="M 22.412518,63.779886 C 16.617747,61.963018 11.485233,55.885985 9.6899224,48.716 L 9.05038,46.161838 6.0868267,45.937248 C 1.9984406,45.627413 0.61359186,44.266056 0.61359186,40.55686 c 0,-3.765694 1.38861274,-5.085059 5.66510764,-5.382603 l 3.1554248,-0.219542 1.1824257,-3.09974 c 3.232214,-8.47328 11.141025,-13.702994 18.472284,-12.214828 1.433414,0.290968 3.716819,1.195332 5.074238,2.009696 l 2.468028,1.480662 1.254487,-1.891431 c 0.689965,-1.040288 2.185561,-2.556951 3.323544,-3.370364 1.78484,-1.275773 2.466848,-1.477354 4.964847,-1.46746 3.35089,0.01318 5.376648,1.101352 7.915152,4.251393 l 1.54442,1.916474 2.334975,-1.450118 c 8.614654,-5.350066 18.550952,-0.874645 22.822479,10.279506 l 1.362167,3.556991 3.14965,0.21915 c 4.270511,0.297141 5.659334,1.617959 5.659334,5.382214 0,3.711482 -1.384537,5.070533 -5.481961,5.381039 -2.965849,0.224756 -2.972839,0.228608 -3.233277,1.782168 -0.488095,2.911556 -2.54975,7.439985 -4.580201,10.060417 -6.811831,8.7911 -17.631285,8.727968 -24.493393,-0.142934 -4.933281,-6.377438 -6.335765,-14.173757 -4.262838,-23.696887 0.456327,-2.096386 0.442694,-2.542689 -0.114166,-3.737202 -1.639622,-3.517111 -3.791438,-3.824095 -5.58096,-0.79619 l -0.997727,1.688173 0.890261,3.573213 c 4.162014,16.704924 -7.580862,33.223084 -20.695374,29.111224 z m 8.176525,-10.673034 c 4.645161,-3.058356 6.446854,-9.77012 4.238349,-15.788901 -1.734404,-4.726716 -4.686833,-7.225255 -8.537819,-7.225255 -5.308941,0 -9.211232,5.064934 -9.21387,11.959044 -0.0014,3.616395 0.648837,5.716935 2.596784,8.388928 2.907242,3.987853 7.285163,5.057088 10.916556,2.666184 z m 37.944676,0.621787 c 7.621159,-2.920864 8.588273,-16.547658 1.564903,-22.049792 -1.949742,-1.527431 -2.317499,-1.640341 -4.850051,-1.489038 -2.235377,0.133558 -3.083426,0.438099 -4.602248,1.652758 -2.671402,2.136415 -4.186423,5.508894 -4.35972,9.704843 -0.154437,3.739389 0.4413,6.002162 2.299225,8.733078 2.559041,3.761462 6.009636,4.957511 9.947891,3.448151 z"
       id="path4425" />
  </g>
</svg>
