<?xml version="1.0" encoding="UTF-8" standalone="no"?>
<!-- Created with Inkscape (http://www.inkscape.org/) -->

<svg
   width="200"
   height="200"
   viewBox="0 0 52.916667 52.916666"
   version="1.1"
   id="svg5"
   xml:space="preserve"
   inkscape:export-filename="shop-trolley.svg"
   inkscape:export-xdpi="11.52"
   inkscape:export-ydpi="11.52"
   sodipodi:docname="shop-trolley.svg"
   xmlns:inkscape="http://www.inkscape.org/namespaces/inkscape"
   xmlns:sodipodi="http://sodipodi.sourceforge.net/DTD/sodipodi-0.dtd"
   xmlns="http://www.w3.org/2000/svg"
   xmlns:svg="http://www.w3.org/2000/svg"><sodipodi:namedview
     id="namedview7"
     pagecolor="#ffffff"
     bordercolor="#000000"
     borderopacity="0.25"
     inkscape:showpageshadow="2"
     inkscape:pageopacity="0.0"
     inkscape:pagecheckerboard="0"
     inkscape:deskcolor="#d1d1d1"
     inkscape:document-units="mm"
     showgrid="false" /><defs
     id="defs2" /><g
     inkscape:label="Layer 1"
     inkscape:groupmode="layer"
     id="layer1"><path
       style="fill:#d4aa00;stroke-width:0.201337"
       d="m 18.982941,52.093225 c -1.867649,-0.665322 -2.973307,-2.102333 -3.095631,-4.023356 -0.04537,-0.712487 0.009,-1.558029 0.120948,-1.878983 0.193997,-0.556493 0.16539,-0.600333 -0.616687,-0.945387 C 14.337415,44.780408 13.029416,43.469204 12.474748,42.321532 12.13546,41.619507 11.404178,37.289426 9.1603752,22.696399 L 6.2813412,3.9720339 3.8999792,3.8713779 c -2.198151,-0.09293 -2.410919,-0.137231 -2.76553,-0.575982 -0.52263395,-0.64663 -0.48253095,-1.357329 0.110031,-1.949883 0.482156,-0.48215901 0.57013,-0.49419101 3.612842,-0.49419101 4.274288,0 3.953367,-0.349792 4.802707,5.23476761 l 0.6583488,4.3287515 19.124754,0.100655 c 16.954761,0.08925 19.204711,0.137189 19.829436,0.4225 1.678908,0.766764 2.752734,2.215296 2.943301,3.970357 0.06789,0.625186 -0.39971,4.167917 -1.388627,10.520941 -1.641247,10.543765 -1.714392,10.814976 -3.314543,12.289944 -0.478347,0.440922 -1.297332,1.001136 -1.819969,1.244917 -0.948798,0.442559 -0.973168,0.443325 -15.923473,0.499766 l -14.973217,0.05652 0.125011,0.625056 c 0.205246,1.026259 0.89083,1.925281 1.806041,2.368326 0.846958,0.410004 1.105593,0.41696 15.504529,0.41696 h 14.643205 l 0.494189,0.494192 c 0.271806,0.271805 0.494194,0.728932 0.494194,1.015838 0,0.286906 -0.222391,0.744031 -0.494194,1.015837 -0.411534,0.411538 -0.690272,0.494193 -1.666544,0.494193 h -1.172354 l 0.0054,1.575776 c 0.005,1.40765 -0.0595,1.68097 -0.603821,2.561726 -0.3779,0.611473 -0.983669,1.217386 -1.59491,1.595285 -0.856693,0.529655 -1.174001,0.609336 -2.426513,0.609336 -1.25251,0 -1.569817,-0.07968 -2.426512,-0.609336 -0.610887,-0.377681 -1.217227,-0.98402 -1.594908,-1.594909 -0.542404,-0.877309 -0.60934,-1.158714 -0.60934,-2.561726 v -1.576152 h -5.163231 -5.163231 l 0.172404,0.755015 c 0.789984,3.459684 -2.775544,6.58682 -6.142611,5.387357 z m 2.634786,-3.196892 c 1.148792,-0.988152 0.393635,-2.945481 -1.136397,-2.945481 -1.48689,0 -2.192989,1.85206 -1.116506,2.928542 0.636498,0.636498 1.524857,0.643179 2.252903,0.01688 z m 19.066324,0.253713 c 0.992653,-0.452283 1.221603,-1.827361 0.443961,-2.66645 -1.031281,-1.112773 -2.937098,-0.382987 -2.922601,1.119139 0.01304,1.343925 1.241631,2.110931 2.47864,1.547311 z m -18.437503,-17.645142 -0.05386,-4.983097 -4.681091,-0.05405 c -2.620717,-0.03025 -4.681091,0.02435 -4.681091,0.124081 0,0.328184 1.416871,9.38949 1.50806,9.644478 0.06785,0.189693 1.059408,0.251674 4.025912,0.251674 h 3.935914 z m 12.932402,-0.05035 v -5.033425 h -4.932763 -4.932762 v 5.033433 5.033432 h 4.932762 4.932763 z m 9.378009,4.651631 c 0.871596,-0.395861 1.632002,-1.207641 1.815295,-1.937944 0.251128,-1.000575 1.211182,-7.557093 1.119925,-7.648351 -0.05432,-0.05431 -2.167507,-0.09875 -4.695969,-0.09875 h -4.597202 v 5.033431 5.033433 l 2.768388,-0.0046 c 2.258475,-0.0036 2.919639,-0.07312 3.589563,-0.37738 z m -22.310411,-17.587539 0.05386,-4.983097 h -5.764035 -5.764036 l 0.118645,0.654347 c 0.06526,0.359889 0.397518,2.51168 0.738368,4.781759 0.340851,2.270076 0.657728,4.242282 0.704174,4.382674 0.06577,0.1988 1.165632,0.243335 4.971814,0.201345 l 4.88737,-0.05393 z m 12.885586,0 0.05386,-4.983097 h -4.93628 -4.936279 v 5.037011 5.037012 l 4.882427,-0.05391 4.88243,-0.05391 z m 13.102909,3.825406 c 0.956626,-5.682319 1.120311,-7.233371 0.819842,-7.768698 -0.542669,-0.966829 -0.934104,-1.033647 -6.074117,-1.036837 l -4.78176,-0.0029 v 5.033433 5.033431 h 4.912096 4.912095 z"
       id="path3801" /></g></svg>
