<?xml version="1.0" encoding="UTF-8" standalone="no"?>
<!-- Created with Inkscape (http://www.inkscape.org/) -->

<svg
   width="200"
   height="200"
   viewBox="0 0 52.916667 52.916666"
   version="1.1"
   id="svg5"
   xml:space="preserve"
   inkscape:export-filename="specs.svg"
   inkscape:export-xdpi="96"
   inkscape:export-ydpi="96"
   xmlns:inkscape="http://www.inkscape.org/namespaces/inkscape"
   xmlns:sodipodi="http://sodipodi.sourceforge.net/DTD/sodipodi-0.dtd"
   xmlns="http://www.w3.org/2000/svg"
   xmlns:svg="http://www.w3.org/2000/svg"><sodipodi:namedview
     id="namedview7"
     pagecolor="#ffffff"
     bordercolor="#000000"
     borderopacity="0.25"
     inkscape:showpageshadow="2"
     inkscape:pageopacity="0.0"
     inkscape:pagecheckerboard="0"
     inkscape:deskcolor="#d1d1d1"
     inkscape:document-units="mm"
     showgrid="false" /><defs
     id="defs2" /><g
     inkscape:label="Layer 1"
     inkscape:groupmode="layer"
     id="layer1"><path
       style="fill:#fff6d5;stroke-width:0.264693"
       d="M 13.07784,43.209614 C 9.8207027,42.032493 6.9358074,38.09527 5.9266953,33.449944 L 5.5672189,31.795138 3.9014585,31.649636 C 1.6034498,31.448892 0.82505006,30.566897 0.82505006,28.163761 c 0,-2.439738 0.78051464,-3.294535 3.18425694,-3.487309 L 5.7829159,24.534206 6.4475358,22.52593 c 1.8167701,-5.489714 6.2621722,-8.877972 10.3829442,-7.913809 0.805696,0.188525 2.089159,0.774438 2.852138,1.302051 l 1.387236,0.959301 0.705126,-1.22543 c 0.387816,-0.673988 1.228465,-1.656613 1.868105,-2.18361 1.003227,-0.826555 1.386572,-0.957158 2.790653,-0.950747 1.883476,0.0086 3.022118,0.713552 4.448966,2.754417 l 0.868092,1.241654 1.312448,-0.939509 c 4.842144,-3.466229 10.427162,-0.566671 12.828112,6.659942 l 0.76565,2.304521 1.770363,0.141976 c 2.400378,0.192516 3.18101,1.048252 3.18101,3.48706 0,2.404614 -0.778223,3.285126 -3.081312,3.486295 -1.667052,0.145625 -1.67098,0.148123 -1.817369,1.154641 -0.274347,1.886357 -1.433169,4.820258 -2.574448,6.517998 -3.82881,5.695625 -9.910236,5.654722 -13.767304,-0.09261 -2.772911,-4.131848 -3.561222,-9.182969 -2.396066,-15.352865 0.256494,-1.358219 0.248831,-1.647373 -0.06418,-2.42128 -0.921604,-2.278685 -2.131102,-2.477576 -3.136958,-0.515839 l -0.560806,1.093743 0.5004,2.315032 C 27.049728,35.17174 20.449264,45.873615 13.077829,43.209603 Z m 4.595882,-6.914903 c 2.610961,-1.981463 3.623661,-6.329918 2.3823,-10.229398 -0.974877,-3.062372 -2.634387,-4.681137 -4.798957,-4.681137 -2.984062,0 -5.177472,3.281497 -5.178954,7.74809 -7.86e-4,2.343008 0.3647,3.703918 1.459607,5.435063 1.63411,2.583674 4.094862,3.276413 6.136004,1.727382 z m 21.328031,0.402846 C 43.28547,34.805172 43.82907,25.976572 39.881357,22.41182 38.785442,21.422219 38.57873,21.349066 37.155228,21.447093 c -1.256464,0.08653 -1.733138,0.283839 -2.586842,1.070796 -1.501547,1.384154 -2.353113,3.569134 -2.450521,6.287627 -0.0868,2.422696 0.248048,3.888715 1.292355,5.658035 1.43839,2.436996 3.377908,3.211899 5.591533,2.234006 z"
       id="path4425" /></g></svg>
