<?xml version="1.0" encoding="UTF-8" standalone="no"?>
<svg
   width="16"
   height="16"
   fill="currentColor"
   class="bi bi-balloon-heart"
   viewBox="0 0 16 16"
   version="1.1"
   id="svg5933"
   sodipodi:docname="balloon-heart-48-On.svg"
   inkscape:export-filename="balloon-heart--On.svg"
   inkscape:export-xdpi="216"
   inkscape:export-ydpi="216"
   xmlns:inkscape="http://www.inkscape.org/namespaces/inkscape"
   xmlns:sodipodi="http://sodipodi.sourceforge.net/DTD/sodipodi-0.dtd"
   xmlns="http://www.w3.org/2000/svg"
   xmlns:svg="http://www.w3.org/2000/svg">
  <defs
     id="defs5937" />
  <sodipodi:namedview
     id="namedview5935"
     pagecolor="#ffffff"
     bordercolor="#000000"
     borderopacity="0.25"
     inkscape:showpageshadow="2"
     inkscape:pageopacity="0.0"
     inkscape:pagecheckerboard="0"
     inkscape:deskcolor="#d1d1d1"
     showgrid="false" />
  <path
     fill-rule="evenodd"
     d="M 8,2.42 7.283,1.683 C 6.153,0.522 4.04,0.906 3.273,2.403 2.923,3.088 2.822,4.11 3.509,5.465 4.16,6.753 5.52,8.32 8,10.042 10.479,8.319 11.839,6.752 12.491,5.465 13.178,4.11 13.078,3.088 12.727,2.404 11.96,0.906 9.847,0.522 8.717,1.683 Z m -0.49,8.5 C -3.27,3.48 4.51,-2.235 7.869,0.857 7.914,0.898 7.958,0.941 8.001,0.986 8.044,0.941 8.088,0.898 8.133,0.857 11.493,-2.235 19.27,3.481 8.49,10.92 l 0.235,0.468 A 0.25043961,0.25043961 0 1 1 8.277,11.612 L 8.269,11.595 c 0.008,0.11 0.02,0.202 0.037,0.29 0.054,0.27 0.161,0.488 0.419,1.003 0.288,0.578 0.235,1.15 0.076,1.629 -0.157,0.469 -0.422,0.867 -0.588,1.115 L 8.209,15.639 A 0.25016994,0.25016994 0 1 1 7.793,15.361 c 0.168,-0.252 0.4,-0.6 0.533,-1.003 0.133,-0.396 0.163,-0.824 -0.049,-1.246 L 8.264,13.084 c -0.24,-0.48 -0.38,-0.758 -0.448,-1.102 a 3.177,3.177 0 0 1 -0.052,-0.45 l -0.04,0.08 A 0.25,0.25 0 1 1 7.277,11.388 L 7.512,10.92 Z M 6.013,2.06 C 5.364,1.88 4.53,2.143 4.163,2.858 4.032,3.116 3.918,3.547 4.083,4.193 4.146,4.437 4.497,4.391 4.57,4.15 4.78,3.453 5.197,2.703 5.929,2.458 6.146,2.385 6.233,2.121 6.013,2.06 Z"
     id="path5931"
     style="fill:#d4aa00" />
  <path
     style="fill:none;stroke:#806600;stroke-width:0.101887"
     d="M 7.8301887,9.9110889 C 7.122117,9.4003734 6.5560694,8.9555628 6.0377358,8.5025464 5.6748713,8.1854077 4.9417385,7.4532747 4.6842873,7.1509434 3.838308,6.1574892 3.3278546,5.2584881 3.1136959,4.3848464 3.0330274,4.0557664 3.0123131,3.845077 3.0242241,3.474814 3.0359271,3.1110143 3.0782965,2.8969745 3.1967651,2.6031772 3.7296217,1.2817152 5.3781291,0.63466353 6.653807,1.2462621 6.9392908,1.3831317 7.0650194,1.4855031 7.5424528,1.9698191 L 8,2.4339623 8.4575472,1.9698191 C 8.9373994,1.4830493 9.0613758,1.3824042 9.3496389,1.2456115 10.272577,0.80763939 11.427738,1.0058391 12.20241,1.7350834 c 0.36242,0.341167 0.591332,0.7328236 0.715151,1.223587 0.06004,0.237983 0.08199,0.7339019 0.04536,1.0249211 C 12.753162,5.6500458 11.241793,7.6187945 8.7264151,9.5021717 8.4356949,9.719847 8.0067374,10.028742 7.9968526,10.027534 7.9933949,10.027111 7.9183962,9.9747108 7.8301887,9.9110889 Z M 4.4015494,4.3419464 C 4.4902482,4.3039947 4.5569592,4.2215713 4.5943195,4.1037736 4.8508367,3.2949674 5.2936057,2.7339008 5.8658042,2.492578 6.0361645,2.4207291 6.0836008,2.3868172 6.1245732,2.3075853 6.1822789,2.195995 6.1298172,2.0830638 6.0038587,2.0477304 5.8453911,2.0032776 5.5944972,1.986613 5.4140417,2.0085542 4.7033064,2.0949713 4.1608875,2.5745699 4.0273599,3.2346377 c -0.0598,0.2956119 -0.00613,0.937551 0.087848,1.0507914 0.032603,0.039284 0.1252513,0.080774 0.1825679,0.081757 0.023682,4.057e-4 0.07038,-0.010952 0.1037736,-0.02524 z"
     id="path6008" />
</svg>
