<?xml version="1.0" encoding="UTF-8" standalone="no"?>
<!-- Created with Inkscape (http://www.inkscape.org/) -->

<svg
   width="200"
   height="200"
   viewBox="0 0 52.916665 52.916666"
   version="1.1"
   id="svg21"
   xml:space="preserve"
   inkscape:export-filename="add-basket.svg"
   inkscape:export-xdpi="96"
   inkscape:export-ydpi="96"
   xmlns:inkscape="http://www.inkscape.org/namespaces/inkscape"
   xmlns:sodipodi="http://sodipodi.sourceforge.net/DTD/sodipodi-0.dtd"
   xmlns="http://www.w3.org/2000/svg"
   xmlns:svg="http://www.w3.org/2000/svg"><sodipodi:namedview
     id="namedview23"
     pagecolor="#ffffff"
     bordercolor="#000000"
     borderopacity="0.25"
     inkscape:showpageshadow="2"
     inkscape:pageopacity="0.0"
     inkscape:pagecheckerboard="0"
     inkscape:deskcolor="#d1d1d1"
     inkscape:document-units="mm"
     showgrid="false" /><defs
     id="defs18" /><g
     inkscape:label="Layer 1"
     inkscape:groupmode="layer"
     id="layer1"><path
       style="fill:#d4aa00;stroke-width:0.0475127"
       d="M 7.684855,50.953934 C 7.2741314,50.881245 6.4751374,50.630576 6.2012935,50.488496 5.3483322,50.045951 4.7783293,49.277381 4.5477223,48.258888 4.428295,47.731427 4.1364909,46.346989 3.8928745,45.152026 3.7928351,44.661321 3.5957905,43.728139 3.4549976,43.078287 3.3142047,42.428434 3.0157736,41.02866 2.7918154,39.967678 2.5678594,38.906693 2.2702556,37.499384 2.1304741,36.840322 1.9906865,36.181259 1.8569091,35.541053 1.8331904,35.41764 1.8094743,35.294227 1.662957,34.597752 1.5076002,33.869918 L 1.2251344,32.546582 v -8.534015 -8.534012 l 0.4352955,0.02675 c 0.8284247,0.05093 1.4750903,0.354604 2.0700531,0.972122 0.5847826,0.606951 0.7308229,0.966763 1.0522073,2.592397 0.080373,0.406543 0.262139,1.270866 0.4039254,1.920718 0.1417864,0.649852 0.339517,1.583034 0.4394018,2.07374 0.2196313,1.078983 0.3549508,1.72588 0.6002445,2.869476 0.102409,0.477443 0.2626181,1.237011 0.3560211,1.687928 0.093404,0.450918 0.2418065,1.14538 0.3297828,1.543248 0.087978,0.397868 0.1935085,0.897013 0.2345144,1.10921 0.041009,0.212197 0.229556,1.112826 0.4190009,2.001399 0.1894444,0.888573 0.5275128,2.483666 0.7512627,3.544649 0.4840798,2.295425 0.489581,2.318099 0.6668422,2.749067 0.534016,1.298327 1.5158259,2.242241 3.2820099,3.155335 2.466276,1.275029 6.304494,2.223176 10.44503,2.580208 2.040636,0.175963 4.85359,0.22716 6.763982,0.123112 5.546505,-0.302087 10.179668,-1.428517 13.021013,-3.165711 0.446124,-0.272759 0.925551,-0.738437 1.230743,-1.195445 0.08486,-0.127064 0.256471,-0.487878 0.381374,-0.801809 0.223657,-0.562141 0.337115,-1.021338 0.696227,-2.817813 0.07953,-0.397869 0.216607,-1.081479 0.304612,-1.519135 0.088,-0.437654 0.286497,-1.425093 0.441094,-2.194305 0.307071,-1.527855 0.542296,-2.676162 0.757957,-3.700125 0.07667,-0.36402 0.168683,-0.830613 0.204482,-1.036871 0.0358,-0.206257 0.09984,-0.526927 0.142307,-0.7126 0.04246,-0.185672 0.182261,-0.858431 0.310646,-1.495021 0.128384,-0.63659 0.273448,-1.352753 0.322365,-1.591475 0.04891,-0.23872 0.183096,-0.90063 0.29818,-1.470908 0.115082,-0.570279 0.317516,-1.568567 0.449857,-2.218419 0.132339,-0.649852 0.281745,-1.398569 0.332015,-1.663815 0.228547,-1.205889 0.402341,-1.602235 0.953346,-2.174129 0.206534,-0.214363 0.491369,-0.456912 0.632969,-0.539 0.407735,-0.236374 0.946017,-0.401274 1.411234,-0.432326 l 0.414339,-0.02765 -3.3e-5,8.916985 -3.7e-5,8.916985 -0.23195,1.157436 c -0.12757,0.63659 -0.285838,1.41786 -0.351709,1.736154 -0.06586,0.318295 -0.17298,0.849992 -0.238027,1.181549 -0.06505,0.331558 -0.169516,0.841612 -0.232143,1.133455 -0.147004,0.685035 -0.517465,2.52089 -0.627665,3.110479 -0.08529,0.456339 -0.475136,2.359561 -0.661849,3.231175 -0.05397,0.251984 -0.212633,1.033253 -0.352566,1.736154 -0.300104,1.507478 -0.283819,1.450634 -0.634447,2.214735 -0.254307,0.554186 -0.305633,0.630216 -0.684007,1.013146 -0.435794,0.441042 -0.746503,0.639768 -1.298453,0.83049 l -0.327667,0.113221 -19.168517,0.0056 c -10.542687,0.0032 -19.2211796,-0.0036 -19.285543,-0.01499 z M 24.349061,34.879296 c -0.270327,-0.02326 -0.617887,-0.06562 -0.772357,-0.09412 -0.154474,-0.0285 -0.396713,-0.07316 -0.538312,-0.09923 -0.467141,-0.08601 -0.723395,-0.140339 -0.889381,-0.188548 -0.930816,-0.270343 -1.170959,-0.348583 -1.434766,-0.467456 -0.08113,-0.03656 -0.170936,-0.06646 -0.199576,-0.06646 -0.02864,0 -0.08865,-0.02101 -0.133354,-0.04671 -0.04471,-0.02569 -0.239264,-0.113744 -0.432354,-0.195664 -1.131057,-0.479866 -2.593015,-1.411999 -3.580932,-2.283176 -1.248622,-1.101077 -2.341189,-2.430923 -3.135315,-3.816234 -0.210421,-0.367066 -0.720782,-1.41974 -0.888494,-1.832607 -0.0431,-0.106099 -0.09594,-0.23631 -0.117431,-0.289359 -0.02148,-0.05305 -0.08531,-0.237516 -0.141835,-0.409926 -0.05652,-0.17241 -0.119884,-0.356876 -0.140809,-0.409925 -0.06529,-0.165502 -0.174293,-0.561238 -0.278978,-1.012757 -0.05536,-0.238721 -0.120726,-0.520846 -0.145284,-0.626944 -0.02457,-0.106098 -0.06696,-0.35567 -0.09422,-0.554605 -0.02726,-0.198934 -0.06867,-0.49191 -0.09203,-0.651058 -0.124112,-0.845581 -0.09615,-2.994862 0.05088,-3.911391 0.11215,-0.699079 0.336151,-1.759045 0.416792,-1.972242 0.02007,-0.05305 0.07501,-0.226664 0.122082,-0.385812 0.08851,-0.299221 0.364286,-1.084237 0.440483,-1.253889 0.02383,-0.05304 0.129551,-0.289275 0.234944,-0.524947 1.21226,-2.710764 3.441807,-5.1974776 5.945856,-6.6316825 1.697469,-0.9722331 3.200567,-1.4898185 5.289482,-1.8214114 0.761912,-0.1209453 2.881627,-0.1205659 3.651147,6.265e-4 0.774594,0.1220197 1.425864,0.264526 2.200048,0.4814002 0.394709,0.1105703 1.141449,0.3762353 1.191304,0.4238255 0.02446,0.023355 0.07295,0.042452 0.107765,0.042452 0.159879,0 1.99941,0.9462029 2.215333,1.1395045 0.04064,0.036389 0.08671,0.06616 0.102358,0.06616 0.05108,0 0.653853,0.4382277 1.251429,0.9098108 0.675678,0.5332174 1.842598,1.7148474 2.316279,2.3454794 0.179311,0.23872 0.343399,0.45574 0.364646,0.482264 0.783142,0.977739 1.901564,3.267584 2.237736,4.581518 0.293841,1.14848 0.341418,1.373478 0.474195,2.242532 0.133454,0.873493 0.145879,3.102558 0.02191,3.930461 -0.197122,1.316406 -0.442892,2.310653 -0.846407,3.424081 -0.160088,0.441735 -0.151933,0.422914 -0.522506,1.205662 -0.571771,1.207724 -1.154736,2.129045 -1.937724,3.062384 -1.318644,1.571853 -2.733991,2.730999 -4.408183,3.610227 -0.395538,0.207723 -0.845548,0.428769 -1.000018,0.491216 -0.154472,0.06245 -0.30087,0.130902 -0.325328,0.152126 -0.02446,0.02123 -0.07712,0.03872 -0.117023,0.03889 -0.0399,1.46e-4 -0.129062,0.03068 -0.198128,0.06779 -0.06907,0.03712 -0.195451,0.0829 -0.280859,0.101724 -0.08541,0.01882 -0.176346,0.05024 -0.202092,0.06982 -0.04762,0.03622 -0.08361,0.04677 -0.865977,0.254006 -0.817594,0.216572 -0.827887,0.218641 -1.872383,0.376426 -0.43331,0.06545 -2.459541,0.09592 -3.042621,0.04574 z m 1.984912,-5.25502 c 0.50637,-0.133428 0.858864,-0.342414 1.209199,-0.716908 0.30768,-0.328897 0.388841,-0.461377 0.566063,-0.923978 0.09933,-0.259253 0.10161,-0.317819 0.10161,-2.592187 v -2.32694 l 0.678739,-0.0063 c 3.01548,-0.0277 4.719442,-0.07785 4.961815,-0.146043 0.460538,-0.129564 0.798618,-0.329531 1.121988,-0.663632 0.997424,-1.03052 0.999199,-2.63171 0.0041,-3.664199 -0.174534,-0.181087 -0.40782,-0.366506 -0.54093,-0.429939 -0.128728,-0.06135 -0.267958,-0.13016 -0.309403,-0.152923 -0.04145,-0.02276 -0.256531,-0.07846 -0.477969,-0.123766 -0.361954,-0.07406 -0.5198,-0.07683 -1.56298,-0.02752 -0.638202,0.03017 -1.797563,0.05468 -2.576355,0.05446 l -1.41599,-4.1e-4 -0.0016,-2.254588 c -0.0016,-2.218647 -0.04284,-3.211832 -0.137587,-3.309446 -0.02644,-0.02724 -0.04807,-0.08145 -0.04807,-0.12047 0,-0.176736 -0.30603,-0.696201 -0.579332,-0.983371 -0.276378,-0.290407 -0.788588,-0.614326 -0.971424,-0.614326 -0.03787,0 -0.09518,-0.02713 -0.127367,-0.06028 -0.04075,-0.042 -0.241694,-0.06028 -0.662355,-0.06028 -0.420663,0 -0.621594,0.01828 -0.662357,0.06028 -0.03218,0.03315 -0.0895,0.06028 -0.127366,0.06028 -0.03787,0 -0.200927,0.06629 -0.362346,0.147306 -0.560693,0.281419 -1.119225,1.000875 -1.214747,1.564734 -0.01797,0.106098 -0.05313,0.219475 -0.07811,0.251947 -0.04794,0.0623 -0.01403,4.650617 0.03774,5.10555 l 0.02793,0.245487 -0.788073,0.03697 c -0.433441,0.02034 -1.704372,0.05315 -2.824291,0.07292 -2.179008,0.03847 -2.113077,0.03096 -2.668145,0.304085 -0.489805,0.241013 -1.134718,1.105351 -1.201981,1.61094 -0.01548,0.116345 -0.04626,0.223075 -0.06841,0.237178 -0.05279,0.03361 -0.05243,0.82637 3.75e-4,0.859999 0.02235,0.01424 0.05443,0.114641 0.07127,0.223115 0.05456,0.351517 0.312043,0.819289 0.63702,1.157265 0.320419,0.333237 0.610945,0.508112 1.123429,0.676219 0.298535,0.09793 0.355595,0.09916 3.030919,0.06564 l 2.726657,-0.03417 0.0042,1.634491 c 0.0045,1.733529 0.04368,2.598714 0.134839,2.972874 0.223264,0.916443 0.94075,1.64336 1.850378,1.8747 0.435084,0.110652 0.684747,0.109574 1.118936,-0.0048 z"
       id="path2807" /></g></svg>
