<?xml version="1.0" encoding="UTF-8" standalone="no"?>
<!-- Created with Inkscape (http://www.inkscape.org/) -->

<svg
   version="1.1"
   id="svg2"
   width="102.4"
   height="98.559998"
   viewBox="0 0 102.4 98.559998"
   sodipodi:docname="checkout.png"
   xml:space="preserve"
   xmlns:inkscape="http://www.inkscape.org/namespaces/inkscape"
   xmlns:sodipodi="http://sodipodi.sourceforge.net/DTD/sodipodi-0.dtd"
   xmlns="http://www.w3.org/2000/svg"
   xmlns:svg="http://www.w3.org/2000/svg"><defs
     id="defs6"><clipPath
       clipPathUnits="userSpaceOnUse"
       id="clipPath741"><path
         id="path743"
         style="fill:#ff0000;fill-opacity:1;fill-rule:nonzero;stroke:none"
         d="m -352.22852,-81.78125 v 55.337891 c 12.60423,-20.549753 25.44142,-46.688689 36.35547,-46.535157 5.38233,0.07572 10.2962,6.565298 14.48243,23.308594 0.9871,3.948123 1.83696,7.927682 2.69921,11.904297 1.2915,5.879634 1.87037,11.872588 2.64649,17.832031 0.73094,5.335563 1.11008,10.707184 1.35547,16.0839846 0.17337,4.75378102 0.2371,9.5111319 0.2832,14.2675784 0.1287,4.47953 -0.33051,8.9429 -0.5293,13.412109 -0.24818,3.041871 -0.0198,6.069289 0.22657,9.09961 0.27008,3.598298 0.82957,7.171065 1.39062,10.734374 0.66112,4.712985 1.46765,9.402106 2.14063,14.113282 0.006,-0.03319 0.009,-0.13217 0.0176,-0.09961 0.5291,1.987681 0.83658,4.05559 1.13672,6.105469 0.65135,2.798857 1.08188,5.626577 1.43946,8.478516 -0.0164,-0.18177 -0.0921,-0.724185 -0.0488,-0.546875 0.23617,0.968253 0.29743,1.970896 0.42773,2.958984 0.30852,2.339552 0.51633,4.681089 0.70117,7.033203 0.3116,4.640324 0.37454,9.292517 0.43164,13.941407 0.0313,2.962971 1.7e-4,6.498132 0.16211,8.763672 0.26622,2.23192 0.22821,4.56313 0.78907,6.75977 -0.0416,0.15635 0.0657,0.38626 0.32812,1.44531 0.1834,0.20152 0.36814,0.40143 0.56445,0.58984 1.27771,1.36107 2.57541,2.76345 4.05079,3.91992 0.29688,0.23271 -0.33867,-0.42428 -0.76758,-0.875 5.57401,3.02773 11.39207,5.55855 17.20117,8.0918 7.95762,3.58139 16.48704,5.60096 24.89258,7.82031 9.47515,2.54399 19.27268,3.59716 29.00195,4.66406 8.00161,0.87158 16.04364,1.3658 24.0918,1.4336 7.83245,-0.007 15.66453,-0.1411 23.49609,-0.24805 3.33097,0.19778 6.53036,-0.52006 9.79688,-1.02539 0.16574,-0.0305 0.72257,-0.13452 1.20117,-0.22266 1.16224,-2.05445 2.33149,-4.1056 3.49805,-6.1582 1.68611,-2.88825 3.33,-5.79881 5.01953,-8.68554 2.30996,-3.93875 4.99684,-7.63136 7.5332,-11.42188 2.03642,-3.12972 4.23426,-6.14616 6.32617,-9.23438 1.30094,-1.770522 2.41323,-3.66308 3.56055,-5.533198 0.0733,-0.148237 0.092,-0.211278 0.13867,-0.316406 0.43716,-0.984753 0.92432,-2.062822 1.36328,-3.03711 0.90386,-2.400416 1.85124,-4.791055 2.70899,-7.21289 1.29925,-3.5683 2.70253,-7.097404 4.0039,-10.664063 0.10597,-0.311706 0.21592,-0.622665 0.31836,-0.935547 0.27775,-0.848294 0.54088,-1.706167 0.80274,-2.55664 0.72135,-2.342999 1.21583,-3.057982 0.69531,-2.289063 0.23855,-0.804463 0.60208,-1.938443 0.82617,-2.863281 0.0325,-0.134297 0.14628,-0.531481 0.0879,-0.40625 -0.0865,0.185355 -0.10237,0.397481 -0.17187,0.589844 -0.0466,0.128924 0.005,-0.275637 0.0176,-0.41211 0.15243,-2.414571 0.59662,-4.79901 0.85547,-7.203125 0.18095,-2.701245 0.65203,-5.36991 0.96094,-8.05664 0.20295,-2.750437 0.49987,-5.490791 0.91016,-8.21875 0.0144,-0.459995 0.17323,-0.906304 0.20703,-1.365235 0.0157,-0.212992 -0.0334,0.431079 -0.10352,0.632813 -0.0102,0.02941 -0.004,-0.09985 0.0352,-0.994141 0.0554,-2.88581 0.18555,-5.762084 0.35156,-8.644531 0.23912,-3.702707 0.93724,-7.346154 1.53711,-11 0.30755,-3.270605 1.13774,-6.422762 1.89844,-9.609375 0.59853,-2.1446496 1.29178,-4.2624883 2.05664,-6.3535158 14.54005,-39.7508022 40.994037,-54.3297072 62.187498,-50.1445312 V -81.78125 Z m 226.59375,176.400391 c -0.0921,0.135204 -0.17373,0.276536 -0.24804,0.423828 0.0384,-0.06204 0.0806,-0.121614 0.11914,-0.183594 0.0429,-0.07997 0.18,-0.315244 0.1289,-0.240234 z m -25.02929,40.716799 c -0.17397,0.10429 -0.3718,0.55363 -0.55078,0.72656 0.017,-0.0263 0.0721,-0.10306 0.0508,-0.0801 -0.0231,0.025 -0.095,0.12487 -0.125,0.16016 0.0258,-0.0251 0.0524,-0.0491 0.0781,-0.0742 0.23754,-0.23216 0.91632,-0.43818 0.71094,-0.69922 -0.0513,-0.0652 -0.10607,-0.068 -0.16406,-0.0332 z m 2.92187,0.47461 c -0.61578,0.0939 -1.17486,0.27084 -1.7539,0.4414 0.0106,-0.002 0.0819,-0.014 0.0898,-0.0156 0.37407,-0.075 0.74559,-0.16136 1.11523,-0.25586 0.18541,-0.0474 0.73801,-0.19882 0.54883,-0.16992 z m -1.30664,0.16992 c 0.12764,-0.0678 -0.27422,0.0902 -0.4082,0.14453 -0.11881,0.0481 -0.23646,0.12952 -0.36328,0.1875 0.009,-0.002 0.0327,-0.006 0.041,-0.008 0.24521,-0.10498 0.49509,-0.1991 0.73047,-0.32422 z" /></clipPath><clipPath
       clipPathUnits="userSpaceOnUse"
       id="clipPath830"><path
         id="path832"
         style="fill:#ff0000;fill-opacity:1;fill-rule:nonzero;stroke:none"
         d="M 1.6640625,1.7910156 V 94.824219 H 100.80078 V 42.058594 c -0.35935,0.474096 -0.73561,0.936058 -1.124999,1.386718 -1.02528,1.190134 -2.241969,2.170464 -3.498047,3.101563 -1.257933,0.902011 -2.650552,1.569735 -4.060546,2.191406 -0.836574,0.346276 -1.685532,0.661193 -2.519532,1.013672 -0.963329,0.419145 -1.966676,0.726217 -2.96875,1.035156 -1.161485,0.310792 -1.225935,0.366436 -2.591797,0.658203 0.03098,-0.0056 0.122205,-0.02372 0.0918,-0.01562 -0.405609,0.108091 -0.821211,0.179878 -1.232422,0.261718 -0.08841,0.01759 0.176245,-0.03911 0.265625,-0.05078 0.04992,-0.0065 -0.09751,0.02349 -0.146484,0.03516 -0.755583,0.18626 -1.524694,0.292812 -2.296875,0.375 -4.056243,4.012314 -9.85785,3.925592 -13.878906,-0.304687 -0.854978,-0.200884 -1.699501,-0.451569 -2.533203,-0.732422 -4.79417,2.95918 -12.551195,1.880469 -19.257813,-6.501953 -0.281466,-0.351797 -0.567803,-0.702254 -0.828125,-1.070313 -0.772175,-1.0204 -1.519946,-2.0628 -2.138672,-3.185547 -2.722516,-4.940322 -3.561598,-9.341093 -3.11914,-12.880859 -0.01689,-0.207099 -0.03096,-0.414426 -0.05469,-0.621094 -0.725577,-6.320744 0.501657,-11.108327 2.712891,-14.25 C 41.320705,11.836803 41.019004,11.17029 40.720704,10.501962 39.297881,7.3141568 38.581902,4.389336 38.416016,1.7910156 Z m 84.6562495,0 c 0.236913,0.100659 0.47781,0.1919534 0.710938,0.3007813 0.458279,0.2139317 0.907598,0.4465162 1.361328,0.6699219 2.326003,1.2499076 4.344085,2.9617518 6.34961,4.6582031 1.538423,1.2797339 2.924663,2.7224551 4.339843,4.1328121 0.595937,0.579739 1.163859,1.186033 1.718749,1.802735 V 1.7910156 Z" /></clipPath></defs><sodipodi:namedview
     id="namedview4"
     pagecolor="#ffffff"
     bordercolor="#000000"
     borderopacity="0.25"
     inkscape:showpageshadow="2"
     inkscape:pageopacity="0.0"
     inkscape:pagecheckerboard="0"
     inkscape:deskcolor="#d1d1d1"
     showgrid="false" /><g
     inkscape:groupmode="layer"
     inkscape:label="Image"
     id="g8"><path
       style="fill:#d4aa00;stroke-width:0.375436"
       d="m 42.406418,94.24589 c -3.968186,-1.835334 -4.767489,-6.462286 -1.604156,-9.286017 2.648709,-2.364353 6.111466,-2.323503 8.569431,0.101092 2.283414,2.252422 2.452162,5.063129 0.451728,7.52418 -1.753674,2.157475 -4.845981,2.849873 -7.417003,1.660745 z m 33.013883,-0.06831 c -4.735892,-2.078037 -4.482707,-8.68064 0.399968,-10.430418 4.130584,-1.480253 8.357338,1.192089 8.357338,5.283888 0,4.214083 -4.651891,6.947924 -8.757306,5.14653 z M 24.10437,78.733946 C 22.223409,78.174502 19.346898,75.372471 18.764566,73.532406 16.89186,67.614987 20.571815,62.589949 27.322929,61.845822 L 29.796948,61.57313 25.029852,40.297795 C 22.407949,28.596361 20.000059,18.497973 19.678985,17.856932 18.634426,15.771414 17.346737,15.425827 9.8258304,15.212556 3.3478316,15.028859 3.0781512,14.990935 2.3651218,14.163399 1.3682041,13.00638 1.4340751,11.815728 2.5629724,10.587159 l 0.9376196,-1.0204024 7.104443,0.017953 c 8.010857,0.020244 9.237815,0.3077263 12.26453,2.8736394 2.09651,1.777327 3.040586,3.725174 4.095308,8.449562 l 0.878144,3.933446 5.436681,0.100567 5.43668,0.100578 0.234527,3.718075 c 0.5213,8.264316 3.700062,15.024036 9.931307,21.119178 11.274397,11.028146 29.471969,13.200415 43.345228,5.17418 1.541158,-0.891627 2.802102,-1.469066 2.802102,-1.283203 0,0.74791 -2.395541,11.144348 -2.784261,12.083445 -0.229478,0.554358 -0.612517,1.127156 -0.851212,1.272883 -0.238705,0.145727 -15.055985,0.346785 -32.9273,0.446797 l -32.493301,0.18184 -0.740765,0.858571 c -1.028253,1.191786 -0.957161,3.006205 0.156246,3.987728 l 0.897012,0.790756 31.755699,0.0054 c 34.25495,0.0058 33.192985,-0.05448 34.213031,1.941779 0.608593,1.191012 0.05159,2.929326 -1.128517,3.521974 -1.031006,0.517792 -65.263046,0.395187 -67.021804,-0.127909 z M 70.364351,51.932788 C 67.277225,51.533139 62.975157,50.118272 60.222345,48.597282 57.414359,47.045801 52.569496,42.499556 50.916106,39.864645 44.817552,30.145707 46.258631,17.983106 54.472333,9.8503945 61.788989,2.6058816 72.128148,0.03688081 82.065594,2.9942179 c 4.214607,1.2542468 7.565399,3.1853477 10.80991,6.2298859 3.244524,3.0445372 5.30247,6.1887962 6.639099,10.1436282 3.160727,9.351988 0.420222,19.011018 -7.362012,25.947743 -5.72425,5.102331 -14.0226,7.622626 -21.78824,6.617313 z m 1.273274,-14.817201 c 0.999874,-0.527389 12.967211,-12.988334 15.939094,-16.596528 2.020689,-2.453331 0.204308,-6.015859 -3.076736,-6.034523 -0.781929,-0.0044 -1.692767,0.08952 -2.024089,0.208829 -0.331321,0.119303 -3.339278,3.156936 -6.684341,6.750293 l -6.081938,6.533379 -2.745914,-2.527323 c -3.099537,-2.852799 -3.920169,-3.335966 -5.665959,-3.335966 -1.698561,0 -3.862414,2.027207 -3.862414,3.618502 0,1.77311 0.784505,2.809059 5.301904,7.001218 5.488036,5.092915 6.555944,5.618703 8.900393,4.382119 z"
       id="path293"
       clip-path="url(#clipPath830)" /><path
       style="fill:#d4aa00;stroke-width:0.293808"
       d="m -312.92606,205.50656 c -2.49897,-0.45685 -7.36038,-2.03225 -9.02652,-2.92519 -5.18971,-2.78132 -8.65786,-7.61164 -10.06091,-14.01268 -0.72666,-3.315 -2.50214,-12.01593 -3.98434,-19.52606 -0.60869,-3.08398 -1.80761,-8.94886 -2.66422,-13.03306 -0.85663,-4.08421 -2.67238,-12.88152 -4.03503,-19.5496 -1.36266,-6.66809 -3.17336,-15.51277 -4.02383,-19.65485 -0.85054,-4.14209 -1.6645,-8.16567 -1.80883,-8.94129 -0.14422,-0.77563 -1.03573,-5.15284 -1.981,-9.727151 l -1.71859,-8.316924 v -53.6347 -53.63469 l 2.64846,0.168114 c 5.04047,0.32005 8.97498,2.228617 12.59499,6.109601 3.55802,3.8145754 4.44658,6.0759234 6.40197,16.2927354 0.48918,2.5550444 1.59495,7.9871596 2.45765,12.0713496 0.8627,4.08421 2.06577,9.94908 2.67347,13.03307 1.33631,6.78122 2.15965,10.84685 3.65214,18.03414 0.62304,3.00064 1.59781,7.77438 2.16615,10.60831 0.56828,2.83394 1.4712,7.1985 2.0065,9.69902 0.53543,2.50054 1.17739,5.63757 1.42685,6.97119 0.24946,1.33361 1.39672,6.9939 2.5494,12.57842 1.15263,5.58452 3.20957,15.609395 4.57094,22.277465 2.94532,14.42632 2.97878,14.56883 4.05729,17.27738 3.24918,8.15974 9.22286,14.09207 19.96893,19.83069 15.00574,8.01333 38.35879,13.97225 63.55133,16.21614 12.41599,1.10589 29.53099,1.42765 41.15449,0.77373 33.74696,-1.89856 61.93678,-8.97796 79.22451,-19.8959 2.714421,-1.71425 5.631441,-4.64095 7.488331,-7.51316 0.51656,-0.79857 1.56046,-3.06622 2.32039,-5.03922 1.36083,-3.53295 2.05116,-6.41892 4.23611,-17.70943 0.48371,-2.50054 1.31794,-6.79689 1.85336,-9.54749 0.53543,-2.75057 1.74317,-8.956445 2.68375,-13.790795 1.86839,-9.60229 3.29955,-16.81918 4.6117,-23.2546 0.46668,-2.28781 1.02631,-5.22025 1.24413,-6.51654 0.21782,-1.29629 0.60722,-3.31165 0.86587,-4.47856 0.25856,-1.16692 1.10893,-5.39509 1.8901,-9.39594 0.78111,-4.00085 1.66372,-8.5018 1.96136,-10.00212 0.29753,-1.50031 1.11405,-5.66029 1.81424,-9.24438 0.70018,-3.5841 1.9319,-9.85816 2.7371,-13.94236 0.80521,-4.084198 1.71421,-8.7897476 2.02007,-10.4567686 1.39058,-7.578788 2.44798,-10.06975 5.80053,-13.663998 1.2566,-1.3472314 2.98967,-2.8716054 3.85121,-3.3875154 2.48078,-1.485565 5.75593,-2.52193 8.58643,-2.717086 l 2.521,-0.173745 -1.8e-4,56.041603 -2.5e-4,56.0416 -1.41126,7.274275 c -0.77618,4.00085 -1.73916,8.91099 -2.13994,10.91141 -0.40096,2.00042 -1.05247,5.34204 -1.44819,7.42581 -0.39547,2.08378 -1.03142,5.28937 -1.41249,7.12356 -0.8944,4.30531 -3.14841,15.84332 -3.8189,19.54878 -0.519,2.86801 -2.89093,14.8294 -4.02694,20.30734 -0.32855,1.58367 -1.29372,6.4938 -2.14517,10.9114 -1.82591,9.47422 -1.72685,9.11697 -3.86015,13.9192 -1.54732,3.48296 -1.85963,3.9608 -4.16177,6.36744 -2.65156,2.77187 -4.54197,4.02082 -7.90024,5.21947 l -1.99366,0.71158 -116.628171,0.0355 c -64.14553,0.02 -116.94858,-0.0227 -117.34017,-0.0942 z m 101.39099,-101.02612 c -1.64473,-0.14616 -3.75941,-0.41242 -4.69926,-0.59153 -0.93991,-0.17915 -2.41379,-0.4598 -3.27527,-0.62364 -2.84231,-0.54056 -4.40142,-0.88201 -5.41137,-1.18499 -5.66338,-1.69906 -7.12448,-2.190791 -8.72959,-2.937881 -0.49345,-0.22976 -1.04006,-0.41769 -1.21432,-0.41769 -0.17404,0 -0.53968,-0.13206 -0.81135,-0.29356 -0.27197,-0.16146 -1.4558,-0.71486 -2.63063,-1.22971 -6.88172,-3.015884 -15.77681,-8.874174 -21.78767,-14.349364 -7.59706,-6.92005 -14.24464,-15.27788 -19.07635,-23.98431 -1.28028,-2.30694 -4.38549,-8.9228 -5.40596,-11.51759 -0.26223,-0.66681 -0.58349,-1.48516 -0.71448,-1.81857 -0.13084,-0.33342 -0.519,-1.49274 -0.86295,-2.57631 -0.34377,-1.08356 -0.72946,-2.2429 -0.85674,-2.5763 -0.39731,-1.04015 -1.06044,-3.52727 -1.69742,-6.36499 -0.33707,-1.50031 -0.73456,-3.27342 -0.88393,-3.94023 -0.14969,-0.6668 -0.40766,-2.23532 -0.57315,-3.48559 -0.16608,-1.25026 -0.41801,-3.09156 -0.55976,-4.09178 -0.75519,-5.31432 -0.5847,-18.8221546 0.30968,-24.5823666 0.68235,-4.393584 2.04525,-11.0552734 2.5359,-12.3951754 0.12229,-0.333392 0.45631,-1.424542 0.74278,-2.424756 0.53846,-1.880545 2.21647,-6.814227 2.68003,-7.880458 0.14479,-0.333317 0.78823,-1.818044 1.42952,-3.299192 7.37583,-17.036655 20.94115,-32.665185 36.17669,-41.678898 10.32802,-6.110305 19.47342,-9.363237 32.18316,-11.447238 4.63574,-0.760117 17.53281,-0.757735 22.21485,0.0039 4.71295,0.766874 8.67551,1.662498 13.3859,3.025511 2.40156,0.694912 6.94499,2.364567 7.2483,2.663668 0.14906,0.146751 0.44356,0.266793 0.65571,0.266793 0.97277,0 12.16513,5.946704 13.47886,7.161571 0.24703,0.228703 0.52752,0.415803 0.6228,0.415803 0.3109,0 3.97826,2.754182 7.61416,5.717993 4.11107,3.351171 11.21104,10.777501 14.09307,14.740905 1.09099,1.50031 2.08937,2.864239 2.2186,3.030943 4.76497,6.144903 11.56984,20.536157 13.61522,28.793987 1.78783,7.2179854 2.07732,8.6320544 2.88521,14.0939024 0.81195,5.489741 0.88752,19.4989976 0.13326,24.7022176 -1.19941,8.27337 -2.69476,14.52202 -5.14986,21.51971 -0.97405,2.77623 -0.9244,2.65794 -3.17914,7.57737 -3.47886,7.59032 -7.02579,13.38065 -11.78979,19.24651 -8.02314,9.87881 -16.63458,17.16383 -26.82095,22.68961 -2.40661,1.3055 -5.14463,2.694734 -6.08448,3.087204 -0.93986,0.3925 -1.83061,0.8227 -1.97943,0.95608 -0.14906,0.13342 -0.4691,0.24337 -0.71199,0.24443 -0.2428,9.1e-4 -0.78531,0.19279 -1.2055,0.42605 -0.42041,0.23327 -1.18918,0.52101 -1.70885,0.63931 -0.5196,0.1183 -1.07298,0.315781 -1.22959,0.438811 -0.28962,0.2276 -0.50865,0.29393 -5.26893,1.59637 -4.97451,1.36112 -5.03718,1.37412 -11.39223,2.36578 -2.63642,0.41134 -14.96473,0.60283 -18.5124,0.28747 z m 12.07697,-33.026835 c 3.08094,-0.83858 5.22561,-2.15202 7.35721,-4.50564 1.87203,-2.06705 2.36584,-2.89967 3.44411,-5.80703 0.60417,-1.62936 0.61823,-1.99743 0.61823,-16.29141 v -14.62439 l 4.1297,-0.0398 c 18.34727,-0.17408 28.71477,-0.48927 30.18943,-0.91785 2.8021,-0.81428 4.8591,-2.07104 6.8266,-4.1708 6.06866,-6.47663 6.07949,-16.5398142 0.0246,-23.0288206 -1.0619,-1.13809597 -2.48131,-2.30342597 -3.29121,-2.70208697 -0.78324,-0.38556403 -1.63036,-0.81803303 -1.8825,-0.96109203 -0.25187,-0.143055 -1.56082,-0.493104 -2.90814,-0.777846 -2.20229,-0.465452 -3.16265,-0.482865 -9.50973,-0.172951 -3.88304,0.189581 -10.937,0.343635 -15.6755,0.342236 l -8.6154,-0.0026 -0.0117,-14.1696644 c -0.0117,-13.943788 -0.26041,-20.185769 -0.83708,-20.799254 -0.16063,-0.171212 -0.29265,-0.511899 -0.29265,-0.75713 0,-1.110754 -1.862,-4.375499 -3.52492,-6.180306 -1.68153,-1.825157 -4.798,-3.860931 -5.91047,-3.860931 -0.23055,0 -0.57923,-0.170495 -0.77496,-0.378845 -0.24824,-0.263962 -1.47053,-0.378848 -4.02998,-0.378848 -2.55944,0 -3.78203,0.114897 -4.03003,0.378848 -0.19593,0.208365 -0.54455,0.378845 -0.77491,0.378845 -0.23055,0 -1.22253,0.416625 -2.20467,0.925791 -3.41144,1.768672 -6.80979,6.290321 -7.39098,9.834067 -0.10949,0.666806 -0.32307,1.379365 -0.47518,1.58344 -0.29144,0.391544 -0.0852,29.2282654 0.22938,32.0874364 l 0.16974,1.542841 -4.7949,0.232327 c -2.63721,0.127824 -10.37,0.334035 -17.184,0.458287 -13.25788,0.241776 -12.85674,0.194608 -16.23398,1.91112203 -2.98012,1.51472097 -6.90399,6.94691937 -7.31328,10.12445957 -0.0943,0.73121 -0.28173,1.401985 -0.41616,1.490615 -0.32126,0.21124 -0.31885,5.19359 0.002,5.40494 0.13629,0.0895 0.33097,0.7205 0.43381,1.40223 0.33222,2.20923 1.89856,5.14908 3.87586,7.2732 1.94954,2.09433 3.71717,3.19339 6.83535,4.24991 1.81636,0.61547 2.16354,0.6232 18.4412,0.41253 l 16.58993,-0.21475 0.0246,10.27248 c 0.0302,10.8949 0.26585,16.33244 0.82041,18.68396 1.35846,5.75967 5.72386,10.32821 11.25838,11.78214 2.64718,0.69543 4.16626,0.68865 6.80803,-0.0298 z"
       id="path2807"
       clip-path="url(#clipPath741)"
       transform="matrix(0.27880892,0,0,0.26508009,129.43525,24.730144)" /></g></svg>
