<?xml version="1.0" encoding="UTF-8" standalone="no"?>
<!-- Created with Inkscape (http://www.inkscape.org/) -->

<svg
   width="200"
   height="200"
   viewBox="0 0 52.916665 52.916666"
   version="1.1"
   id="svg21"
   xml:space="preserve"
   inkscape:export-filename="add-item.svg"
   inkscape:export-xdpi="96"
   inkscape:export-ydpi="96"
   xmlns:inkscape="http://www.inkscape.org/namespaces/inkscape"
   xmlns:sodipodi="http://sodipodi.sourceforge.net/DTD/sodipodi-0.dtd"
   xmlns="http://www.w3.org/2000/svg"
   xmlns:svg="http://www.w3.org/2000/svg"><sodipodi:namedview
     id="namedview23"
     pagecolor="#ffffff"
     bordercolor="#000000"
     borderopacity="0.25"
     inkscape:showpageshadow="2"
     inkscape:pageopacity="0.0"
     inkscape:pagecheckerboard="0"
     inkscape:deskcolor="#d1d1d1"
     inkscape:document-units="mm"
     showgrid="false" /><defs
     id="defs18"><inkscape:path-effect
       effect="powerstroke"
       id="path-effect4557"
       is_visible="true"
       lpeversion="1"
       offset_points="0.75692387,2.8480226"
       not_jump="true"
       sort_points="true"
       interpolator_type="CentripetalCatmullRom"
       interpolator_beta="0.75"
       start_linecap_type="round"
       linejoin_type="spiro"
       miter_limit="4"
       scale_width="1"
       end_linecap_type="round" /><inkscape:path-effect
       effect="simplify"
       id="path-effect4555"
       is_visible="true"
       lpeversion="1"
       steps="1"
       threshold="0.0071244192"
       smooth_angles="0"
       helper_size="0"
       simplify_individual_paths="false"
       simplify_just_coalesce="false"
       step="1" /></defs><g
     inkscape:label="Layer 1"
     inkscape:groupmode="layer"
     id="layer1"><path
       style="fill:#ffcc00;fill-opacity:1;stroke-width:0.197762"
       d="m 21.706011,51.627355 c -2.05275,-0.984425 -2.46623,-3.466197 -0.82983,-4.980771 1.37018,-1.268175 3.16148,-1.246264 4.43299,0.05424 1.18121,1.208141 1.26851,2.715728 0.23367,4.035768 -0.90718,1.157209 -2.50683,1.528595 -3.83683,0.890779 z m 17.07818,-0.03665 c -2.44989,-1.114605 -2.31892,-4.656061 0.20691,-5.594597 2.13677,-0.793968 4.32328,0.639406 4.32328,2.834138 0,2.260321 -2.40644,3.726677 -4.53018,2.760459 z m -26.54588,-8.283549 c -0.97302,-0.30007 -2.4610504,-1.803008 -2.7623004,-2.789969 -0.96875,-3.173942 0.9349004,-5.869237 4.4272704,-6.268368 l 1.27982,-0.146255 -2.46603,-11.411513 c -1.35633,-6.276334 -2.60193,-11.69284 -2.7680204,-12.036677 -0.54036,-1.1186144 -1.20648,-1.3039794 -5.09707,-1.4183714 -3.35109,-0.09853 -3.49059,-0.118859 -3.85944999,-0.56274 -0.5157,-0.620595 -0.48163,-1.259227 0.10234999,-1.918199 l 0.48503,-0.547318 3.67515,0.0096 c 4.14404,0.01086 4.7787404,0.165056 6.3444704,1.541343 1.08453,0.953311 1.57291,1.998084 2.11852,4.5321184 l 0.45426,2.109795 2.81241,0.05395 2.81242,0.05395 0.12131,1.994277 c 0.26967,4.432755 1.91406,8.058487 5.1375,11.327758 5.83227,5.915198 15.24593,7.080344 22.42261,2.775289 0.79724,-0.478241 1.44954,-0.787963 1.44954,-0.688271 0,0.401159 -1.23923,5.977526 -1.44032,6.481233 -0.1187,0.297345 -0.31685,0.604578 -0.44033,0.68274 -0.12347,0.07817 -7.7885,0.185998 -17.03338,0.23965 l -16.80888,0.09752 -0.3832,0.460517 c -0.53192,0.639242 -0.49515,1.612446 0.0808,2.138911 l 0.46402,0.424137 16.42732,0.0029 c 17.72018,0.003 17.17082,-0.02924 17.6985,1.041518 0.31482,0.638826 0.0267,1.571212 -0.58379,1.889092 -0.53334,0.277727 -33.76076,0.211964 -34.67057,-0.06861 z m 23.93042,-14.37542 c -1.59698,-0.21436 -3.82245,-0.97326 -5.24649,-1.789076 -1.45258,-0.832174 -3.95884,-3.270656 -4.81414,-4.683952 -3.1548,-5.212975 -2.40933,-11.736668 1.83965,-16.0988364 3.78493,-3.885762 9.1334,-5.263703 14.27407,-3.677467 2.18023,0.672743 3.9136,1.708534 5.592,3.341541 1.67839,1.633009 2.74298,3.319505 3.43442,5.4407694 1.635057,5.016156 0.21738,10.196997 -3.80839,13.917673 -2.96117,2.736753 -7.25393,4.08857 -11.27112,3.549348 z m 0.65867,-7.947548 c 0.51724,-0.282876 6.70798,-6.966592 8.24534,-8.901931 1.04531,-1.315901 0.10569,-3.2267454 -1.5916,-3.2367564 -0.4045,-0.0024 -0.87568,0.04802 -1.04707,0.112026 -0.1714,0.06399 -1.72742,1.6932964 -3.45783,3.6206774 l -3.14621,3.504321 -1.42046,-1.355588 c -1.6034,-1.530164 -2.02792,-1.789323 -2.93102,-1.789323 -0.87867,0 -1.99804,1.087338 -1.99804,1.940868 0,0.951048 0.40583,1.506703 2.74269,3.755265 2.83898,2.731703 3.39141,3.013721 4.6042,2.350449 z"
       id="path2912" /><path
       style="font-variation-settings:normal;opacity:1;vector-effect:none;fill:#00ff00;fill-opacity:1;fill-rule:evenodd;stroke-width:0.267224;stroke-linecap:butt;stroke-linejoin:miter;stroke-miterlimit:4;stroke-dasharray:none;stroke-dashoffset:0;stroke-opacity:1;-inkscape-stroke:none;stop-color:#000000;stop-opacity:1"
       id="path3294"
       sodipodi:type="arc"
       sodipodi:cx="38.012402"
       sodipodi:cy="15.620837"
       sodipodi:rx="13.967956"
       sodipodi:ry="13.67239"
       sodipodi:start="0.086039185"
       sodipodi:end="0.083959649"
       sodipodi:open="true"
       sodipodi:arc-type="arc"
       d="M 51.928688,16.795748 A 13.967956,13.67239 0 0 1 36.819327,29.243261 13.967956,13.67239 0 0 1 24.094874,14.460091 13.967956,13.67239 0 0 1 39.191005,1.9972067 13.967956,13.67239 0 0 1 51.931154,16.767418" /><path
       d="m 27.55139,19.218945 c 0.762298,0.757365 1.442327,1.495589 3.038962,3.339295 0.470332,0.543113 1.057564,1.222557 1.637488,1.867512 0.441471,0.490977 1.027095,1.128247 1.681809,1.782517 0.196166,0.196033 0.402212,0.386951 0.646275,0.518646 0.244063,0.131696 0.516755,0.199104 0.788299,0.255445 0.275304,0.05712 0.582083,0.08334 0.909914,0.05629 0.315259,-0.02601 0.622572,-0.0991 0.913093,-0.215533 0.277194,-0.111094 0.517784,-0.253021 0.722411,-0.405627 0.196025,-0.14619 0.357033,-0.300591 0.487604,-0.445913 0.243761,-0.271297 0.409314,-0.542257 0.518628,-0.7471 0.106226,-0.199054 0.185843,-0.386202 0.243673,-0.533484 0.08606,-0.219185 0.202475,-0.569527 0.216072,-0.607917 0.01998,-0.05642 0.02263,-0.05941 0.01221,-0.03584 -0.0062,0.01412 -0.05756,0.132084 -0.166227,0.288053 l 0.31658,-0.593237 c 1.284666,-3.293832 2.742601,-6.369906 4.365411,-9.914038 0.364801,-0.686977 0.790774,-1.41313 1.217487,-2.180384 0.473247,-0.850923 0.931629,-1.7275266 1.316345,-2.6737653 0.04778,-0.1175258 0.08766,-0.2381246 0.119366,-0.3609676 0.0314,-0.1216842 0.07196,-0.3036456 0.09239,-0.5227142 0.01064,-0.1140907 0.01803,-0.2609806 0.0097,-0.4307835 C 46.630659,7.49065 46.605304,7.2645774 46.5331,7.0075544 46.45848,6.7419307 46.327848,6.4188093 46.089316,6.0902028 45.839348,5.7458461 45.503052,5.4436019 45.090073,5.2284943 44.68088,5.015359 44.27907,4.9303216 43.943965,4.9087694 c -0.330224,-0.021237 -0.608015,0.01778 -0.807037,0.06128 -0.383997,0.08393 -0.666748,0.2277109 -0.801245,0.3014759 -0.158302,0.08682 -0.282461,0.1729228 -0.361262,0.2306189 -0.161648,0.1183548 -0.291066,0.2347115 -0.360875,0.2990072 -0.08421,0.077562 -0.159014,0.1515408 -0.207907,0.2004372 -0.05826,0.058267 -0.10082,0.1018484 -0.125857,0.1271151 -0.03828,0.038632 -0.02523,0.024297 0.0081,-0.00619 0.01722,-0.015739 0.0811,-0.073944 0.175356,-0.1448845 0.05132,-0.038622 0.144654,-0.1061111 0.270175,-0.1789966 0.106286,-0.061717 0.38972,-0.21957 0.79128,-0.3106188 a 2.8480226,2.8480226 90 0 0 1.259538,5.5550419 c 0.406303,-0.09212 0.695729,-0.25256 0.809441,-0.318588 0.132449,-0.07691 0.233931,-0.149908 0.294758,-0.195686 0.111775,-0.08412 0.197508,-0.160883 0.241757,-0.201316 0.08182,-0.07476 0.155396,-0.148883 0.19566,-0.189517 0.04308,-0.04347 0.07974,-0.08092 0.107591,-0.108765 0.0254,-0.0254 0.0443,-0.043208 0.03897,-0.038298 -0.005,0.00457 -0.02298,0.026522 -0.13304,0.1071085 -0.04471,0.03274 -0.136323,0.09739 -0.264637,0.167763 -0.105264,0.05773 -0.361121,0.190183 -0.721562,0.268964 -0.187445,0.04097 -0.454455,0.07895 -0.774808,0.05835 C 43.25303,10.572146 42.860082,10.489374 42.458735,10.280325 42.053521,10.069262 41.723997,9.772847 41.479696,9.4362957 41.246762,9.1154022 41.120646,8.801932 41.049333,8.5480819 c -0.06893,-0.2453733 -0.0922,-0.4577117 -0.09967,-0.6104662 -0.0075,-0.1539534 -6.45e-4,-0.2827684 0.0081,-0.3763779 0.01666,-0.1786363 0.04797,-0.3107512 0.06371,-0.3717335 0.0317,-0.1228429 0.07158,-0.2434416 0.119366,-0.3609672 -0.256695,0.6313608 -0.586507,1.2752307 -1.017713,2.050562 -0.39633,0.712622 -0.857146,1.4932769 -1.314689,2.3614599 -0.0247,0.04686 -0.04808,0.09441 -0.07013,0.142574 -1.561666,3.412078 -3.096695,6.649888 -4.447376,10.086285 -0.05645,0.106759 -0.10031,0.201286 -0.133107,0.275503 -0.07487,0.169424 -0.132899,0.327715 -0.171424,0.436486 -0.08699,0.245601 -0.135892,0.394834 -0.148819,0.427758 -0.0069,0.01745 -0.0023,-2.38e-4 0.03305,-0.06643 0.03124,-0.05853 0.114578,-0.205529 0.269632,-0.378099 0.08429,-0.09381 0.197549,-0.203914 0.344127,-0.313229 0.153439,-0.11443 0.341228,-0.226293 0.563835,-0.31551 0.233758,-0.09369 0.482603,-0.152969 0.73758,-0.174005 0.264805,-0.02185 0.506831,-1.11e-4 0.715631,0.04321 0.271544,0.05634 0.544236,0.123749 0.788299,0.255445 0.244063,0.131695 0.450109,0.322613 0.646275,0.518646 -0.553521,-0.553146 -1.063651,-1.107174 -1.47257,-1.561948 -0.537283,-0.597533 -1.087282,-1.233679 -1.567198,-1.78786 -1.633716,-1.886525 -2.420457,-2.747326 -3.330221,-3.651204 a 2.8480226,2.8480226 90 0 0 -4.014618,4.040764 z"
       id="path-1"
       inkscape:path-effect="#path-effect4555;#path-effect4557"
       inkscape:original-d="m 29.558699,17.198563 c 1.162076,1.125571 2.186053,2.373351 3.257788,3.581232 0.182152,0.205291 2.967815,3.425811 3.246644,3.517043 0.18634,0.06097 1.010176,-2.123708 1.095836,-2.337561 1.24519,-3.108661 2.673893,-6.095697 4.045304,-9.146988 0.252807,-0.562479 2.64348,-4.596129 2.592856,-5.0335168 -0.014,-0.1209243 -0.210913,0.088327 -0.64264,0.486768"
       style="fill:#fff6d5;fill-opacity:1;fill-rule:nonzero;stroke:none;stroke-width:10" /></g></svg>
