<?xml version="1.0" encoding="UTF-8" standalone="no"?>
<!-- Created with Inkscape (http://www.inkscape.org/) -->

<svg
   width="200"
   height="200"
   viewBox="0 0 52.916665 52.916666"
   version="1.1"
   id="svg21"
   xml:space="preserve"
   inkscape:export-filename="add-basket.svg"
   inkscape:export-xdpi="96"
   inkscape:export-ydpi="96"
   xmlns:inkscape="http://www.inkscape.org/namespaces/inkscape"
   xmlns:sodipodi="http://sodipodi.sourceforge.net/DTD/sodipodi-0.dtd"
   xmlns="http://www.w3.org/2000/svg"
   xmlns:svg="http://www.w3.org/2000/svg"><sodipodi:namedview
     id="namedview23"
     pagecolor="#ffffff"
     bordercolor="#000000"
     borderopacity="0.25"
     inkscape:showpageshadow="2"
     inkscape:pageopacity="0.0"
     inkscape:pagecheckerboard="0"
     inkscape:deskcolor="#d1d1d1"
     inkscape:document-units="mm"
     showgrid="false" /><defs
     id="defs18" /><g
     inkscape:label="Layer 1"
     inkscape:groupmode="layer"
     id="layer1"><path
       style="fill:#d4aa00;stroke-width:0.197762"
       d="m 21.802158,51.415358 c -2.052757,-0.984425 -2.466237,-3.466197 -0.829835,-4.980771 1.370184,-1.268175 3.161479,-1.246264 4.43299,0.05424 1.181215,1.208141 1.268509,2.715728 0.233675,4.035768 -0.907181,1.157209 -2.506839,1.528595 -3.836836,0.890779 z m 17.078175,-0.03665 c -2.449889,-1.114605 -2.318916,-4.656061 0.206915,-5.594597 2.136764,-0.793968 4.323275,0.639406 4.323275,2.834138 0,2.260321 -2.406435,3.726677 -4.530182,2.760459 z M 12.334453,43.095159 C 11.361429,42.795089 9.8734016,41.292151 9.5721582,40.30519 8.6034018,37.131248 10.507053,34.435953 13.999424,34.036822 L 15.279242,33.890567 12.813209,22.479054 C 11.456888,16.20272 10.21128,10.786214 10.045189,10.442377 9.5048354,9.3237629 8.8387121,9.1383978 4.9481225,9.024006 1.5970349,8.9254741 1.4575296,8.9051475 1.0886781,8.461266 0.57297016,7.8406712 0.60704507,7.202039 1.1910186,6.5430674 L 1.6760509,5.9957496 5.3512,6.0053571 c 4.1440403,0.010863 4.778748,0.1650558 6.344476,1.5413435 1.084531,0.9533106 1.572905,1.9980832 2.118516,4.5321174 l 0.454264,2.109795 2.812411,0.05395 2.812413,0.05395 0.121316,1.994277 c 0.26967,4.432755 1.914054,8.058487 5.137494,11.327758 5.832278,5.915198 15.245935,7.080344 22.422611,2.775289 0.797246,-0.478241 1.449539,-0.787963 1.449539,-0.688271 0,0.401159 -1.239226,5.977526 -1.440312,6.481233 -0.118706,0.297345 -0.316852,0.604578 -0.440334,0.68274 -0.123472,0.07817 -7.788502,0.185998 -17.033385,0.23965 l -16.808879,0.09752 -0.3832,0.460517 c -0.531919,0.639242 -0.495143,1.612446 0.08081,2.138911 l 0.464026,0.424137 16.427314,0.0029 c 17.720185,0.003 17.170828,-0.02924 17.698503,1.041518 0.314821,0.638826 0.02669,1.571212 -0.583785,1.889092 -0.533347,0.277727 -33.760765,0.211964 -34.670576,-0.06861 z m 23.930423,-14.37542 c -1.596979,-0.21436 -3.822452,-0.97326 -5.246491,-1.789076 -1.452578,-0.832174 -3.958838,-3.270656 -4.814143,-4.683952 -3.154801,-5.212975 -2.409325,-11.736668 1.839648,-16.0988354 3.784929,-3.8857624 9.133404,-5.2637032 14.274074,-3.6774678 2.180226,0.6727437 3.9136,1.7085342 5.591998,3.3415416 1.678396,1.6330088 2.742978,3.3195049 3.43442,5.4407686 1.635058,5.016156 0.217382,10.196997 -3.808384,13.917673 -2.961174,2.736753 -7.253933,4.08857 -11.271122,3.549348 z m 0.658669,-7.947548 c 0.517237,-0.282876 6.707975,-6.966592 8.245339,-8.901931 1.045307,-1.315901 0.105687,-3.2267447 -1.591604,-3.2367554 -0.404493,-0.00237 -0.875675,0.048022 -1.047068,0.1120254 -0.171396,0.063987 -1.727415,1.693296 -3.457827,3.620677 L 35.926178,15.870528 34.50571,14.51494 c -1.6034,-1.530164 -2.027914,-1.789323 -2.931016,-1.789323 -0.87867,0 -1.998039,1.087338 -1.998039,1.940868 0,0.951048 0.405826,1.506703 2.74269,3.755265 2.838978,2.731703 3.39141,3.013721 4.6042,2.350449 z"
       id="path2912" /></g></svg>
