<?xml version="1.0" encoding="UTF-8" standalone="no"?>
<!-- Created with Inkscape (http://www.inkscape.org/) -->

<svg
   version="1.1"
   id="svg918"
   width="512"
   height="512"
   viewBox="0 0 512 512"
   sodipodi:docname="cross.png"
   inkscape:export-filename="cross.svg"
   inkscape:export-xdpi="9"
   inkscape:export-ydpi="9"
   xmlns:inkscape="http://www.inkscape.org/namespaces/inkscape"
   xmlns:sodipodi="http://sodipodi.sourceforge.net/DTD/sodipodi-0.dtd"
   xmlns="http://www.w3.org/2000/svg"
   xmlns:svg="http://www.w3.org/2000/svg">
  <defs
     id="defs922" />
  <sodipodi:namedview
     id="namedview920"
     pagecolor="#ffffff"
     bordercolor="#000000"
     borderopacity="0.25"
     inkscape:showpageshadow="2"
     inkscape:pageopacity="0.0"
     inkscape:pagecheckerboard="0"
     inkscape:deskcolor="#d1d1d1"
     showgrid="false" />
  <g
     inkscape:groupmode="layer"
     inkscape:label="Image"
     id="g924">
    <path
       style="fill:#d4aa00"
       d="M 44.6725,511.93881 C 26.6731,508.92578 10.60802,495.32742 4.6350204,478.04893 c -2.93527,-8.49106 -3.53999,-19.35887 -1.54778,-27.81624 3.5545,-15.08963 0.25209,-11.39243 94.9964256,-106.35303 l 87.051304,-87.25 -87.051304,-87.25 C 3.3393304,74.419051 6.6417404,78.116253 3.0872404,63.026628 0.3034904,51.208986 2.6792504,35.894972 8.8657704,25.778561 12.17794,20.362383 20.26948,12.096765 25.62143,8.6624281 36.44401,1.7175979 51.60419,-0.89191123 64.06947,2.0443992 79.1591,5.5988965 75.4619,2.2964895 170.4225,97.040827 l 87.25,87.051303 87.25,-87.051303 C 439.8831,2.2964895 436.1859,5.5988965 451.27553,2.0443992 c 12.46528,-2.93631043 27.62546,-0.3268013 38.44804,6.6180289 5.35195,3.4343369 13.44349,11.6999549 16.75566,17.1161329 6.18652,10.116411 8.56228,25.430425 5.77853,37.248067 -3.5545,15.089625 -0.25209,11.392423 -94.99643,106.353032 l -87.0513,87.25 87.0513,87.25 c 94.74434,94.9606 91.44193,91.2634 94.99643,106.35303 2.93631,12.46528 0.3268,27.62546 -6.61803,38.44804 -3.43434,5.35195 -11.69996,13.44349 -17.11614,16.75566 -10.11641,6.18652 -25.43042,8.56228 -37.24806,5.77853 -15.08963,-3.5545 -11.39243,-0.25209 -106.35303,-94.99643 l -87.25,-87.0513 -87.25,87.0513 c -94.56803,94.35265 -91.3302,91.45046 -105.84307,94.87139 -6.05393,1.42701 -14.34209,1.78046 -19.90693,0.84893 z"
       id="path1045" />
  </g>
</svg>
