<?xml version="1.0" encoding="UTF-8" standalone="no"?>
<!-- Created with Inkscape (http://www.inkscape.org/) -->

<svg
   width="200"
   height="200"
   viewBox="0 0 52.916667 52.916666"
   version="1.1"
   id="svg5"
   xml:space="preserve"
   xmlns:inkscape="http://www.inkscape.org/namespaces/inkscape"
   xmlns:sodipodi="http://sodipodi.sourceforge.net/DTD/sodipodi-0.dtd"
   xmlns="http://www.w3.org/2000/svg"
   xmlns:svg="http://www.w3.org/2000/svg"><sodipodi:namedview
     id="namedview7"
     pagecolor="#ffffff"
     bordercolor="#000000"
     borderopacity="0.25"
     inkscape:showpageshadow="2"
     inkscape:pageopacity="0.0"
     inkscape:pagecheckerboard="0"
     inkscape:deskcolor="#d1d1d1"
     inkscape:document-units="mm"
     showgrid="false" /><defs
     id="defs2" /><g
     inkscape:label="Layer 1"
     inkscape:groupmode="layer"
     id="layer1"><path
       style="fill:#d4aa00;stroke-width:0.07151"
       d="M 24.987556,51.505075 C 19.873708,51.176811 14.962008,49.260672 10.82637,45.980549 9.8910117,45.238686 7.6799722,43.022259 6.9399115,42.084623 5.7165225,40.534628 4.7366447,38.979911 3.9242326,37.299812 c -3.39251357,-7.015842 -3.39251357,-15.107657 0,-22.123501 0.8124121,-1.6801 1.7922899,-3.234817 3.0156789,-4.784813 C 7.6799722,9.453863 9.8910117,7.2374361 10.82637,6.4955724 16.401972,2.0733638 23.335295,0.17611181 30.241289,1.1828241 c 4.473996,0.6521909 8.578343,2.4393423 12.201187,5.3127483 0.935356,0.7418637 3.146393,2.9582906 3.886458,3.8959256 1.223392,1.549996 2.203267,3.104713 3.015676,4.784813 3.392519,7.015844 3.392519,15.107659 0,22.123501 -0.812409,1.680099 -1.792284,3.234816 -3.015676,4.784811 -0.740065,0.937636 -2.951102,3.154063 -3.886458,3.895926 -4.207256,3.336924 -9.015853,5.190671 -14.34388,5.529666 -1.266463,0.08058 -1.789132,0.07971 -3.11104,-0.0051 z M 41.383292,30.94178 c 1.789134,-0.538073 3.108404,-1.87485 3.584454,-3.632029 0.170964,-0.631076 0.170964,-1.941884 0,-2.572961 -0.480921,-1.775147 -1.842545,-3.140856 -3.622423,-3.633295 -0.436587,-0.12079 -1.27496,-0.127819 -15.246574,-0.127819 -16.5938807,0 -15.108353,-0.0488 -16.2844653,0.534887 -0.7243587,0.359486 -1.2926372,0.81629 -1.7202218,1.382777 -0.8833901,1.170366 -1.2575935,2.643724 -1.0073169,3.966126 0.3438245,1.816686 1.4538371,3.189802 3.125904,3.866825 0.948239,0.383944 0.266711,0.368834 16.064659,0.356152 13.908305,-0.01121 14.6999,-0.01854 15.105984,-0.140663 z"
       id="path294" /></g></svg>
