<?xml version="1.0" encoding="UTF-8" standalone="no"?>
<!-- Created with Inkscape (http://www.inkscape.org/) -->

<svg
   width="200"
   height="200"
   viewBox="0 0 52.916665 52.916666"
   version="1.1"
   id="svg21"
   xml:space="preserve"
   inkscape:export-filename="label-outline.svg"
   inkscape:export-xdpi="96"
   inkscape:export-ydpi="96"
   xmlns:inkscape="http://www.inkscape.org/namespaces/inkscape"
   xmlns:sodipodi="http://sodipodi.sourceforge.net/DTD/sodipodi-0.dtd"
   xmlns="http://www.w3.org/2000/svg"
   xmlns:svg="http://www.w3.org/2000/svg"><sodipodi:namedview
     id="namedview23"
     pagecolor="#ffffff"
     bordercolor="#000000"
     borderopacity="0.25"
     inkscape:showpageshadow="2"
     inkscape:pageopacity="0.0"
     inkscape:pagecheckerboard="0"
     inkscape:deskcolor="#d1d1d1"
     inkscape:document-units="mm"
     showgrid="false" /><defs
     id="defs18" /><g
     inkscape:label="Layer 1"
     inkscape:groupmode="layer"
     id="layer1"><path
       style="fill:#d4aa00;stroke-width:0.187832"
       d="M 21.542196,51.289259 C 21.162584,51.148097 20.528653,50.773166 20.13346,50.456069 18.696903,49.3034 2.6371436,33.022608 2.3060471,32.38329 1.8529191,31.508347 1.8373393,29.691056 2.2754265,28.81238 2.4562767,28.449641 7.992609,22.774858 14.578383,16.201748 25.921231,4.8807082 26.609825,4.2297246 27.639591,3.853944 28.689358,3.4708636 29.03423,3.4573126 37.68857,3.4590859 l 8.961902,0.00182 0.93916,0.4411227 c 1.104396,0.5187341 1.442317,0.8640127 1.957776,2.0003955 0.366631,0.8082798 0.382029,1.1993693 0.385991,9.8037689 0.004,8.657369 -0.0094,8.998844 -0.392568,10.048982 -0.375782,1.029763 -1.026765,1.718357 -12.347804,13.061205 -6.957272,6.970678 -12.226691,12.105134 -12.61063,12.287641 -0.882734,0.41961 -2.194883,0.499553 -3.040207,0.18522 z M 40.047062,18.824676 c 0.397106,-0.271405 0.946514,-0.818365 1.220906,-1.215468 0.432498,-0.625921 0.498894,-0.911331 0.498894,-2.144508 0,-1.651071 -0.402021,-2.441276 -1.690482,-3.322767 -0.655924,-0.448745 -0.931953,-0.514015 -2.173823,-0.514015 -1.207135,0 -1.527516,0.0711 -2.116152,0.469579 -1.138058,0.770425 -1.693797,1.736506 -1.780287,3.094814 -0.08601,1.35081 0.233331,2.215325 1.160987,3.142982 0.857372,0.857371 1.545679,1.100605 2.937045,1.037879 0.951003,-0.04287 1.380519,-0.164123 1.942912,-0.548496 z"
       id="path2496" /></g></svg>
