<?xml version="1.0" encoding="UTF-8" standalone="no"?>
<!-- Created with Inkscape (http://www.inkscape.org/) -->

<svg
   width="200"
   height="200"
   viewBox="0 0 52.916667 52.916666"
   version="1.1"
   id="svg5"
   xml:space="preserve"
   inkscape:export-filename="send.svg"
   inkscape:export-xdpi="11.52"
   inkscape:export-ydpi="11.52"
   sodipodi:docname="send-hii.svg"
   inkscape:version="1.2.2 (b0a8486541, 2022-12-01)"
   xmlns:inkscape="http://www.inkscape.org/namespaces/inkscape"
   xmlns:sodipodi="http://sodipodi.sourceforge.net/DTD/sodipodi-0.dtd"
   xmlns="http://www.w3.org/2000/svg"
   xmlns:svg="http://www.w3.org/2000/svg"><sodipodi:namedview
     id="namedview7"
     pagecolor="#ffffff"
     bordercolor="#000000"
     borderopacity="0.25"
     inkscape:showpageshadow="2"
     inkscape:pageopacity="0.0"
     inkscape:pagecheckerboard="0"
     inkscape:deskcolor="#d1d1d1"
     inkscape:document-units="mm"
     showgrid="false"
     inkscape:zoom="4.24"
     inkscape:cx="86.556604"
     inkscape:cy="100"
     inkscape:window-width="1920"
     inkscape:window-height="1016"
     inkscape:window-x="0"
     inkscape:window-y="0"
     inkscape:window-maximized="1"
     inkscape:current-layer="layer1" /><defs
     id="defs2" /><g
     inkscape:label="Layer 1"
     inkscape:groupmode="layer"
     id="layer1"><g
       style="fill:#d4aa00"
       id="g4554"
       transform="matrix(2.472502,0,0,3.1734244,4.8248234,1.0255517)"><path
         d="m 15.964,0.686 a 0.5,0.5 0 0 0 -0.65,-0.65 L 0.767,5.855 H 0.766 L 0.314,6.035 A 0.5,0.5 0 0 0 0.232,6.922 l 0.41,0.26 0.001,0.002 4.995,3.178 3.178,4.995 0.002,0.002 0.26,0.41 A 0.5,0.5 0 0 0 9.964,15.686 Z M 14.131,2.576 6.637,10.07 6.422,9.732 A 0.5,0.5 0 0 0 6.268,9.578 L 5.93,9.363 13.424,1.869 14.602,1.398 14.132,2.576 Z"
         id="path4545"
         style="fill:#d4aa00" /></g></g></svg>
