<?xml version="1.0" encoding="UTF-8" standalone="no"?>
<!-- Created with Inkscape (http://www.inkscape.org/) -->

<svg
   width="200"
   height="200"
   viewBox="0 0 52.916667 52.916666"
   version="1.1"
   id="svg5"
   xml:space="preserve"
   xmlns:inkscape="http://www.inkscape.org/namespaces/inkscape"
   xmlns:sodipodi="http://sodipodi.sourceforge.net/DTD/sodipodi-0.dtd"
   xmlns="http://www.w3.org/2000/svg"
   xmlns:svg="http://www.w3.org/2000/svg"><sodipodi:namedview
     id="namedview7"
     pagecolor="#ffffff"
     bordercolor="#000000"
     borderopacity="0.25"
     inkscape:showpageshadow="2"
     inkscape:pageopacity="0.0"
     inkscape:pagecheckerboard="0"
     inkscape:deskcolor="#d1d1d1"
     inkscape:document-units="mm"
     showgrid="false" /><defs
     id="defs2" /><g
     inkscape:label="Layer 1"
     inkscape:groupmode="layer"
     id="layer1"><path
       style="fill:#22002b;fill-opacity:1;stroke-width:0.201337"
       d="m 18.886535,52.019973 c -1.867649,-0.66532 -2.973307,-2.10233 -3.095631,-4.02336 -0.04537,-0.71248 0.009,-1.55802 0.120948,-1.87898 0.193997,-0.55649 0.16539,-0.60033 -0.616687,-0.94539 -1.054156,-0.46509 -2.362155,-1.77629 -2.916823,-2.92396 -0.339288,-0.70203 -1.07057,-5.03211 -3.314373,-19.62514 L 6.184935,3.898783 3.803573,3.798123 C 1.605422,3.705223 1.392654,3.660893 1.038043,3.222143 0.51540903,2.575513 0.55551203,1.864813 1.148074,1.272263 1.63023,0.79010297 1.718204,0.77807297 4.760916,0.77807297 c 4.274288,0 3.953367,-0.34979 4.802707,5.23476003 l 0.658349,4.32876 19.124754,0.10065 c 16.95476,0.0892 19.20471,0.13719 19.82944,0.4225 1.6789,0.76677 2.75273,2.2153 2.9433,3.97036 0.0679,0.62518 -0.39971,4.16792 -1.38863,10.52094 -1.64125,10.54376 -1.71439,10.81498 -3.31454,12.28994 -0.47835,0.44093 -1.29733,1.00114 -1.81997,1.24492 -0.9488,0.44256 -0.97317,0.44333 -15.92347,0.49977 l -14.973222,0.0565 0.125011,0.62505 c 0.205246,1.02626 0.89083,1.92528 1.806041,2.36833 0.846958,0.41 1.105593,0.41696 15.50453,0.41696 h 14.6432 l 0.49419,0.49419 c 0.27181,0.27181 0.4942,0.72893 0.4942,1.01584 0,0.2869 -0.22239,0.74403 -0.4942,1.01584 -0.41153,0.41153 -0.69027,0.49419 -1.66654,0.49419 h -1.17235 l 0.005,1.57577 c 0.005,1.40765 -0.0595,1.68097 -0.60383,2.56173 -0.3779,0.61147 -0.98366,1.21739 -1.59491,1.59529 -0.85669,0.52965 -1.174,0.60933 -2.42651,0.60933 -1.25251,0 -1.56982,-0.0797 -2.42651,-0.60933 -0.61089,-0.37769 -1.21723,-0.98402 -1.59491,-1.59491 -0.5424,-0.87731 -0.60934,-1.15872 -0.60934,-2.56173 v -1.57615 h -5.16323 -5.16323 l 0.1724,0.75501 c 0.78999,3.45969 -2.775541,6.58682 -6.142608,5.38736 z m 2.634786,-3.19689 c 1.148792,-0.98815 0.393635,-2.94548 -1.136397,-2.94548 -1.48689,0 -2.192989,1.85206 -1.116506,2.92854 0.636498,0.6365 1.524857,0.64318 2.252903,0.0169 z m 19.066325,0.25371 c 0.99265,-0.45228 1.2216,-1.82736 0.44396,-2.66645 -1.03128,-1.11277 -2.9371,-0.38299 -2.9226,1.11914 0.013,1.34393 1.24163,2.11093 2.47864,1.54731 z m -18.437504,-17.64514 -0.05386,-4.9831 -4.681091,-0.054 c -2.620717,-0.0302 -4.681091,0.0243 -4.681091,0.12408 0,0.32819 1.416871,9.38949 1.50806,9.64448 0.06785,0.18969 1.059408,0.25168 4.025912,0.25168 h 3.935914 z m 12.932404,-0.0504 v -5.03343 h -4.93276 -4.93277 v 5.03344 5.03343 h 4.93277 4.93276 z m 9.37801,4.65163 c 0.87159,-0.39586 1.632,-1.20764 1.81529,-1.93794 0.25113,-1.00058 1.21118,-7.5571 1.11993,-7.64835 -0.0543,-0.0543 -2.16751,-0.0987 -4.69597,-0.0987 h -4.5972 v 5.03343 5.03343 l 2.76838,-0.005 c 2.25848,-0.004 2.91964,-0.0731 3.58957,-0.37738 z m -22.310414,-17.58754 0.05386,-4.9831 h -5.764035 -5.764036 l 0.118645,0.65435 c 0.06526,0.35989 0.397518,2.51168 0.738368,4.78176 0.340851,2.27008 0.657728,4.24228 0.704174,4.38267 0.06577,0.1988 1.165632,0.24334 4.971814,0.20135 l 4.88737,-0.0539 z m 12.885584,0 0.0539,-4.9831 h -4.93628 -4.93628 v 5.03702 5.03701 l 4.88243,-0.0539 4.88243,-0.0539 z m 13.10291,3.82541 c 0.95663,-5.68232 1.12031,-7.23337 0.81984,-7.7687 -0.54267,-0.96683 -0.9341,-1.03365 -6.07411,-1.03684 l -4.78176,-0.003 v 5.03344 5.03343 h 4.91209 4.9121 z"
       id="path3801" /></g></svg>
