<?xml version="1.0" encoding="UTF-8" standalone="no"?>
<!-- Created with Inkscape (http://www.inkscape.org/) -->

<svg
   width="200"
   height="200"
   viewBox="0 0 52.916665 52.916666"
   version="1.1"
   id="svg21"
   xml:space="preserve"
   inkscape:export-filename="checkout.svg"
   inkscape:export-xdpi="96"
   inkscape:export-ydpi="96"
   xmlns:inkscape="http://www.inkscape.org/namespaces/inkscape"
   xmlns:sodipodi="http://sodipodi.sourceforge.net/DTD/sodipodi-0.dtd"
   xmlns="http://www.w3.org/2000/svg"
   xmlns:svg="http://www.w3.org/2000/svg"><sodipodi:namedview
     id="namedview23"
     pagecolor="#ffffff"
     bordercolor="#000000"
     borderopacity="0.25"
     inkscape:showpageshadow="2"
     inkscape:pageopacity="0.0"
     inkscape:pagecheckerboard="0"
     inkscape:deskcolor="#d1d1d1"
     inkscape:document-units="mm"
     showgrid="false" /><defs
     id="defs18" /><g
     inkscape:label="Layer 1"
     inkscape:groupmode="layer"
     id="layer1"><path
       style="fill:#d4aa00;stroke-width:0.0777367"
       d="M -2.534599,77.756236 C -3.1957843,77.635363 -4.4820308,77.218538 -4.922864,76.98228 -6.2959763,76.24639 -7.2135899,74.968367 -7.5848145,73.274759 -7.7770754,72.397666 -8.2468373,70.095545 -8.639005,68.10849 c -0.1610468,-0.815971 -0.4782622,-2.36772 -0.7049082,-3.448331 -0.226648,-1.080614 -0.7070658,-3.408237 -1.0676008,-5.172498 -0.360536,-1.764267 -0.839618,-4.104421 -1.064639,-5.200347 -0.225037,-1.095928 -0.440399,-2.160499 -0.478584,-2.365717 -0.03816,-0.205218 -0.274039,-1.363356 -0.524141,-2.573641 l -0.45471,-2.200519 V 32.956589 18.765745 l 0.700739,0.04448 c 1.333624,0.08468 2.3746298,0.589655 3.3324247,1.616499 0.941391,1.009273 1.1764891,1.607588 1.6938532,4.310786 0.1294294,0.676022 0.4219982,2.113269 0.6502546,3.193879 0.2282564,1.080612 0.5465663,2.63236 0.7073552,3.448333 0.3535648,1.794196 0.5714056,2.869894 0.9662946,4.771531 0.1648456,0.793919 0.4227549,2.056972 0.5731282,2.806783 0.1503572,0.749812 0.3892545,1.904603 0.5308865,2.5662 0.1416642,0.661599 0.3115164,1.491606 0.3775189,1.844459 0.066003,0.352852 0.3695504,1.850471 0.6745308,3.32804 0.3049645,1.477571 0.8491967,4.129984 1.2093933,5.894245 0.77928263,3.816965 0.78813613,3.85467 1.07349273,4.571307 0.85967697,2.158932 2.44021397,3.728528 5.28344607,5.246871 3.9702677,2.120192 10.1490962,3.696825 16.8146212,4.29052 3.285065,0.2926 7.813409,0.377733 10.888793,0.204716 8.928883,-0.502328 16.387439,-2.375419 20.961486,-5.264125 0.718189,-0.45356 1.489985,-1.227916 1.981286,-1.987856 0.136673,-0.211288 0.412871,-0.811271 0.613937,-1.333294 0.360052,-0.934759 0.542703,-1.698338 1.120805,-4.68562 0.127981,-0.6616 0.348703,-1.798344 0.490368,-2.526105 0.141664,-0.727756 0.461214,-2.369726 0.710075,-3.648815 0.494344,-2.540605 0.873006,-4.450075 1.220179,-6.15278 0.123475,-0.605314 0.271545,-1.38119 0.329177,-1.724168 0.05763,-0.342976 0.160659,-0.876205 0.229093,-1.184952 0.06841,-0.308747 0.293406,-1.427449 0.50009,-2.486007 0.206668,-1.058559 0.440191,-2.249436 0.518943,-2.646396 0.07872,-0.396957 0.294758,-1.497619 0.480016,-2.445909 0.185257,-0.948293 0.51115,-2.608304 0.724193,-3.688915 0.213045,-1.080611 0.453552,-2.325621 0.534476,-2.766687 0.367925,-2.005221 0.647696,-2.664288 1.534723,-3.615266 0.332477,-0.356455 0.791017,-0.759779 1.018967,-0.89628 0.656373,-0.393056 1.522924,-0.667261 2.271827,-0.718896 l 0.667014,-0.04597 -4.8e-5,14.827674 -6.5e-5,14.827673 -0.373398,1.92465 c -0.205364,1.058558 -0.460151,2.3577 -0.566191,2.886977 -0.106087,0.529279 -0.278466,1.413416 -0.383168,1.964747 -0.104634,0.551334 -0.272897,1.39948 -0.373721,1.884775 -0.236643,1.139114 -0.833016,4.191879 -1.010418,5.172282 -0.137318,0.758827 -0.764891,3.923612 -1.06546,5.372982 -0.08693,0.419013 -0.342296,1.718153 -0.567576,2.886976 -0.483106,2.506721 -0.456897,2.412199 -1.021333,3.682788 -0.409394,0.921533 -0.492025,1.047961 -1.101134,1.684718 -0.701559,0.73339 -1.201729,1.063843 -2.090271,1.380986 l -0.527489,0.188271 -30.857872,0.0094 c -16.971837,0.0053 -30.9426459,-0.006 -31.046254,-0.02493 z M 24.291768,51.026408 C 23.856601,50.987738 23.297092,50.917291 23.048423,50.8699 22.799739,50.8225 22.409775,50.748246 22.181841,50.704895 21.429813,50.561872 21.017298,50.47153 20.750083,50.391366 19.251646,49.941824 18.865065,49.811721 18.440378,49.614053 18.30982,49.553263 18.165195,49.503539 18.11909,49.503539 c -0.04605,0 -0.142792,-0.03494 -0.21467,-0.07767 -0.07196,-0.04272 -0.385182,-0.18914 -0.696022,-0.325362 C 15.38761,48.302555 13.034118,46.75255 11.443745,45.303906 9.43369,43.472977 7.6748491,41.261632 6.396459,38.958058 6.0577197,38.34768 5.2361325,36.597233 4.9661336,35.910695 4.8967527,35.734267 4.8117513,35.517745 4.7770926,35.429532 4.7424755,35.341315 4.6397743,35.034576 4.5487711,34.747883 4.4578157,34.46119 4.3557697,34.154449 4.3220925,34.066237 4.2169699,33.79103 4.0415166,33.132979 3.8729843,32.382166 3.7838011,31.985208 3.6786309,31.516073 3.6391096,31.339648 3.5995052,31.163222 3.5312489,30.748219 3.4874653,30.417418 3.4435217,30.086619 3.3768665,29.599442 3.339361,29.334802 3.139551,27.92872 3.1846584,24.354773 3.421296,22.830717 3.6018367,21.668248 3.9624367,19.905676 4.0922533,19.55116 4.1246093,19.46295 4.2129854,19.17425 4.2887801,18.90961 4.4312482,18.412049 4.8752213,17.106679 4.9978737,16.824572 5.0361817,16.736382 5.206426,16.343548 5.3761,15.951661 7.327621,11.444046 10.91678,7.3089973 14.947849,4.9241192 17.680471,3.3074344 20.100193,2.4467628 23.462978,1.895371 c 1.226539,-0.2011144 4.63889,-0.2004841 5.877679,0.00104 1.246968,0.2029019 2.295394,0.4398691 3.541686,0.8004996 0.635412,0.1838621 1.837529,0.625625 1.917779,0.7047621 0.03944,0.038828 0.117358,0.070589 0.173489,0.070589 0.257379,0 3.218692,1.5733988 3.566283,1.8948323 0.06536,0.060511 0.139573,0.1100147 0.164782,0.1100147 0.08226,0 1.052582,0.7287107 2.014579,1.5128857 1.087722,0.8866639 2.966254,2.8515469 3.728792,3.9001976 0.288658,0.396957 0.552814,0.75783 0.587006,0.801937 1.26073,1.625839 3.061186,5.433525 3.602359,7.618409 0.47303,1.909759 0.549625,2.283898 0.763378,3.729012 0.214829,1.452494 0.234823,5.15911 0.03526,6.535795 -0.317344,2.188995 -0.71299,3.842285 -1.362568,5.693757 -0.257717,0.734544 -0.24458,0.703245 -0.841148,2.004844 -0.920447,2.008273 -1.858907,3.540298 -3.119381,5.092306 -2.122789,2.613769 -4.401233,4.541263 -7.096378,6.003293 -0.636748,0.345413 -1.361182,0.712981 -1.609851,0.816823 -0.24867,0.103848 -0.484348,0.217671 -0.523724,0.252963 -0.03944,0.0353 -0.124116,0.06439 -0.188381,0.06467 -0.06424,2.42e-4 -0.207779,0.05101 -0.318954,0.112727 -0.111234,0.06172 -0.314639,0.13785 -0.452134,0.169151 -0.137478,0.0313 -0.283892,0.08355 -0.325329,0.116101 -0.07663,0.06022 -0.13458,0.07777 -1.394071,0.422374 -1.316173,0.360129 -1.332754,0.363569 -3.014195,0.625945 -0.697551,0.108834 -3.959418,0.1595 -4.898072,0.07606 z m 3.195365,-8.738348 c 0.815165,-0.221873 1.382609,-0.569387 1.946595,-1.192117 0.495308,-0.546908 0.625962,-0.767203 0.911254,-1.536444 0.159855,-0.4311 0.163575,-0.528487 0.163575,-4.310436 v -3.869368 l 1.092648,-0.01053 c 4.854382,-0.04606 7.59745,-0.129453 7.987622,-0.242849 0.741388,-0.215446 1.285636,-0.547963 1.806203,-1.103525 1.605668,-1.713608 1.608533,-4.376158 0.0065,-6.093041 -0.280961,-0.301121 -0.656515,-0.609448 -0.870799,-0.714927 -0.207233,-0.102014 -0.431368,-0.216438 -0.498079,-0.254289 -0.06664,-0.03785 -0.412967,-0.130467 -0.769445,-0.205805 -0.582691,-0.123151 -0.836784,-0.127758 -2.516117,-0.04576 -1.027388,0.05016 -2.893749,0.09092 -4.147477,0.09055 l -2.27949,-6.81e-4 -0.0031,-3.749057 c -0.0031,-3.689294 -0.0689,-5.340818 -0.221479,-5.503136 -0.0425,-0.0453 -0.07743,-0.13544 -0.07743,-0.200324 0,-0.293887 -0.492654,-1.157684 -0.932634,-1.635206 -0.444906,-0.482906 -1.269472,-1.021538 -1.563812,-1.021538 -0.061,0 -0.153255,-0.04511 -0.205043,-0.100236 -0.06568,-0.06984 -0.389077,-0.100237 -1.066264,-0.100237 -0.677187,0 -1.000664,0.0304 -1.06628,0.100237 -0.05184,0.05513 -0.144079,0.100236 -0.205027,0.100236 -0.061,0 -0.323461,0.110232 -0.583319,0.244949 -0.90261,0.467961 -1.801758,1.664314 -1.95553,2.60193 -0.02897,0.176426 -0.08548,0.364957 -0.125726,0.418952 -0.07711,0.103596 -0.02254,7.733312 0.06069,8.489801 l 0.04491,0.40821 -1.26865,0.06147 c -0.697762,0.03382 -2.74373,0.08838 -4.546601,0.121255 -3.507813,0.06397 -3.401678,0.05149 -4.295241,0.505651 -0.788489,0.40077 -1.826679,1.838039 -1.934971,2.678763 -0.02494,0.193466 -0.07454,0.370942 -0.11011,0.394393 -0.085,0.05589 -0.08436,1.374136 6.12e-4,1.430056 0.03606,0.02367 0.08757,0.190632 0.11478,0.371008 0.0879,0.584524 0.502328,1.362361 1.025487,1.924366 0.515818,0.554126 0.983503,0.844918 1.808521,1.124456 0.480578,0.162844 0.572435,0.164889 4.879235,0.10915 l 4.389417,-0.05682 0.0065,2.717926 c 0.008,2.88261 0.07034,4.321291 0.217068,4.943465 0.359425,1.523914 1.514439,2.732673 2.97878,3.117359 0.7004,0.183999 1.102324,0.182205 1.801292,-0.0079 z"
       id="path2807" /></g></svg>
