<?xml version="1.0" encoding="UTF-8" standalone="no"?>
<!-- Created with Inkscape (http://www.inkscape.org/) -->

<svg
   width="200"
   height="200"
   viewBox="0 0 52.916665 52.916666"
   version="1.1"
   id="svg21"
   xml:space="preserve"
   inkscape:export-filename="checkout-good.svg"
   inkscape:export-xdpi="96"
   inkscape:export-ydpi="96"
   xmlns:inkscape="http://www.inkscape.org/namespaces/inkscape"
   xmlns:sodipodi="http://sodipodi.sourceforge.net/DTD/sodipodi-0.dtd"
   xmlns="http://www.w3.org/2000/svg"
   xmlns:svg="http://www.w3.org/2000/svg"><sodipodi:namedview
     id="namedview23"
     pagecolor="#ffffff"
     bordercolor="#000000"
     borderopacity="0.25"
     inkscape:showpageshadow="2"
     inkscape:pageopacity="0.0"
     inkscape:pagecheckerboard="0"
     inkscape:deskcolor="#d1d1d1"
     inkscape:document-units="mm"
     showgrid="false" /><defs
     id="defs18" /><g
     inkscape:label="Layer 1"
     inkscape:groupmode="layer"
     id="layer1"><path
       style="fill:#d4aa00;stroke-width:0.197781"
       d="m 13.791158,51.045389 c 0,-0.632723 -1.783495,-26.937115 -1.900749,-28.033736 l -0.109428,-1.02341 h 14.852848 14.852848 l -0.109306,1.02341 c -0.120374,1.127166 -1.900873,27.36217 -1.900873,28.008803 v 0.402999 H 26.63383 c -12.575245,0 -12.842675,-0.0078 -12.842672,-0.378066 z m 7.424671,-14.72941 V 25.886945 H 19.710828 18.205827 V 36.315979 46.74501 h 1.505001 1.505001 z m 6.974931,-0.04875 0.05193,-10.380298 h -1.607094 -1.607093 v 10.299075 c 0,5.664493 0.06378,10.361035 0.141731,10.436763 0.07795,0.07573 0.777777,0.112263 1.555169,0.08123 l 1.413433,-0.05645 z m 6.871076,0.04875 V 25.886945 h -1.505 -1.505001 V 36.315979 46.74501 h 1.505001 1.505 z M 7.0545903,18.806084 C 6.9980924,18.663058 6.9781741,17.763476 7.010335,16.807034 L 7.068806,15.068042 H 26.63382 46.198831 v 1.949353 1.949354 l -19.520762,0.04968 c -16.1233,0.04106 -19.5386416,0.0044 -19.6234909,-0.210363 z M 10.379822,11.95123 c 0,-0.05243 0.517408,-1.105076 1.149798,-2.3392227 l 1.149795,-2.2439036 h 3.866874 3.866871 V 4.4440766 1.5200482 h 6.220673 6.22067 v 2.9240284 2.9240271 h 3.866874 3.866873 l 1.149797,2.2439036 c 0.632387,1.2341467 1.149797,2.2867967 1.149797,2.3392227 0,0.05243 -7.314306,0.09531 -16.254011,0.09531 -8.939707,0 -16.254011,-0.0429 -16.254011,-0.09531 z M 29.844502,5.9060895 V 4.4440766 h -3.210669 -3.21067 v 1.4620129 1.4620142 h 3.21067 3.210669 z"
       id="path4747" /></g></svg>
