<?xml version="1.0" encoding="UTF-8" standalone="no"?>
<!-- Created with Inkscape (http://www.inkscape.org/) -->

<svg
   version="1.1"
   id="svg176"
   width="64"
   height="64"
   viewBox="0 0 64 64"
   sodipodi:docname="NWO.jpg"
   inkscape:export-filename="NWO128off.svg"
   inkscape:export-xdpi="192"
   inkscape:export-ydpi="192"
   xmlns:inkscape="http://www.inkscape.org/namespaces/inkscape"
   xmlns:sodipodi="http://sodipodi.sourceforge.net/DTD/sodipodi-0.dtd"
   xmlns="http://www.w3.org/2000/svg"
   xmlns:svg="http://www.w3.org/2000/svg">
  <defs
     id="defs180" />
  <sodipodi:namedview
     id="namedview178"
     pagecolor="#ffffff"
     bordercolor="#000000"
     borderopacity="0.25"
     inkscape:showpageshadow="2"
     inkscape:pageopacity="0.0"
     inkscape:pagecheckerboard="0"
     inkscape:deskcolor="#d1d1d1"
     showgrid="false" />
  <g
     inkscape:groupmode="layer"
     inkscape:label="Image"
     id="g182">
    <path
       style="fill:#00aad4;stroke-width:0.349051"
       d="m 27.433049,60.221129 0.02829,-3.491922 0.999256,0.0075 c 0.924274,0.007 1.014918,0.128738 1.208017,1.628614 0.114811,0.8919 0.201928,2.463959 0.193694,3.493468 l -0.0152,1.871819 -1.221126,-0.0092 -1.221126,-0.0092 z m 4.535607,0.0319 0.02913,-3.491921 1.046676,0.0079 1.046672,0.0079 -0.02913,3.491916 -0.02913,3.491932 -1.046682,-0.0079 -1.046674,-0.0079 z m 4.186713,0.0315 0.02913,-3.491927 1.003677,0.0075 1.003671,0.0075 0.0321,3.492361 0.0321,3.492336 -1.063797,-0.0079 -1.063783,-0.0079 z M 0.70227373,52.614385 C 0.98247773,52.184189 3.2097908,48.46752 5.651853,44.355122 21.331289,17.951148 31.855704,0.32458732 32.082634,0.08819332 32.227304,-0.06254568 37.281927,8.3013924 43.315067,18.674749 54.899674,38.593317 62.02089,50.810323 63.148554,52.70063 l 0.679888,1.139671 -31.817821,-0.2218 L 0.19280773,53.396702 Z M 58.56249,50.791116 c 9.75e-4,-0.120035 -1.72282,-3.111763 -3.830628,-6.648157 l -3.832399,-6.429802 -2.562612,2.325728 c -2.972874,2.698061 -5.525641,4.299153 -8.838148,5.543248 -2.093445,0.786249 -2.870581,0.883663 -6.895059,0.864267 -4.201184,-0.02045 -4.758735,-0.103318 -7.56017,-1.125952 -3.474078,-1.268243 -7.676976,-3.814036 -9.95028,-6.027124 -0.862107,-0.839273 -1.673842,-1.407204 -1.803861,-1.26207 -0.242006,0.270155 -6.2604163,10.414981 -7.0168556,11.827868 L 5.8533769,50.64193 32.207052,50.825609 c 14.49452,0.101012 26.354471,0.08552 26.355438,-0.03233 z M 33.969783,43.825299 c 1.618174,-0.437444 4.354991,-2.822982 5.02238,-4.377756 1.141628,-2.659585 0.264593,-6.409073 -1.941013,-8.298597 -5.023943,-4.303903 -12.131384,-1.029464 -12.212181,5.626214 -0.02816,2.314242 1.043233,4.377461 2.976911,5.733094 2.407737,1.687978 3.732739,1.971554 6.153903,1.317045 z m -4.205234,-3.68879 c -0.425152,-0.302723 -1.00394,-1.006106 -1.286192,-1.563089 -1.831921,-3.614913 2.332468,-7.398341 5.82962,-5.296315 1.071979,0.644344 2.046618,2.363149 2.036674,3.591784 -0.0084,1.040344 -0.912223,2.655571 -1.846877,3.300619 -1.007513,0.695329 -3.73708,0.676292 -4.733225,-0.0319 z m 13.01964,0.935878 c 0.97444,-0.577779 2.694726,-1.890759 3.82288,-2.917732 2.375999,-2.162909 2.413121,-2.008171 -1.116052,-4.651544 -2.034043,-1.523501 -5.553275,-3.576221 -6.138179,-3.580303 -0.116287,-8.02e-4 0.101092,0.402499 0.483046,0.89616 1.922962,2.485729 2.236983,7.254769 0.675542,10.25951 -0.923283,1.77673 -0.733111,1.776225 2.272763,-0.0066 z M 23.022524,39.736792 c -1.106759,-3.224121 -0.321222,-7.021398 1.960355,-9.47629 0.39835,-0.428613 0.642421,-0.862472 0.542373,-0.96412 -0.100048,-0.101637 -1.584117,0.508637 -3.297932,1.356217 -3.061097,1.513885 -6.804724,4.34888 -6.806319,5.154322 -0.0017,0.823697 7.740999,6.570375 8.218348,6.099746 0.05261,-0.05196 -0.224959,-1.028316 -0.616825,-2.169875 z m 23.738524,-8.9766 C 46.202122,29.706329 32.590026,6.5914702 32.394157,6.3636191 32.204221,6.1426545 20.813673,24.890066 18.671208,28.949867 c -0.340648,0.645491 -0.04516,0.568709 2.313679,-0.601337 3.372383,-1.672797 7.473849,-2.692217 10.739919,-2.669447 4.240429,0.0315 10.087345,1.952435 13.397509,4.406013 1.202827,0.891581 1.90751,1.181886 1.638733,0.675096 z M 8.5015229,28.228571 c -5.1838311,-2.931537 -4.9052691,-2.710288 -4.4632914,-3.54497 0.2231422,-0.421406 0.4404579,-0.808584 0.4829131,-0.860364 0.042445,-0.05183 1.3336819,0.625075 2.8693943,1.504156 1.535715,0.879075 2.9466061,1.599393 3.1353151,1.600715 0.810577,0.0062 1.069758,0.893147 0.477998,1.636773 l -0.592044,0.743985 z M 51.152106,26.847987 c -0.241368,-0.393589 -0.358295,-0.843982 -0.259779,-1.000769 0.09856,-0.156584 1.693785,-1.174872 3.545037,-2.26241 3.185966,-1.871604 3.391635,-1.942784 3.847168,-1.331393 0.264636,0.355179 0.485422,0.748548 0.490514,0.873986 0.008,0.197271 -6.747627,4.439305 -7.066219,4.437096 -0.06486,-4.69e-4 -0.315307,-0.322737 -0.556725,-0.71651 z M 9.4120216,23.592035 c -1.7181431,-1.059993 -3.1587978,-2.04635 -3.2014553,-2.191911 -0.042661,-0.145561 0.212907,-0.637076 0.5679175,-1.09225 l 0.6454727,-0.827596 3.3490075,2.033414 c 1.841953,1.118385 3.348483,2.098161 3.347843,2.177276 -0.0024,0.302308 -1.152596,1.856692 -1.36345,1.842858 -0.121798,-0.0087 -1.627191,-0.881812 -3.3453354,-1.941791 z m 39.6583534,-0.27753 c -0.541311,-0.882792 -0.692112,-0.739722 3.344921,-3.173551 l 3.215787,-1.938701 0.571404,0.887778 c 0.314335,0.48828 0.519257,0.932019 0.455503,0.986087 -0.517129,0.438632 -6.600459,3.984808 -6.833007,3.983176 -0.164515,-0.0011 -0.504097,-0.336242 -0.754608,-0.744851 z M 12.062028,19.399533 c -1.622575,-1.062578 -2.9905398,-2.051519 -3.0399198,-2.197645 -0.049381,-0.14612 0.1244459,-0.554211 0.3862696,-0.906861 0.4481285,-0.603577 0.6641312,-0.512601 3.6826722,1.55108 2.272743,1.553804 3.146734,2.344822 3.000996,2.716086 -0.113093,0.288095 -0.206148,0.589522 -0.2068,0.669843 -0.0037,0.457771 -1.205729,-0.118379 -3.823218,-1.832503 z m 34.906919,0.485906 c -0.420662,-0.801748 -0.453257,-0.773495 3.556527,-3.08421 3.042129,-1.753089 3.198546,-1.773978 3.895933,-0.520325 0.212273,0.381489 -5.935094,4.276881 -6.740493,4.271265 -0.199985,-0.0014 -0.520295,-0.301478 -0.711967,-0.66673 z"
       id="path242" />
  </g>
</svg>
