<?xml version="1.0" encoding="UTF-8" standalone="no"?>
<!-- Created with Inkscape (http://www.inkscape.org/) -->

<svg
   version="1.1"
   id="svg371"
   width="178.8"
   height="113.2"
   viewBox="0 0 178.8 113.2"
   sodipodi:docname="Artillery-VOO-Logo.svg"
   inkscape:version="1.2.2 (b0a8486541, 2022-12-01)"
   inkscape:export-filename="navbar/logo/Artillery-VOO-Logo.svg"
   inkscape:export-xdpi="40.706715"
   inkscape:export-ydpi="40.706715"
   xmlns:inkscape="http://www.inkscape.org/namespaces/inkscape"
   xmlns:sodipodi="http://sodipodi.sourceforge.net/DTD/sodipodi-0.dtd"
   xmlns="http://www.w3.org/2000/svg"
   xmlns:svg="http://www.w3.org/2000/svg">
  <defs
     id="defs375" />
  <sodipodi:namedview
     id="namedview373"
     pagecolor="#ffffff"
     bordercolor="#000000"
     borderopacity="0.25"
     inkscape:showpageshadow="2"
     inkscape:pageopacity="0.0"
     inkscape:pagecheckerboard="0"
     inkscape:deskcolor="#d1d1d1"
     showgrid="false"
     inkscape:zoom="7.0637583"
     inkscape:cx="89.329218"
     inkscape:cy="56.627079"
     inkscape:window-width="1920"
     inkscape:window-height="1016"
     inkscape:window-x="0"
     inkscape:window-y="0"
     inkscape:window-maximized="1"
     inkscape:current-layer="g377" />
  <g
     inkscape:groupmode="layer"
     inkscape:label="Image"
     id="g377">
    <path
       style="fill:#ffeeaa;stroke-width:0.4"
       d="m 83.250556,109.90919 c -1.42199,-0.68702 -2.171176,-2.7465 -1.88996,-5.19538 0.22222,-1.93513 0.13397,-2.27678 -0.983872,-3.80908 -1.405888,-1.927152 -6.320028,-6.116722 -7.17458,-6.116722 -0.314452,0 -1.615476,0.696984 -2.891164,1.548856 -1.603656,1.07088 -3.122616,1.700408 -4.922104,2.039948 -2.73014,0.515136 -5.653932,0.265956 -6.143724,-0.523608 -0.158716,-0.25586 -0.34196,-1.832704 -0.407212,-3.504104 -0.19562,-5.010908 1.311924,-7.191516 3.715144,-5.373812 0.427048,0.323 1.447488,0.593 2.267644,0.6 l 1.491188,0.01272 -1.191188,-1.878312 c -1.524632,-2.404096 -1.525584,-3.94004 -0.0036,-6.04088 2.609008,-3.601632 6.339656,-4.039216 9.83974,-1.154152 2.48422,2.047704 3.256088,5.34034 1.972212,8.413084 l -0.6006,1.43744 3.599308,3.599308 c 3.546468,3.546464 3.607808,3.586272 4.178108,2.711408 0.71363,-1.094728 0.81262,-3.876116 0.42412,-11.916476 -0.28433,-5.884512 -0.25284,-6.33748 0.57008,-8.2 0.47908,-1.08428 1.13708,-2.378268 1.46223,-2.875532 0.57171,-0.874324 0.63362,-0.882588 1.87927,-0.250804 2.24319,1.137728 5.11209,3.511304 5.33958,4.417684 0.13452,0.535948 -0.0981,1.31144 -0.60167,2.005536 -0.83954,1.157272 -1.64139,5.037836 -1.64681,7.9697 -0.002,1.151492 -0.25164,1.863004 -0.84006,2.395524 -0.78805,0.713172 -1.75993,2.166472 -1.44881,2.166472 0.0783,0 1.0566,-1.140948 2.17407,-2.53544 1.92978,-2.408164 4.3824,-4.107688 5.42592,-3.759848 0.30143,0.100476 0.50703,1.223192 0.55642,3.038432 l 0.0783,2.879076 -1.56305,0.986712 c -3.79509,2.395648 -3.61411,6.591068 0.28419,6.591068 1.9159,0 3.13935,-0.7113 3.874294,-2.252476 0.87553,-1.836016 0.83198,-2.249836 -0.344474,-3.272744 -1.61521,-1.404412 -1.24918,-3.651988 1.014644,-6.230344 1.42122,-1.61868 3.18302,-1.932544 4.44369,-0.791644 0.67616,0.611912 0.74855,0.580604 1.15603,-0.5 0.60042,-1.592244 2.77039,-3.752792 3.76917,-3.752792 0.45462,0 1.17486,-0.46376 1.60052,-1.030576 0.94673,-1.260672 2.62655,-2.169424 4.01016,-2.169424 1.25362,0 3.00579,1.08054 3.00579,1.853624 0,0.839592 1.92017,0.276352 3.6,-1.055984 1.04659,-0.830084 1.37171,-1.368872 1.28794,-2.134344 -0.0969,-0.88542 0.10872,-1.0901 1.51968,-1.512836 1.48369,-0.444524 1.7073,-0.41332 2.46456,0.343936 1.02495,1.024956 0.8322,2.006976 -0.9103,4.637664 -1.14615,1.730376 -6.42826,5.86794 -7.49115,5.86794 -0.20097,0 -0.46347,0.731248 -0.58335,1.625 -0.54336,4.051028 -4.05574,8.756012 -7.16628,9.59953 -1.48908,0.40381 -1.90983,0.36622 -3.1211,-0.278898 -0.77,-0.410096 -1.67,-1.326736 -2,-2.036976 -0.33,-0.710236 -0.7113,-1.295236 -0.84733,-1.3 -0.13603,-0.0048 -0.34835,0.744464 -0.47181,1.664944 -0.35209,2.62501 -2.8818,5.878772 -5.620734,7.229472 -2.44332,1.20493 -5.20552,1.74795 -6.82443,1.34163 -0.56156,-0.14094 -1.65002,-0.80852 -2.4188,-1.48352 l -1.39777,-1.22726 -0.94779,2.14314 c -1.12582,2.54566 -2.96164,5.53393 -3.37636,5.49587 -0.16224,-0.0149 -0.69052,-0.21818 -1.17396,-0.45175 z m 1.90326,-1.82118 c 0.53006,-0.605 0.70543,-0.875 0.38973,-0.6 -0.31571,0.275 -0.98458,0.5 -1.48639,0.5 -0.93196,0 -1.13603,-0.41989 -1.458,-3 -0.10416,-0.83461 -0.168,-0.64856 -0.20969,0.611 -0.056,1.69172 0.73329,3.589 1.49303,3.589 0.16917,0 0.74127,-0.495 1.27132,-1.1 z m 11.54239,-7.04338 c -0.0917,-0.0789 -0.88667,-0.25376 -1.76667,-0.38867 -1.08959,-0.16703 -1.4086,-0.12325 -1,0.13726 0.54652,0.34844 3.15498,0.58547 2.76667,0.25141 z m -4.27776,-1.830802 c -0.37064,-0.645796 -0.74665,-1.101412 -0.83558,-1.01248 -0.17535,0.175348 1.0547,2.186662 1.33729,2.186662 0.0947,0 -0.13108,-0.528382 -0.50171,-1.174182 z m -3.61279,-5.82582 c 0.36212,-0.7872 0.35806,-0.787576 -0.25405,-0.02356 -0.34214,0.427048 -0.60786,1.057048 -0.59049,1.4 0.0273,0.53864 0.0619,0.541844 0.25405,0.02356 0.12236,-0.33 0.38808,-0.96 0.59049,-1.4 z m 15.523884,1.05 c 0,-0.385824 -2.41156,-0.971772 -2.72196,-0.661372 -0.21476,0.21476 1.43311,0.946016 2.22196,0.986016 0.275,0.01396 0.5,-0.132144 0.5,-0.324644 z m 8.8,-1.916012 c 0.52658,-0.509164 0.46582,-0.529756 -0.49653,-0.168292 -0.60309,0.226524 -1.36809,0.307652 -1.7,0.180288 -0.61035,-0.234216 -0.83153,0.29262 -0.3324,0.791748 0.3648,0.364808 1.7883,-0.08761 2.52893,-0.803744 z m 1.03448,-2.330472 c 0.65045,-0.992712 0.48866,-1.80608 -0.35809,-1.800216 -0.52693,0.0036 -2.30905,3.030704 -1.97873,3.361024 0.34649,0.346488 1.66347,-0.533152 2.33682,-1.560808 z M 70.243108,89.309148 c 0.805288,-0.396628 1.802688,-1.309476 2.21644,-2.028552 0.68662,-1.193292 0.698572,-1.389388 0.136896,-2.246608 -0.338464,-0.51656 -0.975336,-1.033332 -1.415272,-1.148376 -1.084592,-0.283628 -2.45738,0.749 -2.42628,1.825076 0.02412,0.834924 0.04442,0.82954 0.419924,-0.111388 0.51348,-1.286664 1.140296,-1.64716 2.033168,-1.169308 0.740444,0.396276 0.99966,2.519144 0.415428,3.402204 -0.411312,0.621688 -2.58448,1.689808 -4.380876,2.153208 l -1.513,0.3903 1.524708,-0.172708 c 0.838592,-0.09499 2.18358,-0.497224 2.988864,-0.893848 z m 38.096442,0.17886 c 0.73057,-0.495 1.37369,-1.1295 1.42915,-1.41 0.0555,-0.2805 0.008,-0.321712 -0.1053,-0.09158 -0.41857,0.849612 -2.64251,1.648508 -4.65866,1.673516 -1.46634,0.0182 -1.84048,0.12052 -1.2752,0.348788 1.46657,0.592224 3.26767,0.38878 4.61001,-0.52072 z M 71.467048,85.763644 c -0.183104,-0.94452 -1.074608,-1.204996 -1.382052,-0.403804 -0.307868,0.802296 0.62218,2.010528 1.1451,1.487608 0.205956,-0.205956 0.312584,-0.693668 0.236952,-1.083804 z m 15.229158,-8.375636 c 0.26764,-0.66 0.86601,-1.605 1.3297,-2.1 0.7182,-0.766688 0.74472,-0.9 0.17903,-0.9 -0.36523,0 -1.1616,0.751596 -1.76972,1.670208 -0.96927,1.464156 -1.11492,2.093352 -1.18056,5.1 l -0.0749,3.429792 0.5149,-3 c 0.2832,-1.65 0.73389,-3.54 1.00153,-4.2 z m 25.984824,5.409132 c 0.25863,-0.76498 0.29809,-1.21498 0.0877,-1 -0.21042,0.214976 -0.51063,0.930868 -0.66714,1.590868 -0.36708,1.547908 -0.0261,1.200224 0.57945,-0.590868 z m -1.75149,0.790868 c -0.13597,-0.22 -0.49597,-0.4 -0.8,-0.4 -0.30403,0 -0.66403,0.18 -0.8,0.4 -0.14076,0.22776 0.20372,0.4 0.8,0.4 0.59628,0 0.94076,-0.17224 0.8,-0.4 z m 10.4495,-0.956124 c 1.85344,-1.259444 1.76638,-1.277556 -1.0308,-0.214412 -1.47109,0.559124 -2.64323,0.751472 -3.6,0.59076 -1.35317,-0.227296 -1.38175,-0.208764 -0.6187,0.401204 1.08708,0.868992 3.31121,0.539552 5.2495,-0.777552 z m 19.5505,6.859684 c -2.58166,-1.457928 -3.5601,-3.89756 -3.7313,-9.30356 -0.13284,-4.194588 -0.071,-4.601496 1.32542,-8.716124 1.76136,-5.190108 4.35023,-10.46338 8.1908,-16.683876 2.77224,-4.49016 3.42322,-5.951856 2.88875,-6.486332 -0.71294,-0.712936 -14.16519,-0.93684 -20.83811,-0.346836 -9.58247,0.84726 -26.38974,4.269452 -34.659704,7.057196 -6.90407,2.327316 -24.193612,10.116252 -30.960568,13.947736 -6.6173,3.746748 -14.163504,8.98694 -23.365938,16.225636 -3.550828,2.793108 -5.285209,3.59618 -7.77565,3.600368 -1.758739,0.0028 -2.630602,-0.509992 -3.638374,-2.140604 -0.615127,-0.995296 -0.767304,-1.697292 -0.575657,-2.655528 0.196826,-0.984128 0.09914,-1.392884 -0.399579,-1.67198 -0.787212,-0.440548 -0.85688,-2.180028 -0.178057,-4.445736 0.856223,-2.85782 7.716907,-7.377024 22.207543,-14.62834 11.877228,-5.943532 18.955944,-8.85912 28.244336,-11.633296 14.659834,-4.378476 14.878184,-4.433844 22.066084,-5.595456 2.860004,-0.462196 5.813134,-0.940744 6.562514,-1.063444 1.7584,-0.287908 12.94834,-1.59554 20.63749,-2.411648 4.66742,-0.495388 8.3098,-0.583476 16.4,-0.396624 l 10.4,0.240204 1.10931,-2.29766 c 0.61012,-1.263712 1.10512,-2.435688 1.1,-2.604394 -0.005,-0.168706 -0.90333,0.146294 -1.99601,0.7 -1.60306,0.81233 -2.5721,1.006738 -5.01818,1.006738 -2.68528,0 -3.14361,-0.112128 -4.0133,-0.981818 -1.55793,-1.557927 -1.49039,-2.31815 0.8411,-9.467455 2.74076,-8.404332 2.33928,-9.573394 -2.50165,-7.284397 -1.38691,0.655787 -4.04115,3.93523 -4.90011,6.054316 -0.46374,1.144049 -0.44045,1.63399 0.17417,3.663941 0.84881,2.803429 0.63427,3.917797 -1.09597,5.692734 -1.24569,1.277862 -1.42327,1.332706 -4.29936,1.327798 -2.91508,-0.005 -3.00336,-0.03394 -3.11869,-1.02343 -0.0663,-0.568528 0.50795,-2.28624 1.3,-3.888907 1.30625,-2.643088 1.89546,-5.692782 1.09987,-5.692782 -0.17535,0 -1.03035,0.736722 -1.9,1.63716 -2.38726,2.471776 -8.31482,7.376142 -10.25961,8.488636 -2.88955,1.652928 -8.28919,2.111604 -10.19075,0.865657 -1.39724,-0.915505 -1.06267,-2.30514 1.47094,-6.109551 2.0417,-3.065767 2.40713,-4.081902 1.46796,-4.081902 -0.67813,0 -1.87586,1.317768 -3.27206,3.6 -1.9109,3.123563 -3.95424,5.627524 -5.24487,6.427215 -2.11793,1.312289 -5.395914,0.893865 -7.984114,-1.019137 -0.79307,-0.586182 -0.90302,-0.510341 -2.3899,1.648542 -1.78776,2.59574 -3.7732,3.722148 -6.57878,3.732364 -2.52684,0.0092 -4.55394,-0.633468 -6.669824,-2.114584 l -1.820576,-1.2744 -0.64392,1 c -1.415184,2.19776 -3.55098,4 -4.740308,4 -1.548168,0 -4.444036,-1.877144 -6.077432,-3.939472 -0.72334,-0.913292 -1.474588,-1.660528 -1.66944,-1.660528 -0.194852,0 -0.958896,1.308624 -1.69788,2.908056 -1.626268,3.519844 -3.45026,5.687872 -5.29846,6.297832 -1.19884,0.395652 -1.658084,0.326436 -3.534844,-0.532772 -2.515036,-1.151424 -4.653744,-3.28444 -6.729072,-6.711156 -1.428416,-2.358562 -1.491472,-2.407905 -1.751756,-1.370856 -0.483144,1.925012 0.140408,4.993768 1.41984,6.987588 1.55628,2.425252 1.528728,3.510588 -0.142736,5.622816 -1.822968,2.303676 -3.500128,2.99724 -5.735992,2.372024 -2.467612,-0.690016 -2.654452,-1.074264 -2.330144,-4.792068 0.262088,-3.004504 0.21248,-3.328352 -0.765465,-4.997088 -0.575143,-0.981408 -1.181652,-1.784376 -1.347799,-1.784376 -0.417165,0 -4.464192,5.12138 -4.464192,5.649288 0,0.234968 0.332284,0.905004 0.738409,1.488964 0.738592,1.062012 1.565732,3.578792 1.935725,5.889924 0.306337,1.913512 -0.806724,4.100916 -2.432386,4.78016 -0.762874,0.318748 -1.499975,0.762272 -1.638002,0.985604 -0.288462,0.46674 -2.588407,0.537596 -3.243864,0.09994 -1.391599,-0.929196 -1.662616,-2.991176 -0.740974,-5.637572 0.333995,-0.959036 0.501883,-2.075728 0.373083,-2.48154 -0.214045,-0.674396 -0.412937,-0.623956 -2.313086,0.586596 -2.911165,1.854652 -4.516448,2.653516 -7.252878,3.609384 -2.738283,0.956512 -3.031087,1.5087 -3.091039,5.829256 -0.01984,1.43 -0.328332,3.5 -0.685533,4.6 -0.530797,1.634592 -1.004851,2.237516 -2.594661,3.3 -1.069863,0.714996 -2.125657,1.299996 -2.346209,1.299996 -0.220552,0 -1.10021,-0.76492 -1.954794,-1.699824 -1.291013,-1.412344 -1.553791,-1.985272 -1.553791,-3.38768 0,-1.79398 1.11819,-4.352476 2.415281,-5.526324 0.466894,-0.422536 0.784719,-1.226432 0.784719,-1.984852 0,-1.148716 -0.164423,-1.323952 -1.663748,-1.77316 C 0.74778103,56.163716 1.415219,46.98048 9.343947,43.581832 10.277161,43.181808 11.113082,42.637372 11.20155,42.371968 11.549481,41.328172 10.41403,36.469898 9.548557,35.299284 8.948445,34.487589 8.51636,33.094788 8.256346,31.13392 8.041499,29.513668 7.772814,27.530268 7.659269,26.726364 7.386713,24.79666 8.593793,23.443933 10.235628,23.839139 c 1.446691,0.348233 4.686598,1.977282 6.762225,3.400096 1.885012,1.29215 6.160741,6.22732 10.733501,12.388917 1.697954,2.28792 3.143534,4.221228 3.212398,4.296236 0.145789,0.158796 2.961122,-3.613932 2.975868,-3.987852 0.0055,-0.138308 -0.521309,-0.471512 -1.170585,-0.740452 -3.762362,-1.55842 -3.028384,-7.790562 1.166903,-9.908076 3.057871,-1.543418 6.163494,-0.874516 7.843398,1.689346 0.662308,1.010804 0.648148,3.02066 -0.0332,4.710654 -0.15632,0.387744 -0.104028,0.7 0.117224,0.7 0.219688,0 0.504384,-0.418159 0.63266,-0.929241 0.128272,-0.511083 0.68182,-1.590288 1.230108,-2.398233 0.929156,-1.369189 0.968564,-1.622187 0.580048,-3.723858 -0.70352,-3.805707 -0.931752,-4.169672 -2.44392,-3.89739 -3.929837,0.707609 -7.777434,1.924851 -11.18184,3.537533 -2.102885,0.996154 -4.201125,1.811189 -4.66274,1.811189 -0.89906,0 -2.86814,-2.492714 -2.86814,-3.630859 0,-2.431189 8.497422,-5.169141 16.042786,-5.169141 h 3.957214 v -1.253592 c 0,-2.025629 0.842212,-4.261952 2.194012,-5.825754 1.149176,-1.3294 1.482508,-1.475141 3.748816,-1.639071 2.463544,-0.178197 2.50188,-0.164798 3.982804,1.391977 0.822428,0.864549 1.744416,2.326677 2.048868,3.249173 0.304452,0.922497 0.711908,1.677267 0.90546,1.677267 0.193552,0 1.057568,-0.36 1.92004,-0.8 0.862472,-0.44 1.936824,-0.8 2.387456,-0.8 0.7003,0 0.75144,0.108697 0.35204,0.748238 -0.257004,0.41153 -1.312584,1.30162 -2.345728,1.977975 -1.785144,1.168658 -1.891664,1.342193 -2.144544,3.493825 -0.297032,2.527264 -0.599808,3.222512 -2.48024,5.695193 -1.416208,1.862248 -1.412876,2.464251 0.02936,5.308137 0.983868,1.940056 1.783836,2.758448 3.32636,3.402955 1.151676,0.481201 1.495348,0.480433 2.43494,-0.0054 1.617556,-0.836473 2.578412,-3.269567 2.281852,-5.778156 -0.13282,-1.123495 -0.34322,-2.897718 -0.467556,-3.942718 -0.298908,-2.512187 0.342012,-3.38887 2.500524,-3.420349 1.884032,-0.02748 4.339752,1.025785 4.920144,2.110256 0.222968,0.416625 0.4054,1.75569 0.4054,2.975702 0,2.610998 0.959112,5.277324 2.122236,5.89981 0.70482,0.377208 0.991248,0.257176 1.9519,-0.81798 0.619216,-0.693082 1.125856,-1.623971 1.125856,-2.068691 0,-0.44472 -0.802576,-3.18688 -1.783504,-6.093689 C 68.47048,15.395914 68.086552,8.3991009 71.311764,4.9793829 c 0.836744,-0.8872076 1.684748,-1.3913748 2.340284,-1.3913748 1.363568,0 4.379172,1.8969536 5.424108,3.4120168 3.00453,4.3562911 3.95431,14.1757171 2.20114,22.7567411 l -0.565684,2.768757 1.084774,1.132259 c 1.59459,1.664392 4.20974,2.825512 5.59497,2.484153 1.50461,-0.370776 2.74538,-1.200105 3.48554,-2.32972 0.5627,-0.858791 0.49626,-1.123805 -0.99554,-3.970725 -3.16164,-6.033654 -4.63004,-12.401422 -4.25308,-18.443601 0.17032,-2.7300721 0.43586,-3.7504453 1.49142,-5.7308761 1.6858,-3.1628867 2.86587,-4.2473056 4.56936,-4.1990184 2.46858,0.069974 2.78068,0.389329 5.28992,5.4127376 1.32843,2.659478 2.59714,8.7166529 2.62821,12.5477799 0.0144,1.782278 -0.29938,5.094485 -0.69741,7.360461 l -0.7237,4.119955 1.17173,0.937553 c 1.883744,1.507267 3.634474,1.275807 5.736964,-0.758473 0.96635,-0.935 2.08912,-2.42 2.49504,-3.3 l 0.73804,-1.6 -1.08761,-0.8 c -3.93025,-2.890942 -4.15497,-4.059255 -1.37189,-7.132434 1.06635,-1.177497 2.36081,-2.891744 2.87658,-3.809438 0.93795,-1.668861 1.12823,-1.773827 4.83375,-2.666565 1.09791,-0.264509 4.86568,0.673804 5.79172,1.442347 0.77846,0.646061 1.1475,3.057164 0.57374,3.748497 -0.26184,0.3155 -1.49724,0.777286 -2.74534,1.026191 -4.05293,0.808267 -5.26926,1.212702 -5.26926,1.752056 0,0.364581 0.81946,0.595596 2.62754,0.740732 3.07275,0.24665 4.34185,1.156718 4.99486,3.581791 0.44994,1.670977 0.46994,1.608753 -1.45162,4.516823 -1.77333,2.683744 -1.88669,3.563601 -0.48,3.72568 1.29396,0.149089 4.25658,-1.269155 7.19277,-3.44328 2.24412,-1.661673 5.51645,-4.783368 5.51645,-5.262513 0,-0.157297 -0.7196,-0.864279 -1.5991,-1.571069 -2.16484,-1.739711 -2.93994,-3.338285 -2.69072,-5.549349 0.55709,-4.942555 7.52969,-6.8935719 11.02731,-3.085576 1.1571,1.259775 1.31895,1.686714 1.2,3.165419 l -0.13749,1.709241 1.2,-0.900645 c 0.66,-0.495354 2.47632,-1.538097 4.03626,-2.317205 1.55994,-0.779109 3.12746,-1.861001 3.48338,-2.404204 0.35593,-0.543204 1.48035,-1.305853 2.49873,-1.694776 1.53031,-0.584427 2.07604,-0.625974 3.14501,-0.239427 0.71138,0.257237 1.84494,0.467704 2.51902,0.467704 1.36291,0 2.50725,1.304414 2.53178,2.885927 0.008,0.50274 0.27141,1.364073 0.58582,1.914073 1.13539,1.98615 0.77281,3.35176 -1.61279,6.074498 -2.81628,3.214269 -4.09037,5.379019 -4.43524,7.535708 -0.22437,1.403115 -0.14082,1.808678 0.46363,2.250661 3.58796,2.623582 10.1844,-4.920081 10.1844,-11.64684 0,-2.815063 1.09517,-3.814027 4.18134,-3.814027 1.1404,0 3.00536,-0.276745 4.14435,-0.614988 3.09157,-0.918096 4.47431,0.10999 4.47431,3.326696 0,1.53119 -0.89488,2.888292 -1.90454,2.888292 -0.24285,0 -0.56433,0.386858 -0.7144,0.859684 -0.15007,0.472826 -0.9272,1.515272 -1.72696,2.316546 -0.79976,0.801275 -2.18937,2.799417 -3.08803,4.440316 -0.89867,1.6409 -2.92367,5.277517 -4.5,8.081371 -1.57634,2.803855 -2.86607,5.331811 -2.86607,5.617683 0,0.285872 1.00698,0.82984 2.23772,1.20882 2.66907,0.82188 5.34759,2.585272 6.7805,4.463912 2.01714,2.644612 1.97226,10.46672 -0.0976,17.00516 -1.81334,5.728168 -7.88712,14.02552 -13.33619,18.218484 -4.49395,3.458012 -8.46619,5.399672 -12.18444,5.955828 -1.2317,0.184232 -1.9683,0.03132 -3.2,-0.664244 z m 6.68898,-7.551184 c 0.87656,-0.46912 5.4734,-4.179096 7.97196,-6.43394 6.47232,-5.840992 10.9602,-16.954576 8.50312,-21.05672 -1.31236,-2.191004 -5.53856,-4.540828 -7.09356,-3.94412 -0.32425,0.124428 -1.61688,2.353872 -2.8725,4.95432 -8.1514,16.881948 -11.1972,26.928084 -8.16408,26.928084 0.45027,0 1.19505,-0.201432 1.65506,-0.447624 z M 11.149863,53.088008 c 0.01118,-0.495 0.117961,-1.665 0.237293,-2.6 0.253246,-1.984256 -0.210839,-2.183144 -1.675802,-0.71818 -1.210874,1.210872 -1.240835,2.090908 -0.112093,3.2924 1.093986,1.164492 1.524722,1.171656 1.550602,0.02576 z m 12.479673,-1.99388 c 1.265,-0.669668 2.3,-1.355976 2.3,-1.525128 0,-0.55444 -4.912976,-1.980992 -6.822431,-1.980992 h -1.867093 l -0.268151,2.617304 c -0.147483,1.439516 -0.16843,2.778652 -0.04655,2.97586 0.310692,0.502708 3.955542,-0.631944 6.704225,-2.087044 z m -0.3485,-8.227644 c 0.483369,-0.782108 -5.396946,-6.966364 -6.02592,-6.33739 -0.116342,0.116343 -0.08689,1.452693 0.06546,2.969666 l 0.276989,2.758136 2.465987,0.401996 c 1.356293,0.221096 2.590364,0.430596 2.74238,0.465556 0.152017,0.03496 0.365815,-0.08113 0.475107,-0.257964 z M 36.79804,34.926013 c 0.988039,-0.894163 0.975392,-2.538005 -0.01953,-2.538005 -1.088174,0 -1.780313,1.022265 -1.486024,2.194806 0.29655,1.181547 0.522317,1.233012 1.50555,0.343199 z m 14.0887,-10.37072 c 0.352176,-0.917758 0.323648,-0.967285 -0.557204,-0.967285 -0.770876,0 -1.08396,0.782708 -0.533332,1.333333 0.438028,0.438031 0.832836,0.30551 1.090536,-0.366048 z m 26.424972,-2.467285 c 0.311868,-2.303424 -0.351328,-8.51641 -1.065404,-9.981012 -1.485584,-3.0469819 -2.198624,-0.154421 -1.321276,5.359959 1.042916,6.555023 1.90012,8.21473 2.38668,4.621053 z m 17.067454,0.8 c 0.11861,-2.628711 -0.1821,-5.722779 -0.84553,-8.7 -1.22244,-5.4858051 -2.07061,-6.7843503 -2.54736,-3.9 -0.40789,2.467702 -0.28617,4.131696 0.54861,7.5 1.29292,5.216901 2.72329,7.781648 2.84428,5.1 z m -43.55723,-2.451784 c -0.29898,-2.037074 -2.0924,-2.126735 -2.0924,-0.104609 0,1.406326 0.702352,2.1368 1.595132,1.658999 0.472076,-0.252649 0.620316,-0.716018 0.497268,-1.55439 z m 82.847854,-2.141317 c 0.12845,-0.491206 0.0878,-1.038835 -0.0903,-1.216953 -0.48018,-0.480174 -1.30359,0.704831 -1.01405,1.459355 0.35075,0.914052 0.8294,0.808989 1.10435,-0.242402 z m -71.585394,1.519705 c -0.14222,-0.370622 0.04686,-0.986516 0.434312,-1.414637 0.46668,-0.515677 0.610384,-1.118722 0.44922,-1.885102 -0.270272,-1.285213 -0.0056,-1.813833 1.235312,-2.466983 1.133192,-0.596466 2.639044,-0.587134 3.246296,0.02012 0.264,0.264 0.48,1.092 0.48,1.84 0,1.572924 -2.167444,4.08 -3.527284,4.08 -0.444008,0 -1.090492,0.108675 -1.436628,0.241501 -0.380152,0.145878 -0.72908,-0.0184 -0.881228,-0.414898 z"
       id="path381" />
  </g>
</svg>
