<?xml version="1.0" encoding="UTF-8" standalone="no"?>
<!-- Created with Inkscape (http://www.inkscape.org/) -->

<svg
   version="1.1"
   id="svg2529"
   width="252.8"
   height="247.67999"
   viewBox="0 0 252.8 247.67999"
   sodipodi:docname="mag-off.png"
   inkscape:export-filename="../svg/mag-off.svg"
   inkscape:export-xdpi="96"
   inkscape:export-ydpi="96"
   xmlns:inkscape="http://www.inkscape.org/namespaces/inkscape"
   xmlns:sodipodi="http://sodipodi.sourceforge.net/DTD/sodipodi-0.dtd"
   xmlns="http://www.w3.org/2000/svg"
   xmlns:svg="http://www.w3.org/2000/svg">
  <defs
     id="defs2533" />
  <sodipodi:namedview
     id="namedview2531"
     pagecolor="#ffffff"
     bordercolor="#000000"
     borderopacity="0.25"
     inkscape:showpageshadow="2"
     inkscape:pageopacity="0.0"
     inkscape:pagecheckerboard="0"
     inkscape:deskcolor="#d1d1d1"
     showgrid="false" />
  <g
     inkscape:groupmode="layer"
     inkscape:label="Image"
     id="g2535">
    <path
       style="fill:#fff6d5;stroke-width:0.320054"
       d="m 15.841456,237.19205 c -0.855859,-0.36902 -8.248087,-8.82934 -8.5935249,-9.8352 -0.1700954,-0.49531 -0.1325047,-1.12952 0.1002514,-1.69145 0.2048114,-0.49446 3.4184665,-3.61966 7.1414555,-6.9449 3.722987,-3.32523 9.582861,-8.56875 13.021943,-11.65223 3.439081,-3.08349 9.637443,-8.62497 13.774137,-12.31438 4.136693,-3.68942 9.689275,-8.65581 12.33908,-11.03644 2.6498,-2.38063 9.343652,-8.36108 14.875226,-13.28991 5.531575,-4.92882 10.930832,-9.75363 11.998342,-10.7218 1.067516,-0.96815 5.859585,-5.26813 10.649049,-9.55552 4.789461,-4.28737 8.708114,-7.91522 8.708114,-8.06188 0,-0.14665 -0.601492,-0.95953 -1.336647,-1.80637 -8.261692,-9.51688 -15.049421,-23.27762 -17.651799,-35.78546 -1.331014,-6.397253 -1.638665,-9.551915 -1.638665,-16.802816 0,-9.76275 1.049824,-16.427744 3.998195,-25.383196 C 87.176971,50.31157 93.822261,39.604263 103.03921,30.387184 115.98745,17.438772 131.69882,9.5302253 150.15016,6.6731952 c 6.60087,-1.022085 17.95082,-1.022085 24.55169,0 18.45135,2.8570301 34.16271,10.7655768 47.11095,23.7139888 12.95946,12.959636 20.84302,28.929915 23.39101,47.384849 0.54653,3.958479 0.54653,15.884843 0,19.843322 -1.2006,8.695915 -3.77534,17.381355 -7.33494,24.743085 -4.40001,9.09993 -8.99743,15.58302 -16.05607,22.64176 -12.94824,12.94841 -28.6596,20.85696 -47.11095,23.714 -3.79622,0.58781 -5.92923,0.71141 -12.27585,0.71141 -6.3466,0 -8.47962,-0.1236 -12.27584,-0.71141 -14.15903,-2.19241 -27.17405,-7.58517 -38.02907,-15.75735 -1.86713,-1.40566 -3.50543,-2.51455 -3.64065,-2.46419 -0.36661,0.13654 -2.72447,2.38896 -18.411208,17.58798 -7.872632,7.62785 -19.306363,18.69364 -25.40829,24.59063 -9.290894,8.97885 -31.9422,30.89431 -43.091076,41.6912 -3.009092,2.91411 -4.185037,3.49496 -5.72841,2.82958 z m 13.621636,-18.32719 c 6.590461,-6.36502 16.4474,-15.90156 21.904315,-21.19236 5.456913,-5.29079 14.314396,-13.86966 19.683297,-19.06413 24.295021,-23.50578 33.020836,-32.02482 32.802156,-32.02482 -0.10809,0 -2.73013,2.26838 -5.826743,5.04084 -14.864361,13.30838 -26.027756,23.29478 -33.578372,30.03811 -19.215392,17.16091 -24.758851,22.1138 -27.502386,24.57248 -1.595063,1.42945 -6.847614,6.12758 -11.672337,10.44031 -4.824721,4.31271 -9.343719,8.36273 -10.042218,9.00004 l -1.269996,1.15873 1.539296,1.80177 c 0.846613,0.99097 1.638531,1.80177 1.759815,1.80177 0.121279,0 5.612713,-5.20773 12.203173,-11.57274 z m 144.484838,-60.0888 c 14.17726,-2.4062 26.7502,-8.47328 37.06196,-17.88426 14.7766,-13.48579 23.26815,-32.66649 23.26815,-52.558 0,-19.891515 -8.49155,-39.072208 -23.26815,-52.558006 -10.50572,-9.587991 -23.29659,-15.665843 -38.02212,-18.06701 -4.93362,-0.804482 -16.18991,-0.804482 -21.12353,0 -14.72552,2.401167 -27.5164,8.479019 -38.02211,18.06701 -18.100408,16.519258 -26.520887,41.331191 -22.127111,65.200126 4.340748,23.58085 20.159601,43.37961 42.228711,52.85318 7.0379,3.02115 13.28717,4.59633 22.56128,5.68679 2.93241,0.34478 13.75765,-0.11438 17.44292,-0.73983 z m -17.28289,-6.16767 c -7.68739,-0.77399 -16.55214,-3.31955 -23.68397,-6.80099 -11.7894,-5.75507 -21.54398,-14.63598 -27.90324,-25.40409 -10.666307,-18.06123 -11.69518,-40.986017 -2.69572,-60.064853 1.47167,-3.119929 1.6606,-3.378256 2.24286,-3.066637 0.34969,0.187157 0.71988,0.476287 0.82261,0.642517 0.10273,0.166228 -0.60377,1.934244 -1.57002,3.928913 -4.643776,9.58634 -6.883846,20.844755 -6.004322,30.177206 1.130664,11.997294 5.214962,22.700204 12.272212,32.159334 2.50199,3.35354 8.25863,9.34122 11.47372,11.93421 13.4659,10.86033 31.81553,16.71006 48.06514,15.32276 5.07392,-0.43318 11.06519,-1.54652 14.88786,-2.76659 2.32768,-0.7429 2.52552,-0.76026 2.90234,-0.25467 0.22242,0.29842 0.35527,0.6899 0.29525,0.86998 -0.26558,0.79676 -9.19891,2.78689 -15.07761,3.35893 -4.07685,0.39672 -11.90377,0.37912 -16.02711,-0.036 z m 4.10926,-24.56706 c -0.55638,-0.33925 -1.08614,-0.8788 -1.17724,-1.19901 -0.28532,-1.00277 -0.51036,-4.80228 -0.73585,-12.42415 -0.11978,-4.04868 -0.24765,-7.7933 -0.28415,-8.32139 -0.0365,-0.52809 -0.0857,-1.42824 -0.109,-2.00034 -0.0419,-1.02067 -0.0712,-1.04028 -1.56294,-1.04604 -3.23061,-0.0123 -11.86675,-1.57177 -15.20569,-2.74549 l -1.20335,-0.423003 -3.23469,6.628023 c -1.77908,3.64541 -4.0778,8.37623 -5.10828,10.51292 -2.40316,4.98295 -3.13562,5.87674 -4.81593,5.87674 -1.58962,0 -2.83748,-1.11563 -2.83748,-2.53675 0,-1.15889 0.31052,-1.85743 5.88514,-13.23942 2.39611,-4.89227 4.35658,-9.032959 4.35658,-9.201543 0,-0.168579 -0.14807,-0.306522 -0.32901,-0.306522 -0.49049,0 -6.51738,-2.956566 -9.32959,-4.57674 l -2.45737,-1.415758 -4.58381,3.87872 c -7.93441,6.713943 -8.208,6.914583 -9.42849,6.914583 -1.59783,0 -2.67656,-1.17207 -2.67656,-2.908157 0,-1.57449 -0.0681,-1.501869 6.87495,-7.328358 l 4.73863,-3.976561 -1.07599,-0.814788 c -1.66961,-1.264302 -7.4454,-6.242828 -7.93634,-6.840834 -0.4077,-0.496613 -0.0102,-0.535055 5.53104,-0.535055 h 5.9703 l 2.31027,1.728041 c 8.40884,6.289652 18.94844,10.85841 29.3548,12.724859 4.86,0.871672 13.72878,0.944502 18.40308,0.151118 10.27597,-1.744169 19.44212,-5.446205 28.75223,-11.612496 l 4.51673,-2.991524 6.24935,0.01017 6.24936,0.01017 -1.7603,1.5623 c -0.96816,0.859264 -3.29804,2.690987 -5.17753,4.070495 -1.87947,1.379507 -3.42225,2.580209 -3.4284,2.668222 -0.006,0.08802 1.45959,1.255668 3.2572,2.594785 1.79761,1.339117 5.25134,3.909915 7.67495,5.712885 2.42361,1.80297 4.54798,3.542338 4.72079,3.865268 1.02117,1.90808 -0.29364,4.27782 -2.3735,4.27782 -1.10811,0 -2.30171,-0.80529 -14.16784,-9.558754 l -4.53353,-3.344303 -4.90806,2.522113 c -2.69944,1.387161 -5.87303,2.905746 -7.05244,3.374637 l -2.14437,0.852529 6.06503,11.928228 c 6.5808,12.94262 6.79648,13.55852 5.27943,15.07558 -1.12032,1.12033 -2.86274,1.07839 -3.92848,-0.0945 -0.43983,-0.48409 -3.48376,-6.13986 -6.76428,-12.56837 -3.2805,-6.42852 -6.07297,-11.8523 -6.20546,-12.05283 -0.17817,-0.2697 -0.6781,-0.24773 -1.92032,0.0844 -3.14159,0.8399 -8.08994,1.69864 -11.09566,1.92553 l -2.99751,0.22629 0.21362,6.59173 c 0.11749,3.62545 0.30164,8.70063 0.40921,11.27817 0.10756,2.57755 0.10015,5.06643 -0.0164,5.53086 -0.21269,0.84745 -1.85728,2.10237 -2.75519,2.10237 -0.26403,0 -0.93529,-0.27756 -1.49167,-0.61682 z m 64.75987,-35.946899 c -0.68653,-0.921287 -0.79629,-1.479147 -0.96035,-4.880819 -0.44608,-9.249244 -2.48564,-17.660139 -6.15236,-25.371524 -5.81001,-12.218903 -15.50893,-21.574965 -28.80803,-27.789667 -3.47442,-1.623604 -10.38961,-3.981793 -13.98769,-4.770019 -1.92082,-0.420794 -2.63243,-0.734035 -3.14349,-1.383738 -0.36332,-0.461897 -0.52025,-0.886597 -0.34873,-0.943772 0.58031,-0.19343 7.80026,1.573035 11.05858,2.705647 24.50573,8.518333 39.46548,26.728012 42.57813,51.828051 0.53595,4.321848 0.98759,11.646014 0.71814,11.646014 -0.0985,0 -0.52789,-0.468079 -0.9542,-1.040173 z"
       id="path3019" />
  </g>
</svg>
