<?xml version="1.0" encoding="UTF-8" standalone="no"?>
<!-- Created with Inkscape (http://www.inkscape.org/) -->

<svg
   version="1.1"
   id="svg3118"
   width="252.8"
   height="247.67999"
   viewBox="0 0 252.8 247.67999"
   sodipodi:docname="mag-on1.png"
   inkscape:export-filename="../svg/mag-on2.svg"
   inkscape:export-xdpi="96"
   inkscape:export-ydpi="96"
   xml:space="preserve"
   xmlns:inkscape="http://www.inkscape.org/namespaces/inkscape"
   xmlns:sodipodi="http://sodipodi.sourceforge.net/DTD/sodipodi-0.dtd"
   xmlns="http://www.w3.org/2000/svg"
   xmlns:svg="http://www.w3.org/2000/svg"><defs
     id="defs3122" /><sodipodi:namedview
     id="namedview3120"
     pagecolor="#ffffff"
     bordercolor="#000000"
     borderopacity="0.25"
     inkscape:showpageshadow="2"
     inkscape:pageopacity="0.0"
     inkscape:pagecheckerboard="0"
     inkscape:deskcolor="#d1d1d1"
     showgrid="false" /><g
     inkscape:groupmode="layer"
     inkscape:label="Image"
     id="g3124"><path
       style="fill:#fff6d5;stroke-width:0.32"
       d="m 16.910009,238.75181 c -0.855718,-0.36893 -8.2467065,-8.82783 -8.5920875,-9.83354 -0.170066,-0.49521 -0.132481,-1.12932 0.100236,-1.69115 0.204778,-0.49438 3.4178945,-3.61906 7.1402595,-6.94374 3.722364,-3.32468 9.581258,-8.56731 13.019764,-11.65029 3.438505,-3.08298 9.635828,-8.62352 13.771828,-12.31232 4.136,-3.68879 9.687655,-8.65435 12.337015,-11.03458 2.649356,-2.38022 9.342086,-8.35968 14.872737,-13.28768 5.53065,-4.928 10.929,-9.752 11.99633,-10.72 1.06734,-0.968 5.8586,-5.26727 10.64727,-9.55393 4.78866,-4.28665 8.706649,-7.91389 8.706649,-8.06053 0,-0.14664 -0.60139,-0.95937 -1.336419,-1.80608 -8.26031,-9.51528 -15.0469,-23.27372 -17.64885,-35.77947 -1.33079,-6.396172 -1.63839,-9.550306 -1.63839,-16.799992 0,-9.761113 1.04965,-16.424991 3.99753,-25.378943 3.9497,-11.996921 10.59387,-22.702434 19.809269,-31.917968 12.94607,-12.946246 28.65481,-20.853467 47.10307,-23.7100194 6.59975,-1.021913 17.94782,-1.021913 24.54757,0 18.44826,2.8565524 34.157,10.7637734 47.10307,23.7100194 12.95728,12.957463 20.83951,28.925069 23.38708,47.376911 0.54644,3.957818 0.54644,15.882182 0,19.84 -1.20041,8.694452 -3.77472,17.378442 -7.3337,24.738942 -4.3993,9.0984 -8.99593,15.58042 -16.05338,22.63797 -12.94607,12.94625 -28.65481,20.85347 -47.10307,23.71002 -3.79558,0.58772 -5.92824,0.71131 -12.27378,0.71131 -6.34555,0 -8.47821,-0.12359 -12.27379,-0.71131 -14.15667,-2.19203 -27.16949,-7.58389 -38.0227,-15.7547 -1.86683,-1.40543 -3.50485,-2.51413 -3.64005,-2.46378 -0.36655,0.13651 -2.72401,2.38856 -18.408119,17.58503 -7.87131,7.62659 -19.30313,18.69052 -25.404033,24.58652 -9.289338,8.97734 -31.936851,30.88913 -43.08386,41.68423 -3.008588,2.91361 -4.184335,3.49437 -5.727449,2.82907 z m 13.619354,-18.3241 c 6.589357,-6.36394 16.444646,-15.8989 21.900646,-21.18881 5.456,-5.2899 14.312,-13.86733 19.680002,-19.06094 24.29095,-23.50184 33.015299,-32.01945 32.796649,-32.01945 -0.10807,0 -2.72966,2.268 -5.825759,5.04 -14.86187,13.30615 -26.02339,23.29088 -33.572745,30.03306 -19.212172,17.15804 -24.754704,22.11011 -27.497779,24.56837 -1.594797,1.42921 -6.846468,6.12657 -11.670382,10.43857 -4.823914,4.312 -9.342155,8.36134 -10.040537,8.99853 l -1.269783,1.15854 1.539038,1.80146 c 0.846472,0.99081 1.638256,1.80147 1.759521,1.80147 0.121266,0 5.611774,-5.20686 12.201129,-11.5708 z M 174.99001,160.34897 c 14.17487,-2.40579 26.74571,-8.47185 37.05574,-17.88125 14.77412,-13.48354 23.26426,-32.66103 23.26426,-52.549212 0,-19.888185 -8.49014,-39.065666 -23.26426,-52.549204 -10.50396,-9.586388 -23.29269,-15.663222 -38.01574,-18.063984 -4.9328,-0.804349 -16.18721,-0.804349 -21.12,0 -14.72306,2.400762 -27.51179,8.477596 -38.01575,18.063984 -18.097369,16.516492 -26.516439,41.32427 -22.123399,65.189206 4.34003,23.5769 20.156219,43.37236 42.221649,52.84434 7.0367,3.02063 13.28493,4.59555 22.5575,5.68582 2.9319,0.34474 13.75534,-0.11433 17.44,-0.7397 z m -17.28,-6.16663 c -7.68611,-0.77386 -16.54937,-3.319 -23.68,-6.79986 -11.78744,-5.7541 -21.54038,-14.63353 -27.89858,-25.39985 -10.664519,-18.0582 -11.693209,-40.979136 -2.69526,-60.054777 1.47141,-3.119408 1.66032,-3.377689 2.24248,-3.066125 0.34964,0.187124 0.71976,0.476208 0.82248,0.64241 0.10271,0.166205 -0.60368,1.93392 -1.56977,3.928256 -4.64299,9.584735 -6.882689,20.841263 -6.003309,30.172152 1.130479,11.995284 5.214089,22.696394 12.270149,32.153964 2.50157,3.35297 8.25725,9.33963 11.47181,11.93219 13.46365,10.85853 31.8102,16.70726 48.05708,15.3202 5.07307,-0.4331 11.06333,-1.54626 14.88536,-2.76611 2.3273,-0.74279 2.52512,-0.76015 2.90187,-0.25464 0.22237,0.29836 0.35521,0.68979 0.29519,0.86984 -0.26554,0.79661 -9.19737,2.78641 -15.07508,3.35837 -4.07616,0.39665 -11.90177,0.37906 -16.02442,-0.036 z m -9.12,-35.62384 v -14.56 h -12.8 -12.8 V 89.278508 74.558509 h 12.8 12.8 v -14.56 -14.559999 h 15.04 15.04 v 14.559999 14.56 h 12.96 12.96 V 89.278508 103.9985 h -12.96 -12.96 v 14.56 14.56001 h -15.04 -15.04 z m 26.24,-4 V 99.838508 h 12.96 12.96 v -10.72 -10.72 h -12.96 -12.96 V 63.838509 49.27851 h -11.04 -11.04 v 14.559999 14.559999 h -12.96 -12.96 v 10.72 10.72 h 12.96 12.96 v 14.719992 14.72001 h 11.04 11.04 z m -18.88,-3.36 V 96.638508 h -12.96 -12.96 v -7.52 -7.52 h 12.96 12.96 V 67.032819 52.46713 l 7.76,0.08569 7.76,0.08569 0.0833,14.48 0.0833,14.479999 h 12.95674 12.95674 v 7.52 7.52 h -12.96 -12.96 v 14.559991 14.56001 h -7.84 -7.84 z m 70.61758,-17.519992 c -0.6864,-0.921133 -0.79615,-1.478899 -0.96018,-4.88 -0.446,-9.247696 -2.48522,-17.657183 -6.15132,-25.367276 -5.80905,-12.216857 -15.50634,-21.571353 -28.80322,-27.785013 -3.47383,-1.623331 -10.38787,-3.981127 -13.98534,-4.769221 -1.92051,-0.420724 -2.63199,-0.733912 -3.14296,-1.383506 -0.36327,-0.461821 -0.52017,-0.886447 -0.34867,-0.943613 0.58021,-0.193402 7.79895,1.572772 11.05672,2.705192 24.50163,8.516908 39.45887,26.723537 42.57101,51.819373 0.53586,4.321123 0.98742,11.644064 0.71802,11.644064 -0.0985,0 -0.52782,-0.468 -0.95406,-1.04 z"
       id="path3735" /></g></svg>
