<?xml version="1.0" encoding="UTF-8" standalone="no"?>
<!-- Created with Inkscape (http://www.inkscape.org/) -->

<svg
   version="1.1"
   id="svg3118"
   width="252.8"
   height="247.67999"
   viewBox="0 0 252.8 247.67999"
   sodipodi:docname="mag-on1.png"
   inkscape:export-filename="../svg/mag-on2.svg"
   inkscape:export-xdpi="96"
   inkscape:export-ydpi="96"
   xml:space="preserve"
   xmlns:inkscape="http://www.inkscape.org/namespaces/inkscape"
   xmlns:sodipodi="http://sodipodi.sourceforge.net/DTD/sodipodi-0.dtd"
   xmlns="http://www.w3.org/2000/svg"
   xmlns:svg="http://www.w3.org/2000/svg"><defs
     id="defs3122" /><sodipodi:namedview
     id="namedview3120"
     pagecolor="#ffffff"
     bordercolor="#000000"
     borderopacity="0.25"
     inkscape:showpageshadow="2"
     inkscape:pageopacity="0.0"
     inkscape:pagecheckerboard="0"
     inkscape:deskcolor="#d1d1d1"
     showgrid="false" /><g
     inkscape:groupmode="layer"
     inkscape:label="Image"
     id="g3124"><path
       style="fill:#fff6d5;stroke-width:0.326003"
       d="m 14.574543,240.10849 c -0.87177,-0.37586 -8.4013997,-8.99344 -8.7532597,-10.018 -0.17326,-0.50451 -0.13497,-1.15052 0.10212,-1.72288 0.20862,-0.50366 3.482,-3.68695 7.2741897,-7.074 3.79219,-3.38704 9.76099,-8.72802 13.264,-11.86882 3.503,-3.14081 9.81658,-8.78529 14.03016,-12.54328 4.21359,-3.75799 9.86938,-8.8167 12.56844,-11.24158 2.69905,-2.42487 9.51733,-8.51649 15.15173,-13.53693 5.63439,-5.02045 11.13401,-9.93494 12.22136,-10.92109 1.08735,-0.98616 5.9685,-5.36607 10.84699,-9.73314 4.87849,-4.36707 8.869967,-8.06235 8.869967,-8.21174 0,-0.1494 -0.612667,-0.97737 -1.361487,-1.83995 -8.41526,-9.69377 -15.32915,-23.7103 -17.9799,-36.45062 -1.35576,-6.516172 -1.66913,-9.729471 -1.66913,-17.115152 0,-9.944214 1.06934,-16.733096 4.07251,-25.855009 4.02379,-12.221966 10.7926,-23.128294 20.180867,-32.516697 13.18892,-13.189096 29.19232,-21.2446446 47.98664,-24.1547806 6.72356,-1.041083 18.28449,-1.041083 25.00805,0 18.79432,2.910136 34.79773,10.9656846 47.98664,24.1547806 13.20034,13.200524 21.23044,29.467657 23.82579,48.265624 0.55668,4.03206 0.55668,16.180107 0,20.212167 -1.22293,8.857557 -3.84552,17.704437 -7.47127,25.203007 -4.48182,9.26907 -9.16467,15.87267 -16.35452,23.06262 -13.18891,13.18909 -29.19231,21.24464 -47.98664,24.15478 -3.86678,0.59874 -6.03944,0.72465 -12.50402,0.72465 -6.46458,0 -8.63724,-0.12591 -12.50403,-0.72465 -14.42221,-2.23316 -27.67914,-7.72616 -38.73594,-16.05023 -1.90184,-1.43179 -3.57059,-2.5613 -3.70832,-2.51 -0.37343,0.13906 -2.77511,2.43337 -18.753427,17.91489 -8.01897,7.76965 -19.66523,19.04112 -25.88058,25.04772 -9.46359,9.14575 -32.53593,31.46856 -43.89204,42.46616 -3.06503,2.96826 -4.26283,3.55992 -5.83489,2.88215 z m 13.87483,-18.66784 c 6.71296,-6.48332 16.75312,-16.19714 22.31147,-21.58627 5.55834,-5.38914 14.58047,-14.12747 20.04916,-19.4185 24.74661,-23.9427 33.634617,-32.62008 33.411867,-32.62008 -0.1101,0 -2.78087,2.31054 -5.935037,5.13454 -15.14066,13.55575 -26.51156,23.72778 -34.20252,30.59644 -19.57257,17.4799 -25.21906,22.52486 -28.0136,25.02923 -1.62471,1.45602 -6.97489,6.24149 -11.88929,10.63437 -4.91441,4.39289 -9.5174,8.51819 -10.22889,9.16734 l -1.2936,1.18026 1.56791,1.83527 c 0.86235,1.00938 1.66899,1.83525 1.79253,1.83525 0.12352,0 5.71704,-5.30453 12.43,-11.78785 z M 175.61986,160.23494 c 14.44078,-2.45093 27.24742,-8.63078 37.75085,-18.21668 15.05126,-13.73647 23.70066,-33.27369 23.70066,-53.534946 0,-20.261255 -8.6494,-39.798473 -23.70066,-53.534941 -10.70099,-9.76621 -23.72961,-15.957037 -38.72886,-18.402835 -5.02533,-0.819437 -16.49084,-0.819437 -21.51617,0 -14.99924,2.445798 -28.02787,8.636625 -38.72886,18.402835 -18.436847,16.826313 -27.013847,42.099445 -22.538397,66.412057 4.42143,24.01916 20.534317,44.18594 43.013647,53.8356 7.16871,3.0773 13.53415,4.68176 22.98064,5.79249 2.98692,0.35119 14.01338,-0.11649 17.76715,-0.75358 z m -17.60414,-6.28231 c -7.83029,-0.78838 -16.85981,-3.38125 -24.1242,-6.92741 -12.00854,-5.86205 -21.94444,-14.90803 -28.4219,-25.8763 -10.864577,-18.39694 -11.912567,-41.747851 -2.74583,-61.18132 1.49902,-3.177923 1.69146,-3.441048 2.28455,-3.123639 0.35619,0.190647 0.73326,0.485141 0.8379,0.654459 0.10465,0.169322 -0.61499,1.970198 -1.5992,4.001942 -4.730097,9.764532 -7.011807,21.232212 -6.115927,30.738137 1.15168,12.220291 5.311887,23.122151 12.500317,32.757111 2.5485,3.41586 8.41213,9.51484 11.68699,12.15603 13.71621,11.06221 32.40691,17.02066 48.95856,15.60758 5.16824,-0.44123 11.27087,-1.57527 15.16459,-2.81801 2.37095,-0.75671 2.57248,-0.7744 2.95629,-0.25941 0.22656,0.30396 0.36188,0.70273 0.30076,0.88616 -0.27052,0.81156 -9.3699,2.83869 -15.35788,3.42137 -4.15262,0.40409 -12.12503,0.38617 -16.32501,-0.0367 z m -5.37905,-44.60514 V 98.589398 h -9.45407 -9.45408 V 87.831308 77.073222 h 9.45408 9.45407 V 66.478133 55.883048 h 10.92109 10.92109 v 10.595085 10.595089 h 9.61708 9.61708 v 10.758086 10.75809 h -9.61708 -9.61708 v 10.758092 10.75809 h -10.92109 -10.92109 z m 18.90816,-2.93402 V 95.655373 h 9.61708 9.61707 v -7.824065 -7.824062 h -9.61707 -9.61708 V 69.412157 58.817072 h -7.98707 -7.98706 v 10.595085 10.595089 h -9.45408 -9.45408 v 7.824062 7.824065 h 9.45408 9.45408 v 10.758097 10.75809 h 7.98706 7.98707 z m -13.69212,-2.28202 V 93.373355 h -9.45407 -9.45408 v -5.542047 -5.542045 h 9.45408 9.45407 V 71.694177 61.099092 h 5.70505 5.70505 v 10.595085 10.595086 h 9.61708 9.61708 v 5.542045 5.542047 h -9.61708 -9.61708 v 10.758095 10.75809 h -5.70505 -5.70505 z m 70.31225,-11.817605 c -0.69928,-0.93841 -0.81109,-1.506641 -0.9782,-4.971541 -0.45436,-9.421166 -2.53184,-17.988403 -6.26671,-25.843122 -5.91802,-12.446026 -15.79721,-21.975996 -29.34351,-28.306215 -3.539,-1.653783 -10.58273,-4.055808 -14.24768,-4.858682 -1.95654,-0.428618 -2.68136,-0.747681 -3.20193,-1.409459 -0.37007,-0.470485 -0.52993,-0.903076 -0.35521,-0.961316 0.5911,-0.197023 7.94525,1.602275 11.26414,2.755937 24.96124,8.676671 40.19904,27.224828 43.36956,52.791419 0.54591,4.402182 1.00595,11.862489 0.73149,11.862489 -0.10034,0 -0.53771,-0.476779 -0.97195,-1.05951 z"
       id="path3608" /></g></svg>
