<?xml version="1.0" encoding="UTF-8" standalone="no"?>
<!-- Created with Inkscape (http://www.inkscape.org/) -->

<svg
   width="200"
   height="200"
   viewBox="0 0 52.916665 52.916666"
   version="1.1"
   id="svg5"
   xml:space="preserve"
   inkscape:export-filename="../../var/www/html/images/icons/navbar/merch/36/merch-Off.svg"
   inkscape:export-xdpi="17.280001"
   inkscape:export-ydpi="17.280001"
   sodipodi:docname="merch-gift-layers.svg"
   inkscape:version="1.2.2 (b0a8486541, 2022-12-01)"
   xmlns:inkscape="http://www.inkscape.org/namespaces/inkscape"
   xmlns:sodipodi="http://sodipodi.sourceforge.net/DTD/sodipodi-0.dtd"
   xmlns="http://www.w3.org/2000/svg"
   xmlns:svg="http://www.w3.org/2000/svg"><sodipodi:namedview
     id="namedview7"
     pagecolor="#ffffff"
     bordercolor="#000000"
     borderopacity="0.25"
     inkscape:showpageshadow="2"
     inkscape:pageopacity="0.0"
     inkscape:pagecheckerboard="0"
     inkscape:deskcolor="#d1d1d1"
     inkscape:document-units="mm"
     showgrid="false"
     inkscape:zoom="2.9981328"
     inkscape:cx="100.06228"
     inkscape:cy="102.06353"
     inkscape:window-width="1920"
     inkscape:window-height="1016"
     inkscape:window-x="0"
     inkscape:window-y="0"
     inkscape:window-maximized="1"
     inkscape:current-layer="layer1" /><defs
     id="defs2"><linearGradient
       id="linearGradient883"
       inkscape:swatch="gradient"><stop
         style="stop-color:#000000;stop-opacity:1;"
         offset="0"
         id="stop879" /><stop
         style="stop-color:#000000;stop-opacity:0;"
         offset="1"
         id="stop881" /></linearGradient></defs><g
     inkscape:label="Layer 1"
     inkscape:groupmode="layer"
     id="layer1"><path
       style="font-variation-settings:normal;opacity:1;fill:none;fill-opacity:1;fill-rule:evenodd;stroke:#aa8800;stroke-width:2.652;stroke-linecap:butt;stroke-linejoin:miter;stroke-miterlimit:4;stroke-dasharray:none;stroke-dashoffset:0;stroke-opacity:1;stop-color:#000000;stop-opacity:1"
       id="path943"
       sodipodi:type="arc"
       sodipodi:cx="26.549307"
       sodipodi:cy="26.49268"
       sodipodi:rx="24.503363"
       sodipodi:ry="24.726454"
       sodipodi:start="0.086039185"
       sodipodi:end="0.083606993"
       sodipodi:open="true"
       sodipodi:arc-type="arc"
       d="M 50.962029,28.6175 A 24.503363,24.726454 0 0 1 24.458502,51.128955 24.503363,24.726454 0 0 1 2.1340417,24.39782 24.503363,24.726454 0 0 1 28.61042,1.8538562 24.503363,24.726454 0 0 1 50.967079,28.557576" /><path
       style="fill:#d4aa00;stroke-width:0.0343426"
       d="m 15.788849,42.154051 c -1.820137,-0.0164 -2.543207,-0.03406 -2.639141,-0.06444 -0.18134,-0.05743 -0.485442,-0.359961 -0.537509,-0.534734 -0.05353,-0.179703 -0.09708,-4.431186 -0.100507,-9.813375 l -0.0025,-4.009489 h 5.786714 5.786714 v 7.2291 7.229102 l -2.893357,-0.0068 c -1.591346,-0.0038 -4.021509,-0.01696 -5.400362,-0.02938 z m 12.483504,-7.192935 v -7.2291 h 5.786715 5.786716 l -0.0026,3.975147 c -0.0036,5.414878 -0.04713,9.669637 -0.10085,9.847717 -0.0549,0.182022 -0.349625,0.47684 -0.531872,0.532049 -0.157559,0.04772 -4.203163,0.09615 -8.405332,0.100603 l -2.532762,0.0027 z M 14.191921,25.325617 c -2.839791,-0.02199 -3.104987,-0.03225 -3.281956,-0.12696 -0.115855,-0.06201 -0.388162,-0.373604 -0.417052,-0.477229 -0.03501,-0.125599 -0.03569,-5.895548 -7.3e-4,-6.059775 0.03277,-0.153808 0.314794,-0.457503 0.496855,-0.53502 0.190401,-0.08106 1.766578,-0.108483 6.395005,-0.111234 2.142888,-0.0012 3.881478,-0.01525 3.863534,-0.03105 -0.01794,-0.01581 -0.295346,-0.09548 -0.616449,-0.177055 -1.124584,-0.285691 -2.015165,-0.607649 -2.850425,-1.030471 -0.934138,-0.472877 -1.504642,-0.870152 -2.141563,-1.491298 -0.826645,-0.80617 -1.25715,-1.560685 -1.380733,-2.419908 -0.06229,-0.433078 -0.02457,-1.143805 0.08259,-1.556387 0.280954,-1.081638 1.107205,-2.0642345 2.074341,-2.466854 0.940354,-0.3914711 2.139793,-0.3771108 3.389277,0.040574 1.556507,0.5203226 3.252231,1.657053 4.543762,3.045917 0.686968,0.73874 1.23984,1.448955 1.627305,2.090422 0.09462,0.156642 0.184947,0.284805 0.200734,0.284805 0.01578,0 0.121436,-0.150678 0.234776,-0.33484 1.507966,-2.450239 4.177696,-4.5776637 6.541264,-5.2125272 0.801024,-0.2151577 1.633564,-0.2676998 2.221807,-0.1402193 0.417744,0.090531 0.944045,0.2797256 1.204452,0.4329737 0.51231,0.3014932 1.034626,0.9090491 1.373057,1.5971358 0.279125,0.567507 0.342677,0.814645 0.366497,1.425213 0.02349,0.602123 -0.02257,0.99119 -0.165833,1.400883 -0.670219,1.916592 -2.96937,3.516979 -6.228675,4.335639 -0.321103,0.08065 -0.598504,0.159712 -0.616449,0.175688 -0.01794,0.01598 1.712919,0.03012 3.846363,0.03143 4.602353,0.0028 6.223317,0.03057 6.408739,0.109657 0.146757,0.0626 0.376186,0.281849 0.464808,0.444194 0.05832,0.106836 0.06193,0.286357 0.06193,3.084068 0,1.633845 -0.01222,3.014461 -0.02716,3.068035 -0.0328,0.117639 -0.309096,0.420548 -0.450132,0.493481 -0.06654,0.03441 -0.265948,0.06218 -0.577005,0.08036 -0.261427,0.01528 -3.194942,0.03903 -6.51892,0.05277 l -6.043599,0.02499 v -3.67997 -3.679971 H 26.177442 24.08255 v 3.67465 3.674649 l -3.460009,-0.0069 c -1.903005,-0.0038 -4.796792,-0.01723 -6.430637,-0.02989 z m 10.428332,-9.212473 c 0.07141,-0.07141 -0.276667,-0.762361 -0.711346,-1.412097 -0.127107,-0.189993 -0.377831,-0.515438 -0.557166,-0.72321 -0.365724,-0.423717 -1.238709,-1.291152 -1.655979,-1.645451 -0.688608,-0.584688 -1.785728,-1.199546 -2.637074,-1.477892 -0.47937,-0.15673 -0.798921,-0.202421 -1.284127,-0.183611 -0.490772,0.01903 -0.652785,0.0826 -0.940679,0.369151 -0.456756,0.454618 -0.637471,1.251814 -0.412046,1.817687 0.541131,1.358365 2.861769,2.616879 5.668864,3.074303 0.292771,0.0477 0.764122,0.110365 1.047448,0.139238 0.283326,0.02887 0.569226,0.05866 0.635337,0.0662 0.196353,0.0224 0.817906,0.0045 0.846768,-0.02432 z m 4.648033,-0.04338 c 3.35651,-0.311103 6.292117,-1.794097 6.718104,-3.393816 0.185362,-0.696091 -0.211993,-1.614203 -0.818866,-1.892038 -0.892963,-0.408813 -2.505281,0.08057 -4.113427,1.248512 -0.974353,0.707647 -1.982075,1.731108 -2.574875,2.615092 -0.365318,0.544763 -0.790692,1.319156 -0.790692,1.439455 0,0.07674 0.641664,0.06975 1.579756,-0.01721 z"
       id="path3454" /></g></svg>
