<?xml version="1.0" encoding="UTF-8" standalone="no"?>
<!-- Created with Inkscape (http://www.inkscape.org/) -->

<svg
   version="1.1"
   id="svg3855"
   width="960"
   height="960"
   viewBox="0 0 960 960"
   sodipodi:docname="merch.jpg"
   inkscape:export-filename="merch48On.svg"
   inkscape:export-xdpi="4.8000002"
   inkscape:export-ydpi="4.8000002"
   xmlns:inkscape="http://www.inkscape.org/namespaces/inkscape"
   xmlns:sodipodi="http://sodipodi.sourceforge.net/DTD/sodipodi-0.dtd"
   xmlns="http://www.w3.org/2000/svg"
   xmlns:svg="http://www.w3.org/2000/svg">
  <defs
     id="defs3859">
    <clipPath
       clipPathUnits="userSpaceOnUse"
       id="clipPath3969">
      <path
         id="path3971"
         style="fill:#ff0000;fill-opacity:1;fill-rule:nonzero;stroke:none"
         d="M 11.113281,70.726562 V 900.38867 H 948.12305 V 70.726562 Z M 601.42773,299.58789 c 36.35442,-0.005 65.53482,41.31435 40.51172,105.96094 -3.24504,8.38356 -6.81401,16.63493 -10.82226,24.68555 -8.6947,17.19018 -18.21814,33.94712 -28.63086,50.16015 -18.12001,28.31561 -36.90306,56.23373 -58.08399,82.38281 -5.9517,7.29033 -11.98525,14.51247 -18.08984,21.67383 27.20098,23.26503 22.80483,72.80026 -37.02148,106.63672 -4.65406,2.63223 -9.34294,5.19906 -13.99219,7.83984 -12.0224,6.81315 -24.03187,13.74476 -36.89258,18.88868 -44.40562,17.76096 -77.54816,10.50285 -93.88477,-7.50977 -24.58225,-8.8023 -35.81583,-36.67229 -23.60546,-69.67578 -2.36415,-12.08978 -2.78664,-26.27805 -0.62891,-42.50391 1.72124,-12.94347 3.90013,-25.81399 6.20508,-38.66406 1.78936,-9.25222 3.58216,-18.50451 5.26172,-27.77734 4.27538,-23.60439 12.57722,-41.46448 22.88476,-53.95508 0.97302,-5.91465 3.20639,-12.76236 6.65235,-20.93164 6.75879,-16.10582 13.84454,-32.08167 22.13867,-47.46875 12.60854,-24.35766 -3.26639,6.23336 6.71289,-12.79883 1.55576,-2.9671 2.95131,-6.02047 4.60937,-8.93164 0.11306,-0.19852 -0.17356,0.5159 -0.13086,0.67187 1.06827,3.90069 2.25948,7.42005 3.54297,10.64844 18.51644,-26.80784 40.89159,-38.63122 60.57617,-38.82031 21.40043,-0.20558 39.6108,13.3298 46.22461,36.25391 5.44593,-2.38503 8.89392,-2.40412 9.5,1.80468 3.96598,-6.89163 7.76545,-13.87875 11.32813,-20.99023 2.16731,-4.51634 4.25383,-9.07462 6,-13.77149 16.52785,-44.4569 44.76072,-63.80524 69.63476,-63.80859 z" />
    </clipPath>
  </defs>
  <sodipodi:namedview
     id="namedview3857"
     pagecolor="#ffffff"
     bordercolor="#000000"
     borderopacity="0.25"
     inkscape:showpageshadow="2"
     inkscape:pageopacity="0.0"
     inkscape:pagecheckerboard="0"
     inkscape:deskcolor="#d1d1d1"
     showgrid="false" />
  <g
     inkscape:groupmode="layer"
     inkscape:label="Image"
     id="g3861">
    <path
       style="fill:#d4aa00;stroke-width:1.03997"
       d="m 356.25484,890.95554 c -1.46776,-5.41085 -2.5377,-10.0022 -2.37766,-10.20299 1.34269,-1.68456 51.48771,-15.11625 82.90682,-22.20716 66.8403,-15.08504 110.36797,-23.17141 143.93951,-26.74038 16.96833,-1.80389 79.85687,-1.79536 98.86236,0.0134 54.37453,5.17488 92.20414,11.79782 119.69138,20.95471 6.11072,2.03569 11.31235,3.49312 11.55919,3.23876 0.24684,-0.25436 -3.74718,-14.90006 -8.87562,-32.54599 -13.90868,-47.8571 -20.89925,-73.62563 -27.60583,-101.7603 -7.12985,-29.91028 -7.40414,-31.27645 -15.40578,-76.72897 -3.40588,-19.3469 -9.83328,-54.89153 -14.28311,-78.98808 -4.44982,-24.09656 -10.44379,-56.87632 -13.31992,-72.84392 -5.63828,-31.30232 -6.69458,-35.82092 -8.77621,-37.54208 -0.74512,-0.6161 -1.19959,-2.51631 -1.00998,-4.22284 0.18959,-1.70648 -0.31409,-3.86596 -1.11929,-4.79883 -1.27178,-1.4734 -1.25883,-1.87159 0.0985,-3.03247 0.8594,-0.73498 1.56256,-2.24432 1.56256,-3.35407 0,-2.74361 5.9328,-8.59137 7.91934,-7.80584 0.85837,0.33943 2.20242,0.0683 2.98677,-0.60247 1.10481,-0.94486 1.88673,-0.79005 3.47078,0.6872 1.12459,1.04877 2.84475,1.97487 3.82259,2.05801 0.97785,0.0831 2.83203,0.74185 4.12042,1.46378 1.28837,0.72195 8.34839,3.4325 15.68893,6.02346 17.08189,6.02936 41.08176,17.11828 61.7699,28.54022 22.25569,12.2874 34.99212,21.26989 47.35947,33.40074 l 6.27214,6.15222 1.19951,-4.90894 c 0.65975,-2.69992 2.76828,-12.57463 4.68564,-21.94382 1.91737,-9.36916 5.55888,-26.53623 8.09223,-38.14902 6.41596,-29.4104 14.15595,-68.87916 18.5291,-94.48595 2.03283,-11.90312 5.2907,-28.87783 7.23974,-37.72161 3.68214,-16.70786 4.28936,-23.2682 2.47677,-26.75835 -1.11522,-2.1474 -12.78443,-8.50602 -32.7409,-17.84069 -60.5849,-28.33874 -109.06045,-58.87249 -160.43819,-101.05671 -56.16901,-46.11813 -78.26044,-63.65852 -80.17546,-63.65852 -0.54685,0 -1.71065,2.01904 -2.58623,4.48677 -15.99943,45.09242 -23.11651,61.59895 -34.55774,80.14899 -11.40525,18.49171 -39.88388,54.24039 -51.15921,64.21919 -2.95237,2.61288 -5.88717,5.22576 -6.52177,5.8064 -6.06927,5.55319 -18.15034,13.48411 -26.203,17.20161 -27.19352,12.55385 -62.75117,7.8436 -98.5744,-13.05797 -21.1869,-12.36179 -39.67351,-29.51889 -69.32704,-64.34125 -20.98983,-24.64852 -49.6658,-64.28278 -57.83261,-79.93292 -2.344,-4.49181 -4.78554,-8.1736 -5.42567,-8.18174 -3.56524,-0.0455 -29.98226,21.38628 -91.03938,73.85867 -58.23517,50.04723 -87.99698,76.58569 -119.351966,106.42559 -19.105889,18.18267 -42.0037,41.37391 -42.0037,42.54194 0,0.56523 2.247518,6.12152 4.994482,12.34733 2.746972,6.22581 8.303339,19.79233 12.347475,30.14782 4.044147,10.35546 11.28429,28.17055 16.08921,39.58908 10.87395,25.84111 21.449065,52.89578 28.747759,73.54637 6.31768,17.87489 9.17488,23.75345 11.5451,23.75345 5.18162,0 58.10921,-30.71017 85.72376,-49.73947 20.04055,-13.81003 31.73852,-20.68909 45.26954,-26.621 7.50845,-3.29165 14.07793,-5.98483 14.59885,-5.98483 0.52091,0 0.94712,-0.47506 0.94712,-1.0557 0,-0.58065 1.16701,-1.05571 2.59335,-1.05571 1.42635,0 2.81429,-0.59384 3.08433,-1.31963 0.61594,-1.65554 13.04808,-1.49394 13.58846,0.17662 0.20336,0.62866 0.99144,1.14301 1.75133,1.14301 0.75986,0 2.29454,1.32123 3.41039,2.93606 1.55514,2.25055 1.7805,3.39331 0.96521,4.89455 -0.72232,1.33006 -0.73355,3.06671 -0.035,5.41213 0.78059,2.62088 0.696,3.79636 -0.35075,4.87501 -3.11511,3.21008 -22.38575,130.77084 -31.15376,206.22039 -8.85822,76.22571 -21.26051,162.1678 -26.50873,183.69333 -3.38302,13.87537 -5.74452,21.51762 -7.07171,22.88527 -0.68876,0.70975 -1.2523,2.62066 -1.2523,4.24645 0,2.25219 -0.48784,2.95598 -2.04896,2.95598 -1.12693,0 -2.04896,0.65721 -2.04896,1.46045 0,2.38405 -3.50347,2.61543 -7.70613,0.50892 -2.16096,-1.08315 -4.99924,-1.96937 -6.30729,-1.96937 -1.40564,0 -2.37827,-0.63242 -2.37827,-1.54641 0,-0.85053 -0.95668,-2.07403 -2.12595,-2.71887 -1.8304,-1.00946 -2.02853,-1.78519 -1.42519,-5.57962 0.38542,-2.42393 1.34211,-5.15717 2.12596,-6.07386 0.78385,-0.91667 1.42518,-2.69819 1.42518,-3.9589 0,-1.26072 0.61594,-2.29222 1.36876,-2.29222 3.58242,0 13.55271,-51.10729 22.14001,-113.4887 4.50679,-32.73905 11.3718,-87.74447 13.90055,-111.37729 2.66543,-24.91013 6.27478,-50.43887 14.32899,-101.34805 4.1797,-26.41911 7.91345,-51.25518 8.29724,-55.19126 l 0.69782,-7.15653 -2.49871,0.97896 c -12.47428,4.88728 -35.16077,17.98523 -62.01877,35.8063 -23.02401,15.27711 -34.79352,22.19881 -59.53317,35.01179 -16.03577,8.30511 -21.01957,11.3647 -21.75385,13.35486 -0.77943,2.11259 -1.42825,2.45855 -3.57133,1.90426 -1.7769,-0.45956 -3.25105,-0.0878 -4.58526,1.15649 -2.32601,2.16918 -5.677705,1.59091 -8.941763,-1.54271 -1.233001,-1.18376 -2.730919,-2.15227 -3.328683,-2.15227 -0.652315,0 -0.825691,-1.07219 -0.433651,-2.68181 0.443006,-1.81892 0.07425,-3.34097 -1.145928,-4.73041 -1.131695,-1.28863 -1.900011,-4.11218 -2.071139,-7.61135 C 88.914929,513.76595 71.875642,468.22133 31.869638,370.6824 22.28573,347.31578 17.772094,338.33988 15.266279,337.66463 c -1.425181,-0.38405 -2.104967,-1.43137 -2.104967,-3.24304 0,-1.47169 -0.461016,-2.96941 -1.02448,-3.32827 -0.563464,-0.35885 -1.024481,-2.52067 -1.024481,-4.80405 0,-3.00825 0.564287,-4.51472 2.048961,-5.47019 1.126929,-0.72523 2.048961,-2.15447 2.048961,-3.17608 0,-1.25198 0.793994,-1.85746 2.435766,-1.85746 1.339668,0 3.009668,-0.7126 3.711116,-1.58357 0.701449,-0.87095 2.053252,-1.58355 3.004002,-1.58355 2.307866,0 8.652484,-5.66842 35.414016,-31.63957 34.429131,-33.41231 54.000217,-51.17011 93.150117,-84.51975 11.2266,-9.56332 31.01122,-26.59614 43.96581,-37.85069 18.69351,-16.24035 53.8074,-45.89847 81.18971,-68.574926 1.64019,-1.358291 4.01942,-2.978515 5.28722,-3.60051 1.26779,-0.621984 2.30508,-2.004762 2.30508,-3.072845 0,-1.37404 0.75843,-1.941952 2.59334,-1.941952 1.42636,0 2.86007,-0.716168 3.18602,-1.591493 0.33281,-0.893728 1.77852,-1.558611 3.29741,-1.516492 1.4876,0.04119 3.39628,-0.03672 4.24148,-0.173357 2.68951,-0.434646 8.19584,2.594447 8.19584,4.508635 0,1.00106 0.98264,2.529347 2.18364,3.396205 1.27089,0.9173 1.9387,2.233877 1.59764,3.14973 -0.70689,1.898272 2.3109,10.735787 5.54032,16.224665 25.36247,43.10744 65.06552,90.39988 95.8863,114.21535 12.42513,9.60099 31.42233,19.83188 43.34177,23.34159 11.97267,3.52538 30.69533,4.00986 42.50885,1.09998 39.81098,-9.80612 78.32136,-49.61205 108.84686,-112.50865 11.47328,-23.64027 17.03594,-38.846428 17.09174,-46.72237 0.038,-5.360315 0.38785,-6.716994 1.85604,-7.197182 0.99507,-0.325461 1.80922,-1.52162 1.80922,-2.65814 0,-1.281084 1.0707,-2.488685 2.81732,-3.177546 3.68774,-1.45442 11.87806,-1.441355 12.35069,0.01966 0.20347,0.629027 1.48407,1.143688 2.84578,1.143688 1.51149,0 2.47581,0.613309 2.47581,1.574621 0,0.866036 0.92204,2.167977 2.04897,2.893215 1.12693,0.725229 2.04896,1.858816 2.04896,2.519071 0,0.660265 5.41694,5.383668 12.03764,10.496457 6.62071,5.112788 17.56985,13.860346 24.33142,19.439016 79.93071,65.94737 124.53914,96.68741 186.96768,128.84097 30.52317,15.72085 55.51239,27.58195 56.92954,27.02158 0.72383,-0.28623 1.88637,0.18773 2.58344,1.05326 0.69707,0.86552 2.31635,1.43202 3.59841,1.2589 4.41969,-0.59683 11.30739,10.04655 8.64268,13.35525 -0.58983,0.7323 -0.78256,2.82467 -0.42836,4.64972 0.41683,2.14743 0.23733,3.31826 -0.50851,3.31826 -0.6339,0 -1.15254,0.91055 -1.15254,2.02343 0,1.1129 -0.48791,2.19103 -1.08414,2.39586 -2.67666,0.91939 -10.80817,36.86903 -19.89483,87.95524 -2.58195,14.51598 -6.31359,33.75628 -8.29256,42.7562 -16.34052,74.3135 -22.21473,103.29472 -21.51724,106.15843 0.35206,1.4455 -0.20444,3.33459 -1.47121,4.99412 -1.12062,1.46805 -2.03747,3.87265 -2.03747,5.34356 0,2.91361 -1.62961,4.48733 -4.19721,4.05329 -0.8998,-0.15209 -2.19161,0.41332 -2.87071,1.25653 -0.93106,1.15604 -2.02338,1.29997 -4.44177,0.58525 -1.76389,-0.5213 -3.67613,-1.43117 -4.24944,-2.02195 -0.57329,-0.59077 -1.84111,-1.07413 -2.81738,-1.07413 -1.62873,0 -3.64235,-3.60221 -3.12504,-5.59045 0.43211,-1.6608 -15.90984,-17.26848 -26.20239,-25.02513 -16.74337,-12.61807 -31.13855,-21.57645 -51.47067,-32.03113 -19.16732,-9.85573 -40.75278,-19.22815 -41.7996,-18.1494 -1.72757,1.78022 2.37752,26.96803 19.27614,118.27376 15.94223,86.13817 26.19603,134.0086 40.59066,189.49974 9.55831,36.84721 24.74831,88.42883 27.51376,93.43023 1.28424,2.32256 2.1139,4.83189 1.84374,5.5763 -0.27018,0.74441 0.23852,2.50113 1.13043,3.90385 1.07892,1.69686 1.25921,2.78122 0.5387,3.24009 -0.5956,0.37933 -0.82877,1.37223 -0.51812,2.20642 0.31064,0.83422 -0.11893,1.78714 -0.95464,2.11759 -0.83571,0.33048 -1.51945,1.26262 -1.51945,2.07146 0,0.80883 -0.6531,1.47061 -1.45134,1.47061 -0.79824,0 -1.60858,0.48605 -1.80074,1.08013 -0.19217,0.59407 -1.9594,1.23754 -3.92718,1.42993 -1.96777,0.1924 -4.0388,0.51864 -4.60226,0.72496 -1.24066,0.45433 -8.65556,-3.11465 -10.6599,-5.13087 -2.0423,-2.05439 -5.0044,-3.10914 -20.09749,-7.15643 -24.80753,-6.65223 -50.38846,-11.40712 -79.37426,-14.75381 -20.08056,-2.31848 -78.50559,-3.22351 -105.09636,-1.62797 -85.66448,5.14014 -172.56876,18.70586 -234.51891,36.60831 -7.32503,2.1168 -14.24028,4.06424 -15.36721,4.32765 -1.80357,0.42154 -2.36857,-0.69931 -4.71761,-9.35898 z m 63.51481,-213.52756 c -0.24639,-0.2539 -1.74862,-0.70467 -3.33831,-1.00171 -4.25842,-0.79575 -13.30634,-3.92905 -14.42844,-4.99661 -0.5353,-0.50927 -1.80309,-0.92594 -2.81732,-0.92594 -1.01424,0 -1.84407,-0.44306 -1.84407,-0.98457 0,-0.54151 -1.01578,-1.31679 -2.25731,-1.72285 -1.2415,-0.40605 -2.79087,-1.26943 -3.44303,-1.91863 -0.65215,-0.64919 -2.97874,-2.93956 -5.17019,-5.08973 -4.06909,-3.99243 -5.07552,-5.20817 -7.29871,-8.81675 -1.51351,-2.45664 -4.4802,-9.01659 -4.7483,-10.49947 -0.10501,-0.58063 -0.47698,-1.53077 -0.82662,-2.11142 -0.7362,-1.22251 -2.91588,-9.33504 -3.54561,-13.19635 -0.23674,-1.4516 -0.67675,-3.35019 -0.97781,-4.2191 -0.30104,-0.86892 -0.52511,-6.67043 -0.49794,-12.89228 0.17357,-39.74697 15.72183,-71.4897 42.85233,-87.48578 12.14524,-7.16079 32.20671,-11.39713 40.26446,-8.50256 1.84354,0.66226 3.5899,0.95884 3.8808,0.65907 0.2909,-0.29977 -0.0526,-6.35904 -0.76317,-13.46505 -2.81508,-28.14939 -8.69424,-62.53255 -10.49614,-61.38496 -2.3618,1.50416 -16.08861,35.9036 -16.92084,42.40372 -0.35249,2.75303 -1.45608,6.20922 -2.45242,7.68042 -0.99633,1.47121 -2.13528,4.45327 -2.53097,6.6268 -0.65991,3.62488 -3.17368,6.31209 -6.11564,6.53765 -0.56347,0.0433 -3.05246,-1.00888 -5.53111,-2.33794 -2.47865,-1.32906 -5.42442,-2.41647 -6.54618,-2.41647 -3.60961,0 -6.65546,-7.15634 -3.81562,-8.96496 0.55605,-0.35414 1.7484,-3.35135 2.64964,-6.66048 2.93938,-10.7926 8.24892,-24.58031 19.39182,-50.35637 6.02421,-13.93536 11.24733,-25.81208 11.60692,-26.39272 0.35958,-0.58064 0.66087,-1.41207 0.66949,-1.84761 0.008,-0.43553 1.28348,-2.4292 2.83301,-4.43035 1.54952,-2.00115 2.81732,-4.13892 2.81732,-4.75058 0,-0.61167 0.86558,-1.11212 1.92352,-1.11212 1.05793,0 2.49743,-0.7126 3.19888,-1.58355 0.70145,-0.87097 2.68144,-1.58357 4.39998,-1.58357 3.87269,0 10.90511,3.2299 10.94079,5.02496 0.0145,0.73147 0.94847,2.14349 2.0754,3.13782 1.12693,0.99431 2.04896,2.8619 2.04896,4.15019 0,1.28829 0.47324,2.64374 1.05165,3.01211 0.57842,0.36837 0.94903,1.22777 0.82363,1.9098 -0.1254,0.68201 0.0841,2.19016 0.46552,3.35144 3.13959,9.55829 9.13496,64.24822 13.0198,118.76725 1.17917,16.54824 2.48031,34.36333 2.8914,39.58909 l 0.74745,9.50138 4.34935,-11.4486 c 6.60907,-17.3968 17.00388,-49.31016 24.296,-74.59168 10.45141,-36.23461 23.05988,-74.23816 30.47207,-91.84667 1.09989,-2.61288 2.22483,-6.1759 2.4999,-7.91782 0.27506,-1.74191 1.19566,-3.96855 2.04574,-4.9481 0.85008,-0.97952 1.2276,-2.31117 0.83893,-2.95923 -0.38865,-0.64803 0.17445,-1.98441 1.25136,-2.96971 1.07691,-0.9853 2.22174,-2.5273 2.54406,-3.42664 0.7354,-2.05197 8.06792,-4.50271 9.39141,-3.1389 0.58537,0.60322 1.679,0.57892 2.84328,-0.0631 1.29001,-0.71143 1.89201,-0.68517 1.89201,0.0826 0,0.6193 0.77157,1.4311 1.71459,1.80399 2.79493,1.1052 5.65661,4.58635 5.06849,6.16566 -0.30069,0.80745 -0.13535,1.7301 0.36743,2.05032 1.23123,0.78414 0.32107,14.69008 -0.99096,15.14076 -0.57043,0.19593 -1.03714,1.22904 -1.03714,2.2958 0,1.26066 -0.99282,2.16428 -2.83634,2.58152 -3.16492,0.71632 -3.50705,1.35965 -9.01154,16.94501 -14.10244,39.9295 -33.94962,101.97548 -43.0566,134.60288 -5.91548,21.19336 -12.62781,43.99667 -14.91625,50.67403 -2.28845,6.67736 -5.06828,14.99107 -6.17741,18.4749 -6.0386,18.96756 -12.55603,29.63042 -22.94485,37.53904 -13.29659,10.12218 -24.00381,13.87871 -40.98594,14.37955 -6.24616,0.18421 -11.55823,0.12719 -11.80461,-0.1267 z m 26.24486,-33.40827 c 9.87409,-1.88096 16.80223,-4.97178 17.49195,-7.80361 0.33028,-1.35604 0.099,-3.43109 -0.51385,-4.6112 -0.64203,-1.23621 -0.72209,-2.39552 -0.1889,-2.73509 1.29131,-0.8224 0.36667,-29.89376 -1.93165,-60.73245 -2.25431,-30.24826 -1.67767,-28.97654 -12.81877,-28.27019 -16.95866,1.07517 -32.81141,16.69682 -40.05492,39.47095 -2.5831,8.12148 -2.97325,10.94128 -2.97325,21.48882 0,9.08126 0.49084,13.68251 1.94782,18.25926 3.85977,12.12458 12.86242,21.80976 22.8433,24.57516 6.22328,1.72428 8.73608,1.77986 16.19827,0.35835 z"
       id="path3865"
       clip-path="url(#clipPath3969)" />
  </g>
</svg>
