<?xml version="1.0" encoding="UTF-8" standalone="no"?>
<!-- Created with Inkscape (http://www.inkscape.org/) -->

<svg
   width="200"
   height="200"
   viewBox="0 0 52.916665 52.916666"
   version="1.1"
   id="svg5"
   xml:space="preserve"
   inkscape:export-filename="share-off.png"
   inkscape:export-xdpi="96"
   inkscape:export-ydpi="96"
   xmlns:inkscape="http://www.inkscape.org/namespaces/inkscape"
   xmlns:sodipodi="http://sodipodi.sourceforge.net/DTD/sodipodi-0.dtd"
   xmlns="http://www.w3.org/2000/svg"
   xmlns:svg="http://www.w3.org/2000/svg"><sodipodi:namedview
     id="namedview7"
     pagecolor="#ffffff"
     bordercolor="#000000"
     borderopacity="0.25"
     inkscape:showpageshadow="2"
     inkscape:pageopacity="0.0"
     inkscape:pagecheckerboard="0"
     inkscape:deskcolor="#d1d1d1"
     inkscape:document-units="mm"
     showgrid="false" /><defs
     id="defs2" /><g
     inkscape:label="Layer 1"
     inkscape:groupmode="layer"
     id="layer1"><path
       style="fill:#aa8800;stroke-width:0.200731"
       d="m 20.165295,51.795648 c -0.764627,-0.344001 -1.267559,-1.230792 -1.267559,-2.235014 0,-1.09155 1.058583,-2.097572 2.207166,-2.097572 1.514739,0 2.631675,1.342412 2.315331,2.782721 -0.292943,1.333756 -1.965302,2.130064 -3.254938,1.549865 z m 10.977051,0.142985 c -0.570449,-0.207567 -1.385895,-1.120832 -1.51153,-1.69284 -0.06926,-0.31531 -0.02206,-0.88834 0.105148,-1.273402 0.3274,-0.992035 1.066356,-1.509319 2.15609,-1.509319 0.751671,0 1.006415,0.110122 1.578779,0.682485 0.779309,0.779311 0.904684,1.718008 0.368057,2.755726 -0.446358,0.863163 -1.77285,1.37346 -2.696541,1.03735 z M 10.128835,44.833104 C 9.2486526,44.578428 8.3110799,43.584461 8.0554057,42.634967 7.2399288,39.606513 11.039784,37.427947 13.26182,39.649981 c 1.665552,1.665554 0.912718,4.567492 -1.347793,5.195309 -0.85544,0.237585 -0.92358,0.237117 -1.785192,-0.01208 z m 10.174022,-0.01183 c -3.000198,-0.858482 -2.923221,-5.163988 0.106681,-5.9675 1.557735,-0.413099 3.032545,0.353237 3.615022,1.878425 0.925002,2.422091 -1.238848,4.799529 -3.721715,4.089075 z m 10.538392,-0.06854 C 29.867686,44.4083 29.229983,43.7117 28.909745,42.642842 c -0.668541,-2.23139 1.477413,-4.402201 3.744414,-3.78778 3.08405,0.835864 3.079499,5.137168 -0.0064,5.978266 -0.961772,0.262149 -0.819909,0.268479 -1.806582,-0.08059 z m 10.200206,0.08051 c -0.880184,-0.254676 -1.817757,-1.248643 -2.073428,-2.198136 -0.815478,-3.028453 2.984378,-5.207022 5.206411,-2.984988 1.665555,1.665556 0.912719,4.567495 -1.347791,5.19531 -0.855442,0.237584 -0.923583,0.237117 -1.785192,-0.01208 z M 19.634448,36.307543 c -1.383882,-0.439139 -2.630945,-1.742337 -3.051445,-3.188799 -1.158765,-3.98601 2.874154,-7.42442 6.630455,-5.653036 1.196019,0.564014 1.74118,1.119042 2.291543,2.333015 0.762125,1.681074 0.465294,3.717849 -0.73554,5.047027 -1.359588,1.504902 -3.278083,2.051043 -5.135013,1.461793 z M 30.841249,36.4359 c -0.986147,-0.240091 -1.792983,-0.741534 -2.561052,-1.591695 -1.199445,-1.327643 -1.495921,-3.365192 -0.734148,-5.045485 0.550362,-1.213974 1.095523,-1.769003 2.291542,-2.333015 2.948922,-1.390645 6.271509,0.403195 6.817205,3.680554 0.522099,3.13566 -2.682859,6.05179 -5.813547,5.289626 z M 9.5637296,34.443517 C 8.6762554,33.895331 8.2447033,33.334224 8.048237,32.473073 c -0.5258788,-2.30501 1.6226826,-4.361238 3.857455,-3.691684 3.458828,1.036287 2.732225,6.037987 -0.87669,6.03485 -0.4886,-4.01e-4 -1.1243634,-0.162142 -1.4652724,-0.372722 z m 30.9126204,0 c -0.866148,-0.535015 -1.238147,-1.022051 -1.482739,-1.941264 -0.609404,-2.290235 1.558935,-4.399706 3.824698,-3.720864 3.45883,1.036287 2.732227,6.037987 -0.876689,6.03485 -0.4886,-4.01e-4 -1.124362,-0.162142 -1.46527,-0.372722 z M 1.9064521,33.627387 C 1.1822429,33.185792 0.72356075,32.068745 0.92751725,31.243348 1.0010846,30.945607 1.2964866,30.454717 1.5839559,30.152487 3.0362086,28.625659 5.448738,29.726813 5.448738,31.91649 c 0,0.565513 -0.1556454,0.888261 -0.6824867,1.415087 -0.8084263,0.808429 -1.8435231,0.915496 -2.8597992,0.29581 z m 46.3783459,-0.29581 c -0.572363,-0.572362 -0.682488,-0.827106 -0.682488,-1.578778 0,-1.093004 0.517708,-1.828825 1.519283,-2.159378 0.889467,-0.293548 1.635369,-0.11653 2.342295,0.555861 1.526828,1.452252 0.425674,3.864783 -1.764003,3.864783 -0.565512,0 -0.88826,-0.15567 -1.415087,-0.682488 z M 19.527446,25.509253 c -0.371274,-0.134356 -1.027501,-0.540196 -1.458281,-0.901855 -2.157912,-1.811674 -2.284701,-4.954249 -0.280734,-6.958214 3.009144,-3.009146 8.140798,-0.888397 8.132939,3.361081 -0.0062,3.290766 -3.309527,5.61518 -6.393924,4.498988 z m 10.310145,-0.202399 c -1.196019,-0.564016 -1.74118,-1.119045 -2.291542,-2.333016 -1.308992,-2.887338 0.525027,-6.181625 3.739448,-6.71684 2.169014,-0.36115 4.542282,1.194368 5.18255,3.396817 1.158766,3.986009 -2.874156,7.424423 -6.630456,5.653039 z M 9.6610376,23.726587 C 8.5197848,23.148119 7.9776441,22.230674 7.9975455,20.911516 c 0.053225,-3.528662 5.1528335,-4.0641 6.0618945,-0.636474 0.387728,1.461923 -0.285051,2.893982 -1.650936,3.514138 -1.096652,0.497917 -1.667289,0.484914 -2.7474664,-0.0626 z m 30.9815094,0.0626 c -2.970583,-1.348739 -1.940939,-5.833618 1.339287,-5.833618 2.556971,0 3.945481,2.753958 2.500441,4.959365 -0.367503,0.560882 -1.749997,1.254489 -2.500441,1.254489 -0.276004,0 -0.878685,-0.171104 -1.339287,-0.380236 z M 2.4377697,23.234049 C 1.8331338,23.014035 1.0346484,22.084597 0.91853165,21.465647 c -0.2706055,-1.442452 0.86585055,-2.70716 2.43263285,-2.70716 1.0352115,0 2.0975735,1.062364 2.0975735,2.097573 0,1.693562 -1.5429647,2.912158 -3.0109683,2.377989 z M 48.897509,23.102706 C 48.070056,22.72934 47.60231,21.95319 47.60231,20.953531 c 0,-1.135995 1.012016,-2.195032 2.097575,-2.195032 1.050994,0 1.89844,0.50862 2.250214,1.350534 0.808032,1.933899 -1.148621,3.85279 -3.05259,2.993673 z M 10.128835,13.920486 C 9.2486526,13.665811 8.3110799,12.671844 8.0554057,11.722349 7.2399288,8.6938921 11.039784,6.5153284 13.26182,8.7373621 c 1.665552,1.6655549 0.912718,4.5674939 -1.347793,5.1953099 -0.85544,0.237585 -0.92358,0.237118 -1.785192,-0.01208 z m 10.174022,-0.01183 c -2.543245,-0.727731 -2.992483,-4.0001859 -0.774614,-5.6426513 0.723054,-0.5354645 2.293646,-0.5496155 3.200426,-0.028834 0.750119,0.4308074 1.588812,1.8523333 1.588812,2.6929333 0,0.28442 -0.203252,0.9181 -0.451646,1.408176 -0.685001,1.351434 -2.119126,1.983522 -3.562978,1.570374 z m 10.538392,-0.06853 c -1.540033,-0.544845 -2.385643,-2.194359 -1.920612,-3.74649 1.030431,-3.439276 6.035601,-2.745611 6.035601,0.836476 0,1.452651 -0.888361,2.60355 -2.30841,2.99061 -0.961769,0.262147 -0.819907,0.268478 -1.806579,-0.08059 z m 10.200206,0.08051 c -0.880184,-0.254683 -1.817757,-1.248649 -2.073428,-2.198144 -0.815478,-3.0284558 2.984378,-5.2070207 5.206411,-2.984987 1.665555,1.665555 0.912719,4.567494 -1.347791,5.195311 -0.855442,0.237584 -0.923583,0.237117 -1.785192,-0.01208 z M 19.580224,4.6271231 c -0.526829,-0.5268295 -0.682488,-0.849577 -0.682488,-1.4150892 0,-2.1896765 2.412532,-3.29082836 3.864783,-1.7640037 1.472596,1.5482168 0.439075,3.8587257 -1.726994,3.8608286 -0.611802,6.022e-4 -0.915013,-0.1414445 -1.455301,-0.6817357 z m 10.922964,0.267552 C 29.861477,4.4156274 29.445996,3.2920095 29.632091,2.5388926 c 0.07357,-0.2977422 0.36897,-0.7886298 0.65644,-1.0908624 1.452251,-1.52682466 3.864783,-0.4256728 3.864783,1.7640037 0,0.5655122 -0.155646,0.8882597 -0.682485,1.4150892 C 32.90041,5.1975382 32.64496,5.3085648 31.91516,5.3032493 31.362601,5.2992238 30.844142,5.1491921 30.503188,4.8946751 Z"
       id="path4494" /></g></svg>
