<?xml version="1.0" encoding="UTF-8" standalone="no"?>
<!-- Created with Inkscape (http://www.inkscape.org/) -->

<svg
   width="200"
   height="200"
   viewBox="0 0 52.916665 52.916666"
   version="1.1"
   id="svg5"
   xml:space="preserve"
   inkscape:export-filename="bitmap.svg"
   inkscape:export-xdpi="11.52"
   inkscape:export-ydpi="11.52"
   xmlns:inkscape="http://www.inkscape.org/namespaces/inkscape"
   xmlns:sodipodi="http://sodipodi.sourceforge.net/DTD/sodipodi-0.dtd"
   xmlns="http://www.w3.org/2000/svg"
   xmlns:svg="http://www.w3.org/2000/svg"><sodipodi:namedview
     id="namedview7"
     pagecolor="#ffffff"
     bordercolor="#000000"
     borderopacity="0.25"
     inkscape:showpageshadow="2"
     inkscape:pageopacity="0.0"
     inkscape:pagecheckerboard="0"
     inkscape:deskcolor="#d1d1d1"
     inkscape:document-units="mm"
     showgrid="false" /><defs
     id="defs2"><linearGradient
       id="linearGradient883"
       inkscape:swatch="gradient"><stop
         style="stop-color:#000000;stop-opacity:1;"
         offset="0"
         id="stop879" /><stop
         style="stop-color:#000000;stop-opacity:0;"
         offset="1"
         id="stop881" /></linearGradient></defs><g
     inkscape:label="Layer 1"
     inkscape:groupmode="layer"
     id="layer1"><path
       style="font-variation-settings:normal;opacity:1;fill:none;fill-opacity:1;fill-rule:evenodd;stroke:#d4aa00;stroke-width:2.652;stroke-linecap:butt;stroke-linejoin:miter;stroke-miterlimit:4;stroke-dasharray:none;stroke-dashoffset:0;stroke-opacity:1;stop-color:#000000;stop-opacity:1"
       id="path943"
       sodipodi:type="arc"
       sodipodi:cx="26.549307"
       sodipodi:cy="26.49268"
       sodipodi:rx="24.503363"
       sodipodi:ry="24.726454"
       sodipodi:start="0.086039185"
       sodipodi:end="0.083606993"
       sodipodi:open="true"
       sodipodi:arc-type="arc"
       d="M 50.962029,28.6175 A 24.503363,24.726454 0 0 1 24.458502,51.128955 24.503363,24.726454 0 0 1 2.1340417,24.39782 24.503363,24.726454 0 0 1 28.61042,1.8538562 24.503363,24.726454 0 0 1 50.967079,28.557576" /><path
       style="fill:#d4aa00;stroke-width:0.0341952"
       d="m 24.545513,43.54774 c -2.184259,-0.100421 -4.12695,-0.356494 -5.723344,-0.754415 -0.539552,-0.134491 -1.470943,-0.446522 -1.815413,-0.608192 -0.369615,-0.173472 -0.427989,-0.242854 -0.466344,-0.554292 -0.0348,-0.282604 -0.09482,-7.668754 -0.09723,-11.967562 -8.46e-4,-1.563066 -0.01362,-2.841938 -0.02831,-2.841938 -0.253334,0 -1.250721,-0.169568 -1.91816,-0.32611 -1.179722,-0.276695 -2.909972,-0.889364 -3.371966,-1.193989 -0.314932,-0.207657 -0.325172,-0.439696 -0.109187,-2.473974 0.51274,-4.829311 1.512914,-8.403003 2.670364,-9.541401 0.89183,-0.87715 3.108646,-1.891639 6.041829,-2.764942 1.085527,-0.323197 1.446488,-0.404059 1.678103,-0.375929 0.104949,0.01275 0.830493,0.128715 1.61232,0.257707 2.155857,0.355692 2.146135,0.354615 3.202665,0.354615 1.054114,0 1.021159,0.0036 3.215409,-0.358162 1.668356,-0.275112 1.791741,-0.282091 2.364941,-0.133765 1.910005,0.494249 3.701092,1.132717 5.072359,1.808142 1.223042,0.602416 1.879192,1.082211 2.257419,1.650683 0.965421,1.451024 1.778058,4.514059 2.228936,8.401439 0.150147,1.294547 0.263585,2.5576 0.242366,2.698617 -0.02457,0.163351 -0.137351,0.359634 -0.262661,0.45717 -0.323328,0.251665 -1.571829,0.723843 -2.80944,1.062518 -0.741807,0.202999 -1.331997,0.325885 -1.979476,0.412155 -0.271767,0.03621 -0.498569,0.07027 -0.504005,0.07568 -0.0055,0.0054 -0.02636,3.082123 -0.04652,6.837124 -0.02015,3.755002 -0.05027,7.141236 -0.06695,7.524967 l -0.03031,0.697692 -0.09698,0.07913 c -0.142276,0.116076 -0.593961,0.326612 -1.004685,0.468297 -1.610611,0.555599 -3.676699,0.911312 -6.251189,1.076251 -0.757991,0.04856 -3.220334,0.06853 -4.004533,0.03249 z m 2.976941,-1.414106 c 2.562997,-0.04353 4.718832,-0.347238 6.627972,-0.933698 l 0.428163,-0.131527 0.0071,-0.543552 c 0.004,-0.298954 0.02379,-4.529946 0.04421,-9.402204 0.0204,-4.87226 0.05129,-9.25806 0.06864,-9.746224 0.03344,-0.940718 0.0694,-1.170378 0.285995,-1.826351 0.373341,-1.130724 0.979345,-2.127805 1.433794,-2.359079 0.341185,-0.173634 0.782333,-0.0069 0.933127,0.352877 0.113875,0.27162 0.03732,0.499348 -0.33647,1.000858 -0.271774,0.364645 -0.487471,0.788807 -0.655282,1.288611 -0.282755,0.842147 -0.311636,1.15668 -0.346209,3.770548 l -0.02405,1.817815 0.09952,-4e-6 c 0.20189,-1.6e-5 0.973593,-0.142385 1.582836,-0.292013 0.663159,-0.162871 1.543909,-0.437215 2.113257,-0.658257 l 0.34253,-0.132984 0.0117,-0.183791 c 0.04197,-0.659288 -0.460215,-4.252464 -0.819618,-5.86444 -0.347225,-1.557353 -0.697052,-2.651183 -1.087249,-3.399572 -0.395278,-0.758135 -1.346431,-1.390758 -3.17429,-2.11126 -0.909093,-0.358346 -2.897402,-1.006703 -3.275609,-1.068128 -0.12325,-0.02002 -0.125535,-0.01818 -0.264477,0.213037 -0.280793,0.467273 -0.78395,0.971407 -1.306726,1.309265 -0.746851,0.482671 -1.851834,0.853861 -2.962892,0.995305 -0.440516,0.05608 -1.61817,0.05572 -2.038059,-6.45e-4 -1.041173,-0.139728 -1.988334,-0.440715 -2.719593,-0.864224 -0.601647,-0.348447 -1.183471,-0.877608 -1.503871,-1.36775 -0.108974,-0.166708 -0.202611,-0.272762 -0.251654,-0.28503 -0.154369,-0.03862 -2.24269,0.637803 -3.401446,1.101744 -1.545686,0.618861 -2.577188,1.256055 -2.96863,1.833827 -0.381617,0.56327 -0.832238,1.866671 -1.17492,3.398398 -0.367048,1.640635 -0.762838,4.308252 -0.877432,5.913859 -0.02832,0.396793 -0.06976,0.355576 0.609437,0.606041 1.103729,0.407014 2.421883,0.73846 3.339491,0.839702 l 0.214082,0.02362 -0.0012,-0.814113 c -0.0021,-1.501978 -0.05926,-3.248449 -0.118618,-3.630451 -0.07452,-0.479855 -0.258992,-1.176367 -0.411337,-1.553254 -0.162289,-0.401489 -0.313964,-0.669111 -0.548603,-0.967979 -0.25177,-0.320685 -0.37271,-0.583364 -0.349157,-0.758367 0.04276,-0.317756 0.342731,-0.577929 0.666324,-0.577929 0.336799,0 0.61991,0.219373 0.980885,0.760052 0.504957,0.75634 0.930081,1.867662 1.015135,2.653687 0.06507,0.601326 0.09818,3.701084 0.122149,11.436025 0.01312,4.233891 0.03333,8.012301 0.04491,8.396469 l 0.02105,0.698487 0.205519,0.06348 c 1.796868,0.55501 3.13596,0.78472 5.634633,0.966578 0.348489,0.02535 2.392428,0.07031 2.620362,0.05761 0.07535,-0.0042 0.599428,-0.01547 1.164604,-0.02508 z M 27.101099,12.842359 c 0.212905,-0.028 0.545944,-0.08943 0.740086,-0.13648 0.595592,-0.14435 1.519557,-0.555578 1.85892,-0.827345 l 0.151559,-0.121371 -0.112422,0.02123 c -0.508608,0.09605 -2.392572,0.345606 -3.008154,0.398477 -0.681573,0.05855 -1.586057,-0.02155 -3.282571,-0.290662 -0.429002,-0.06805 -0.787508,-0.11625 -0.796681,-0.107108 -0.0603,0.0601 0.888393,0.575915 1.376802,0.748568 0.349223,0.123451 0.922319,0.260568 1.307904,0.312926 0.460175,0.06248 1.296656,0.06333 1.764557,0.0018 z"
       id="path2843" /></g></svg>
